<?xml version="1.0" encoding="UTF-8"?>
<svg width="512pt" height="512pt" version="1.1" fill="#624296" opacity="0.2" viewBox="0 0 512 512" xmlns="http://www.w3.org/2000/svg">
 <path d="m512 0h-512v505.86-89.602 95.742h512zm-11.777 4.0977c-23.551 16.383-54.785 16.383-78.336 0zm-86.016 7.6797c16.383 23.551 16.383 54.785 0 78.336zm0 102.4c16.383 23.551 16.383 54.785 0 78.336zm0 102.4c16.383 23.551 16.383 54.785 0 78.336zm-16.383-212.48c-23.551 16.383-54.785 16.383-78.336 0zm-86.016 7.6797c16.383 23.551 16.383 54.785 0 78.336zm0 102.4c16.383 23.551 16.383 54.785 0 78.336zm0 102.4c16.383 23.551 16.383 54.785 0 78.336zm0 86.02c22.527-26.625 22.527-66.047 0-92.672v-0.51172h0.51172c26.625 22.527 66.047 22.527 92.672 0h0.51172v0.51172c-22.527 26.625-22.527 66.047 0 92.672v0.51172h-0.51172c-27.137-22.531-66.047-22.531-93.184-0.51172zm86.016-93.188c-23.551 16.383-54.785 16.383-78.336 0zm-78.848-8.7031c23.551-16.383 54.785-16.383 78.336 0zm86.527 15.871v78.336c-16.895-23.039-16.895-54.781 0-78.336zm-86.527 86.531c23.551-16.383 54.785-16.383 78.336 0zm78.848 8.7031c-23.551 16.383-54.785 16.383-78.336 0zm-86.016 7.168c16.383 23.551 16.383 54.785 0 78.336zm-16.383-314.88c-23.551 16.383-54.785 16.383-78.336 0zm-86.02 7.6797c16.383 23.551 16.383 54.785 0 78.336zm0 102.4c16.383 23.551 16.383 54.785 0 78.336zm0 204.8c16.383 23.551 16.383 54.785 0 78.336zm0 102.91c16.383 23.551 16.383 54.785 0 78.336zm-16.383-417.79c-23.551 16.383-54.785 16.383-78.336 0zm-86.016 7.6797c16.383 23.551 16.383 54.785 0 78.336zm0 102.4c16.383 23.551 16.383 54.785 0 78.336zm0 102.4c16.383 23.551 16.383 54.785 0 78.336zm-16.383-212.48c-23.551 16.383-54.785 16.383-78.336 0zm-86.527 7.6797c16.383 23.551 16.383 54.785 0 78.336zm0 102.4c16.383 23.551 16.383 54.785 0 78.336zm0 102.4c16.383 23.551 16.383 54.785 0 78.336zm0 86.02c22.527-26.625 22.527-66.047 0-92.672v-0.51172h0.51172c26.625 22.527 66.047 22.527 92.672 0h0.51172v0.51172c-22.527 26.625-22.527 66.047 0 92.672v0.51172h-0.51172c-26.625-22.531-65.539-22.531-93.184-0.51172zm86.527-93.188c-23.551 16.383-54.785 16.383-78.336 0zm-78.848-8.7031c23.551-16.383 54.785-16.383 78.336 0zm86.527 15.871v78.336c-16.898-23.039-16.898-54.781 0-78.336zm-86.527 86.531c23.551-16.383 54.785-16.383 78.336 0zm78.848 8.7031c-23.551 16.383-54.785 16.383-78.336 0zm-86.527 7.168c16.383 23.551 16.383 54.785 0 78.336zm0 102.91c16.383 23.551 16.383 54.785 0 78.336zm7.6797 86.016c23.551-16.383 54.785-16.383 78.336 0zm86.527-7.6797c-16.383-23.551-16.383-54.785 0-78.336zm0-86.016c-22.527 26.625-22.527 66.047 0 92.672v0.51172h-0.51172c-26.625-22.527-66.047-22.527-92.672 0h-1.0234v-0.51172c22.527-26.625 22.527-66.047 0-92.672v-0.51172h0.51172c27.133 22.527 66.047 22.527 93.695 0.51172zm-86.527-8.7031c23.551-16.383 54.785-16.383 78.336 0zm78.848 8.7031c-23.551 16.383-54.785 16.383-78.336 0zm7.6797-8.7031c-27.137-22.527-66.559-22.527-93.184 0h-1.0234v-0.51172c22.527-26.625 22.527-66.047 0-92.672v-0.51172h0.51172c26.625 22.527 66.047 22.527 92.672 0h0.51172v0.51172c-22.016 26.625-22.016 65.535 0.51172 93.184zm0-86.527v78.336c-16.898-23.039-16.898-54.785 0-78.336zm0-125.95c-16.383-23.551-16.383-54.785 0-78.336zm0-86.016c-22.527 26.625-22.527 66.047 0 92.672v0.51172h-0.51172c-26.625-22.527-66.047-22.527-92.672 0h-1.0234v-0.51172c22.527-26.625 22.527-66.047 0-92.672v-0.51172h0.51172c27.133 22.527 66.047 22.527 93.695 0.51172zm-7.6797 0c-23.551 16.383-54.785 16.383-78.336 0zm-78.848-8.7031c23.551-16.383 54.785-16.383 78.336 0zm86.527 0c-27.137-22.527-66.559-22.527-93.184 0h-1.0234v-0.51172c22.527-26.625 22.527-66.047 0-92.672v-1.0234h0.51172c26.625 22.527 66.047 22.527 92.672 0h0.51172v0.51172c-22.016 27.133-22.016 66.047 0.51172 93.695zm0-86.527v78.336c-16.898-23.043-16.898-54.785 0-78.336zm15.871 496.12c23.551-16.383 54.785-16.383 78.336 0zm86.527-7.6797c-16.383-23.551-16.383-54.785 0-78.336zm0-86.016c-22.527 26.625-22.527 66.047 0 92.672v0.51172h-0.51172c-26.625-22.527-66.047-22.527-92.672 0h-0.51172v-0.51172c22.527-26.625 22.527-66.047 0-92.672v-0.51172h0.51172c26.625 22.527 65.535 22.527 93.184 0.51172zm-93.695 86.016v-78.336c16.383 23.043 16.383 54.785 0 78.336zm86.016-86.016c-23.551 16.383-54.785 16.383-78.336 0zm-78.848-8.7031c23.551-16.383 54.785-16.383 78.336 0zm86.527-7.6797c-16.383-23.551-16.383-54.785 0-78.336zm0-86.016c-22.527 26.625-22.527 66.047 0 92.672v0.51172h-0.51172c-26.625-22.527-66.047-22.527-92.672 0h-0.51172v-0.51172c22.527-26.625 22.527-66.047 0-92.672v-0.51172h0.51172c26.625 22.527 65.535 22.527 93.184 0.51172zm-93.695 86.016v-78.848c16.383 23.551 16.383 55.297 0 78.848zm7.168-94.719c23.551-16.383 54.785-16.383 78.336 0zm78.848 8.7031c-23.551 16.383-54.785 16.383-78.336 0zm7.6797-16.383c-16.383-23.551-16.383-54.785 0-78.336zm0-86.02c-22.527 26.625-22.527 66.047 0 92.672v0.51172h-0.51172c-26.625-22.527-66.047-22.527-92.672 0h-0.51172v-0.51172c22.527-26.625 22.527-66.047 0-92.672v-0.51172h0.51172c26.625 22.531 65.535 22.531 93.184 0.51172zm-7.6797 0c-23.551 16.383-54.785 16.383-78.336 0zm-78.848-8.7031c23.551-16.383 54.785-16.383 78.336 0zm86.527-7.6797c-16.383-23.551-16.383-54.785 0-78.336zm0-86.016c-22.527 26.625-22.527 66.047 0 92.672v0.51172h-0.51172c-26.625-22.527-66.047-22.527-92.672 0h-0.51172v-0.51172c22.527-26.625 22.527-66.047 0-92.672v-0.51172h0.51172c26.625 22.527 65.535 22.527 93.184 0.51172zm-7.6797 0c-23.551 16.383-54.785 16.383-78.336 0zm-78.848-8.7031c23.551-16.383 54.785-16.383 78.336 0zm86.527-7.6797c-16.383-23.551-16.383-54.785 0-78.336zm0-86.016c-22.527 26.625-22.527 66.047 0 92.672v0.51172h-0.51172c-26.625-22.527-66.047-22.527-92.672 0h-0.51172v-0.51172c22.527-26.625 22.527-66.047 0-92.672v-0.51172h0.51172c26.625 22.527 65.535 22.527 93.184 0.51172zm15.871 503.29c23.551-16.383 54.785-16.383 78.336 0zm86.531 0c-27.137-22.527-66.559-22.527-93.184 0h-0.51172v-0.51172c22.527-26.625 22.527-66.047 0-92.672v-0.51172h0.51172c26.625 22.527 66.047 22.527 92.672 0h0.51172v0.51172c-22.531 26.625-22.531 65.539 0 93.184zm-7.6797-93.695c-23.551 16.383-54.785 16.383-78.336 0zm-78.852-8.7031c23.551-16.383 54.785-16.383 78.336 0zm86.531 16.383v78.336c-16.898-23.551-16.898-55.293 0-78.336zm0-24.062c-16.383-23.551-16.383-54.785 0-78.336zm0-86.016c-22.527 26.625-22.527 66.047 0 92.672v0.51172h-0.51172c-26.625-22.527-66.047-22.527-92.672 0h-0.51172v-0.51172c22.527-26.625 22.527-66.047 0-92.672v-0.51172h0.51172c26.621 22.527 65.535 22.527 93.184 0.51172zm-7.6797 0c-23.551 16.383-54.785 16.383-78.336 0zm-78.852-8.7031c23.551-16.383 54.785-16.383 78.336 0zm86.531-7.6797c-16.383-23.551-16.383-54.785 0-78.336zm0-86.02c-22.527 26.625-22.527 66.047 0 92.672v0.51172h-0.51172c-26.625-22.527-66.047-22.527-92.672 0h-0.51172v-0.51172c22.527-26.625 22.527-66.047 0-92.672v-0.51172h0.51172c26.621 22.531 65.535 22.531 93.184 0.51172zm-93.699 86.02v-78.852c16.387 23.555 16.387 55.297 0 78.852zm7.168-94.723c23.551-16.383 54.785-16.383 78.336 0zm78.852 8.7031c-23.551 16.383-54.785 16.383-78.336 0zm7.6797-8.7031c-27.137-22.527-66.559-22.527-93.184 0h-0.51172v-0.51172c22.527-26.625 22.527-66.047 0-92.672v-0.51172h0.51172c26.625 22.527 66.047 22.527 92.672 0h0.51172v0.51172c-22.531 26.625-22.531 65.535 0 93.184zm-7.6797-93.695c-23.551 16.383-54.785 16.383-78.336 0zm-78.852-8.7031c23.551-16.383 54.785-16.383 78.336 0zm86.531 15.871v78.336c-16.898-23.039-16.898-54.785 0-78.336zm0-23.551c-16.383-23.551-16.383-54.785 0-78.336zm0-86.016c-22.527 26.625-22.527 66.047 0 92.672v0.51172h-0.51172c-26.625-22.527-66.047-22.527-92.672 0h-0.51172v-0.51172c22.527-26.625 22.527-66.047 0-92.672l-0.003906-0.51172h0.51172c26.625 22.527 65.539 22.527 93.188 0.51172zm15.871 503.29c23.551-16.383 54.785-16.383 78.336 0zm86.527-7.6797c-16.383-23.551-16.383-54.785 0-78.336zm0-86.016c-22.527 26.625-22.527 66.047 0 92.672v0.51172h-0.51172c-26.625-22.527-66.047-22.527-92.672 0h-0.51172v-0.51172c22.527-26.625 22.527-66.047 0-92.672v-0.51172h0.51172c26.625 22.527 65.535 22.527 93.184 0.51172zm-93.695 7.6797c16.383 23.551 16.383 54.785 0 78.336zm86.016-7.6797c-23.551 16.383-54.785 16.383-78.336 0zm-78.848-8.7031c23.551-16.383 54.785-16.383 78.336 0zm86.527 0c-27.137-22.527-66.559-22.527-93.184 0h-0.51172v-0.51172c22.527-26.625 22.527-66.047 0-92.672v-0.51172h0.51172c26.625 22.527 66.047 22.527 92.672 0h0.51172v0.51172c-22.527 26.625-22.527 65.535 0 93.184zm0-86.527v78.336c-16.895-23.039-16.895-54.785 0-78.336zm0-125.95c-16.383-23.551-16.383-54.785 0-78.336zm0-86.016c-22.527 26.625-22.527 66.047 0 92.672v0.51172h-0.51172c-26.625-22.527-66.047-22.527-92.672 0h-0.51172v-0.51172c22.527-26.625 22.527-66.047 0-92.672v-0.51172h0.51172c26.625 22.527 65.535 22.527 93.184 0.51172zm-86.527-8.7031c23.551-16.383 54.785-16.383 78.336 0zm78.848 8.7031c-23.551 16.383-54.785 16.383-78.336 0zm7.6797-8.7031c-27.137-22.527-66.559-22.527-93.184 0h-0.51172v-0.51172c22.527-26.625 22.527-66.047 0-92.672v-1.0234h0.51172c26.625 22.527 66.047 22.527 92.672 0h0.51172v0.51172c-22.527 27.133-22.527 66.047 0 93.695zm0-86.527v78.336c-16.895-23.043-16.895-54.785 0-78.336zm16.383 496.12c23.551-16.383 54.785-16.383 78.336 0zm86.016-7.6797c-16.383-23.551-16.383-54.785 0-78.336zm0-86.016c-22.527 26.625-22.527 66.047 0 92.672v0.51172h-0.51172c-26.625-22.527-66.047-22.527-92.672 0h-0.51172v-0.51172c22.527-26.625 22.527-66.047 0-92.672v-0.51172h0.51172c26.625 22.527 65.539 22.527 93.184 0.51172zm-93.695 86.016v-78.336c16.387 23.043 16.387 54.785 0 78.336zm86.016-86.016c-23.551 16.383-54.785 16.383-78.336 0zm-78.336-8.7031c23.551-16.383 54.785-16.383 78.336 0zm86.016-7.6797c-16.383-23.551-16.383-54.785 0-78.336zm0-86.016c-22.527 26.625-22.527 66.047 0 92.672v0.51172h-0.51172c-26.625-22.527-66.047-22.527-92.672 0h-0.51172v-0.51172c22.527-26.625 22.527-66.047 0-92.672v-0.51172h0.51172c26.625 22.527 65.539 22.527 93.184 0.51172zm-93.695 86.016v-78.848c16.387 23.551 16.387 55.297 0 78.848zm7.6797-94.719c23.551-16.383 54.785-16.383 78.336 0zm78.336 8.7031c-23.551 16.383-54.785 16.383-78.336 0zm7.6797-16.383c-16.383-23.551-16.383-54.785 0-78.336zm0-86.02c-22.527 26.625-22.527 66.047 0 92.672v0.51172h-0.51172c-26.625-22.527-66.047-22.527-92.672 0h-0.51172v-0.51172c22.527-26.625 22.527-66.047 0-92.672v-0.51172h0.51172c26.625 22.531 65.539 22.531 93.184 0.51172zm-7.6797 0c-23.551 16.383-54.785 16.383-78.336 0zm-78.336-8.7031c23.551-16.383 54.785-16.383 78.336 0zm86.016-7.6797c-16.383-23.551-16.383-54.785 0-78.336zm0-86.016c-22.527 26.625-22.527 66.047 0 92.672v0.51172h-0.51172c-26.625-22.527-66.047-22.527-92.672 0h-0.51172v-0.51172c22.527-26.625 22.527-66.047 0-92.672v-0.51172h0.51172c26.625 22.527 65.539 22.527 93.184 0.51172zm-7.6797 0c-23.551 16.383-54.785 16.383-78.336 0zm-78.336-8.7031c23.551-16.383 54.785-16.383 78.336 0zm86.016-7.6797c-16.383-23.551-16.383-54.785 0-78.336zm0-86.016c-22.527 26.625-22.527 66.047 0 92.672v0.51172h-0.51172c-26.625-22.527-66.047-22.527-92.672 0h-0.51172v-0.51172c22.527-26.625 22.527-66.047 0-92.672v-0.51172h0.51172c26.625 22.527 65.539 22.527 93.184 0.51172z"/>
</svg>
