<?xml version="1.0" standalone="no"?>
<!DOCTYPE svg PUBLIC "-//W3C//DTD SVG 20010904//EN"
 "http://www.w3.org/TR/2001/REC-SVG-20010904/DTD/svg10.dtd">
<svg version="1.0" xmlns="http://www.w3.org/2000/svg"
 width="1088.000000pt" height="1280.000000pt" viewBox="190 215 800 800"
 preserveAspectRatio="xMidYMid meet">
<metadata>
Created by potrace 1.15, written by Peter Selinger 2001-2017
</metadata>
<g transform="translate(0.000000,1280.000000) scale(0.100000,-0.100000)"
fill="#38517d" opacity="0.25" stroke="none">
<path d="M2022 12083 c14 -16 48 -64 74 -108 64 -107 156 -199 215 -215 24 -7
50 -14 58 -16 9 -3 2 -16 -22 -43 -24 -27 -39 -56 -48 -96 -18 -81 -8 -102 71
-143 60 -31 70 -34 135 -29 39 2 91 14 118 25 26 12 47 20 47 18 0 -2 -9 -23
-20 -47 -19 -44 -28 -157 -14 -194 9 -21 86 -60 165 -81 44 -12 100 -17 179
-17 166 0 288 31 458 117 39 20 72 34 72 32 0 -10 -104 -66 -204 -110 -114
-49 -215 -109 -278 -165 -88 -77 -158 -226 -158 -336 0 -52 0 -52 43 -70 23
-10 79 -19 127 -22 97 -6 166 13 245 66 25 17 45 29 45 27 0 -2 -7 -23 -16
-47 -19 -54 -13 -119 16 -183 l22 -46 87 0 c151 0 279 47 384 141 32 28 117
130 189 226 72 96 160 204 195 239 103 103 250 199 356 234 55 17 40 22 -20 6
-179 -47 -321 -158 -566 -441 -71 -82 -151 -169 -178 -192 -105 -90 -225 -145
-346 -158 -57 -7 -62 -6 -74 16 -22 38 -16 155 10 213 33 75 100 162 192 252
74 72 232 196 263 207 6 2 9 7 6 10 -10 11 -230 -43 -330 -80 -217 -81 -381
-179 -526 -316 l-88 -82 30 55 c41 78 181 216 294 290 166 109 394 208 627
273 62 18 113 35 113 38 0 4 -17 10 -37 14 -21 4 -108 34 -193 67 -183 71
-423 136 -535 144 -164 12 -307 -47 -442 -183 -46 -46 -83 -81 -83 -78 0 3 10
25 21 48 54 105 218 216 397 267 45 13 82 26 82 30 0 11 -165 71 -235 85 -195
40 -387 -4 -534 -123 -36 -29 -41 -31 -31 -12 25 47 103 112 173 145 96 46
172 64 295 72 l103 6 -33 35 c-82 85 -214 169 -356 226 l-89 36 -239 0 -238 0
26 -27z"/>
<path d="M2683 12075 c99 -43 250 -143 350 -231 168 -147 326 -248 500 -320
107 -44 120 -43 58 6 -51 40 -116 120 -144 175 -8 17 -36 89 -62 160 -26 72
-61 156 -77 188 l-28 57 -135 0 c-95 0 -135 -3 -135 -12 0 -12 91 -104 130
-131 25 -17 24 -17 -10 -3 -19 7 -89 43 -155 80 l-120 66 -125 0 -125 -1 78
-34z"/>
<path d="M3320 12105 c0 -4 7 -19 15 -36 9 -16 35 -81 59 -143 23 -63 62 -149
87 -192 79 -139 241 -281 378 -329 24 -8 46 -13 48 -11 2 2 -19 20 -46 41
-160 117 -256 307 -249 497 l3 83 44 -80 c150 -274 366 -497 546 -564 78 -29
89 -26 27 8 -151 84 -309 229 -422 389 -68 96 -180 288 -180 310 0 30 -21 7
-34 -39 -39 -131 -27 -257 39 -390 26 -55 30 -68 14 -49 -40 46 -106 217 -174
453 l-16 57 -70 0 c-38 0 -69 -2 -69 -5z"/>
<path d="M3699 12012 c149 -252 282 -418 406 -505 17 -12 0 8 -36 44 -37 37
-92 101 -123 142 -58 78 -197 300 -235 375 -16 32 -27 42 -46 42 -23 0 -22 -3
34 -98z"/>
<path d="M4230 12104 c0 -19 85 -182 127 -245 39 -57 136 -175 181 -219 16
-15 -17 32 -49 70 -61 73 -145 214 -185 310 -28 68 -41 90 -55 90 -11 0 -19
-3 -19 -6z"/>
<path d="M4310 12099 c0 -24 114 -230 173 -312 157 -218 375 -412 598 -531 91
-49 90 -55 -5 -29 -39 11 -102 17 -176 17 -105 1 -119 -1 -160 -24 -58 -32
-90 -81 -90 -134 0 -40 -2 -42 -45 -58 -148 -55 -261 -184 -281 -322 l-7 -50
25 20 c153 120 235 167 361 210 192 65 461 53 641 -29 l51 -24 45 19 c154 66
356 93 510 69 158 -25 326 -102 456 -208 l64 -53 0 42 c0 108 -103 238 -243
309 l-81 40 -1 42 c-1 54 -26 91 -83 124 -74 44 -214 42 -402 -3 -14 -4 16 17
65 46 260 151 456 332 612 564 60 88 153 258 153 278 0 4 -12 8 -27 8 -24 0
-31 -8 -53 -57 -113 -261 -447 -585 -872 -847 -43 -27 -78 -50 -78 -53 0 -11
167 6 275 27 124 25 216 23 280 -5 l40 -18 -87 -17 c-116 -24 -146 -35 -204
-73 l-49 -32 155 -6 c174 -7 264 -30 372 -95 53 -32 154 -131 144 -141 -2 -2
-26 11 -53 30 -70 51 -160 93 -260 124 -81 24 -102 27 -253 27 -156 -1 -172
-3 -295 -35 l-130 -35 -80 23 c-340 98 -630 58 -882 -123 -42 -30 -23 3 33 60
111 111 273 166 487 166 145 0 151 5 54 53 -52 25 -126 47 -217 64 l-45 9 35
18 c58 32 151 32 308 2 81 -16 163 -26 197 -24 l57 3 -103 64 c-408 253 -728
565 -850 826 -26 54 -35 65 -55 65 -13 0 -24 -5 -24 -11z"/>
<path d="M4674 12049 c7 -70 33 -134 76 -189 29 -37 96 -87 105 -78 2 2 -2 26
-10 53 -23 76 -16 170 20 258 6 14 2 17 -23 17 -36 0 -52 -32 -61 -123 l-7
-62 -18 34 c-10 19 -21 61 -23 93 -6 57 -6 58 -36 58 l-30 0 7 -61z"/>
<path d="M5930 12101 c0 -5 6 -26 14 -47 25 -72 29 -138 12 -205 -9 -34 -14
-64 -11 -67 15 -16 108 76 141 139 18 37 44 140 44 182 0 4 -13 7 -30 7 -27 0
-30 -3 -30 -33 0 -35 -26 -125 -41 -141 -5 -6 -9 4 -9 24 0 18 -7 60 -16 92
-15 53 -19 58 -45 58 -16 0 -29 -4 -29 -9z"/>
<path d="M6511 12069 c-22 -73 -110 -233 -181 -329 l-70 -95 55 58 c95 100
183 236 238 370 16 36 16 37 -7 37 -18 0 -25 -8 -35 -41z"/>
<path d="M7100 12093 c-78 -136 -208 -345 -245 -394 -26 -35 -80 -97 -119
-138 -53 -56 -61 -66 -30 -43 73 56 198 196 271 303 65 97 173 274 173 284 0
13 -41 3 -50 -12z"/>
<path d="M7337 12103 c-3 -5 -21 -63 -41 -130 -63 -213 -122 -357 -156 -378
-6 -4 -1 8 10 27 38 62 70 183 70 267 0 66 -19 164 -37 195 -3 4 -28 -34 -55
-85 -144 -274 -344 -495 -558 -617 -66 -38 -61 -40 25 -7 185 69 396 287 540
557 41 77 44 80 51 54 9 -37 -3 -163 -22 -228 -37 -124 -111 -231 -217 -314
-38 -30 -62 -54 -54 -54 8 0 57 21 108 47 80 39 109 61 189 142 105 106 158
195 220 366 18 50 41 107 52 128 l18 37 -69 0 c-38 0 -72 -3 -74 -7z"/>
<path d="M7472 12018 c-22 -51 -54 -133 -72 -183 -58 -159 -102 -228 -195
-304 -24 -19 -42 -37 -40 -39 7 -7 111 36 213 87 123 62 255 150 352 236 144
128 280 218 407 271 l58 24 -129 0 -128 0 -87 -49 c-102 -57 -207 -111 -218
-111 -4 0 16 16 44 35 45 30 83 70 107 113 6 9 -24 12 -132 12 l-140 0 -40
-92z"/>
<path d="M8238 12076 c-111 -42 -229 -113 -327 -196 l-76 -65 97 -6 c205 -14
344 -66 438 -165 60 -64 60 -83 0 -31 -157 134 -414 163 -652 74 -123 -47
-123 -46 -27 -74 186 -53 349 -164 405 -276 14 -27 24 -51 21 -53 -2 -2 -19
17 -38 42 -93 126 -258 218 -414 230 -117 10 -368 -48 -595 -139 -63 -25 -143
-54 -177 -64 -35 -10 -63 -20 -63 -23 0 -3 53 -20 118 -38 207 -59 450 -163
598 -258 139 -89 268 -214 315 -307 23 -44 20 -60 -4 -23 -23 34 -168 154
-252 208 -175 113 -440 214 -630 241 -39 6 -40 5 -16 -11 163 -112 328 -263
391 -357 72 -105 100 -232 70 -311 -10 -26 -12 -27 -76 -20 -36 4 -94 17 -129
30 -143 52 -224 120 -435 365 -196 227 -329 331 -494 386 -91 30 -114 27 -30
-4 116 -44 249 -137 355 -247 30 -33 107 -129 171 -214 64 -86 146 -184 182
-218 115 -107 243 -155 399 -150 l82 3 23 45 c24 49 31 155 11 192 -17 32 -6
31 55 -6 31 -19 80 -40 107 -46 69 -17 183 -8 242 18 44 20 47 23 47 59 0 21
-7 65 -15 96 -48 183 -171 301 -441 420 -71 32 -142 69 -159 82 -23 20 -10 16
60 -18 193 -95 395 -133 555 -104 88 15 182 47 216 71 29 22 28 165 -3 224
-13 23 -22 42 -20 42 1 0 29 -11 62 -25 100 -41 202 -30 280 29 32 25 35 31
35 78 0 59 -29 128 -66 157 -27 21 -22 31 15 31 40 0 124 54 168 107 21 26 59
80 82 118 24 39 57 85 74 103 l31 32 -240 0 -239 -1 -87 -33z"/>
<path d="M950 11026 c0 -16 11 -41 26 -59 95 -113 153 -349 140 -572 l-6 -110
19 29 c29 44 70 66 121 66 136 -1 169 -128 73 -282 -13 -21 -23 -40 -23 -42 0
-2 29 15 65 40 66 43 173 84 224 84 l27 0 -4 -117 c-2 -65 -8 -130 -14 -146
-13 -33 -69 -84 -117 -105 l-36 -16 79 -8 c87 -8 168 -31 186 -54 11 -12 6
-14 -27 -14 -50 0 -142 -24 -195 -51 -41 -21 -152 -118 -144 -126 2 -3 34 5
71 16 37 12 90 21 119 21 61 0 131 -30 141 -60 13 -40 -7 -48 -143 -52 -117
-3 -132 -5 -192 -34 -71 -33 -143 -90 -134 -105 3 -5 16 -9 29 -9 25 0 85 -44
85 -64 0 -6 -24 -20 -52 -30 -138 -48 -260 -174 -299 -308 -12 -44 -3 -33 37
42 70 134 189 225 311 237 l55 6 -5 40 c-6 41 -49 97 -75 97 -12 0 -11 5 4 21
48 54 151 79 291 71 78 -4 83 -3 109 23 34 34 28 78 -18 117 -39 34 -79 42
-169 36 -38 -3 -69 -4 -69 -2 0 2 18 13 40 24 57 29 154 50 238 50 41 0 72 4
72 10 0 6 -17 27 -39 49 -36 36 -88 61 -155 76 -29 6 -29 6 -7 21 42 30 55 72
62 209 3 72 10 139 14 149 8 18 4 19 -77 14 -63 -4 -101 -13 -143 -32 -32 -14
-59 -26 -61 -26 -2 0 4 16 12 35 61 146 -79 287 -216 217 l-35 -17 -1 130 c-1
98 -7 149 -23 210 -25 92 -97 244 -140 295 l-30 35 -1 -29z"/>
<path d="M9790 10983 c-92 -140 -140 -307 -140 -488 0 -58 -2 -105 -4 -105 -2
0 -17 7 -32 15 -72 37 -166 8 -208 -65 -25 -41 -26 -122 -3 -166 l15 -30 -58
29 c-46 23 -77 30 -146 35 l-87 5 7 -24 c4 -13 9 -76 12 -139 7 -146 8 -153
44 -194 l31 -34 -23 -7 c-81 -21 -107 -34 -145 -71 -24 -22 -43 -45 -43 -51 0
-6 41 -12 98 -16 97 -5 202 -33 230 -61 11 -11 2 -12 -61 -8 -89 5 -137 -8
-172 -49 -31 -38 -32 -79 -2 -107 21 -20 33 -22 143 -21 126 1 176 -10 235
-51 35 -26 36 -34 4 -48 -27 -13 -52 -55 -57 -97 -3 -28 -1 -30 52 -37 125
-18 250 -114 314 -241 33 -66 43 -70 21 -8 -20 58 -80 145 -129 187 -40 36
-168 104 -193 104 -7 0 -13 9 -13 20 0 23 53 60 88 60 36 0 26 26 -27 64 -91
67 -131 79 -281 85 l-135 6 0 29 c0 20 9 35 28 50 24 18 42 21 115 20 54 -1
104 -7 131 -18 24 -9 47 -14 49 -11 3 3 -14 26 -39 51 -68 69 -170 111 -309
127 l-25 2 28 19 c36 24 127 46 197 46 l55 0 -54 30 c-72 40 -81 48 -102 95
-14 31 -19 65 -19 154 l0 114 51 -7 c68 -9 142 -39 210 -86 l56 -38 -39 76
c-36 70 -40 83 -36 136 4 52 9 63 38 89 30 27 37 29 93 25 56 -4 63 -8 97 -45
l36 -41 -4 141 c-6 217 32 375 123 510 41 62 57 107 37 107 -4 0 -28 -30 -52
-67z"/>
<path d="M4800 10850 c-165 -44 -325 -141 -550 -335 -155 -134 -221 -180 -304
-213 -70 -28 -162 -39 -205 -24 -17 6 -31 8 -31 5 0 -13 71 -100 99 -121 71
-52 174 -66 280 -37 72 19 54 4 -44 -36 -135 -55 -193 -97 -226 -161 -25 -49
-24 -73 6 -124 29 -50 83 -86 140 -94 l40 -5 -49 -25 c-86 -44 -152 -136 -179
-251 -6 -23 -1 -30 33 -53 93 -62 200 -76 294 -40 10 4 -9 -26 -43 -67 -66
-78 -140 -218 -160 -301 -6 -26 -11 -83 -11 -126 0 -68 4 -88 28 -133 35 -67
88 -105 165 -120 156 -28 267 78 316 303 l18 83 13 -45 c23 -83 81 -183 139
-240 31 -30 137 -109 235 -175 264 -176 336 -250 336 -345 0 -101 -131 -136
-261 -70 -22 12 -69 41 -105 65 -100 69 -160 80 -234 43 -58 -29 -94 -94 -85
-151 12 -81 75 -163 174 -227 80 -51 149 -70 251 -70 186 0 323 80 393 229 26
55 31 77 31 140 0 99 -32 171 -107 244 l-53 52 56 0 c98 0 154 58 147 153 -7
98 -35 124 -342 317 -118 74 -214 171 -254 255 -32 67 -48 170 -33 209 8 22
10 20 26 -30 63 -194 222 -341 383 -356 137 -12 223 61 223 190 0 84 -35 141
-166 270 -115 113 -146 158 -158 232 l-6 40 19 -48 c34 -83 90 -141 158 -161
20 -7 21 -5 16 52 -3 32 -1 81 5 109 13 57 52 166 58 160 2 -2 -1 -41 -7 -88
-18 -143 16 -317 85 -432 17 -29 38 -52 46 -52 22 0 98 159 116 245 12 54 15
109 11 198 -2 70 0 118 5 110 25 -39 48 -146 48 -224 0 -46 2 -84 5 -84 3 0
22 9 43 19 49 26 96 76 122 131 l21 45 -6 -40 c-11 -65 -32 -94 -155 -215
-134 -132 -165 -183 -164 -270 0 -71 26 -125 77 -158 36 -24 50 -27 121 -26
68 0 91 5 141 29 113 54 223 187 265 320 23 75 32 65 28 -30 -9 -186 -97 -291
-393 -468 -184 -109 -237 -168 -237 -257 0 -95 53 -144 154 -144 l56 1 -52
-48 c-30 -27 -64 -72 -81 -106 -25 -50 -29 -70 -30 -143 0 -96 20 -152 80
-225 128 -156 405 -193 587 -79 147 93 212 225 159 324 -20 38 -88 80 -131 80
-50 0 -117 -27 -183 -74 -135 -97 -257 -117 -323 -55 -55 51 -34 140 53 227
26 26 131 103 233 172 267 179 337 252 385 401 21 68 35 74 35 16 0 -12 13
-58 28 -103 55 -158 131 -228 246 -227 142 0 233 88 244 234 10 148 -61 325
-186 461 -33 35 -48 58 -37 54 80 -31 180 -24 263 18 65 33 76 48 67 93 -17
90 -93 191 -177 234 -24 12 -38 23 -33 25 6 1 27 5 48 9 47 8 107 60 132 115
17 39 17 41 0 80 -28 62 -82 110 -165 147 -41 19 -96 43 -122 55 -60 27 -57
32 7 13 75 -23 170 -19 230 9 43 20 145 114 145 135 0 3 -39 6 -87 6 -78 0
-96 4 -155 32 -91 43 -163 94 -297 212 -280 246 -461 337 -687 348 -133 7
-211 -5 -353 -53 l-104 -36 -126 43 c-119 40 -133 42 -261 46 -112 3 -148 0
-210 -17z m340 -81 c36 -5 108 -24 161 -42 l96 -32 94 32 c192 64 354 69 518
14 161 -54 270 -120 491 -295 213 -169 325 -225 452 -227 l63 -1 -40 -19 c-56
-26 -163 -25 -251 2 -86 27 -211 89 -380 189 -239 143 -373 200 -509 219 -99
14 -106 2 -16 -29 130 -45 206 -102 484 -362 80 -75 176 -159 214 -188 117
-88 287 -160 380 -160 110 0 -96 -56 -245 -66 -152 -11 -347 28 -486 98 -32
16 -60 27 -62 25 -9 -8 126 -155 193 -210 160 -131 388 -233 588 -263 39 -5
44 -9 30 -17 -25 -13 -243 -2 -332 18 -40 9 -119 32 -175 51 -57 20 -112 38
-123 41 -11 4 14 -21 55 -54 208 -166 335 -397 354 -648 7 -88 7 -88 -48 55
-63 168 -184 325 -316 413 -64 43 -69 37 -41 -46 32 -93 46 -213 33 -287 -29
-164 -120 -272 -372 -440 -298 -200 -394 -338 -331 -477 37 -80 175 -153 291
-153 78 0 161 31 242 90 37 27 68 46 68 41 0 -20 -103 -121 -143 -140 -138
-67 -304 -43 -421 60 -92 81 -116 197 -60 298 41 76 115 145 309 290 246 184
333 284 370 426 19 75 19 145 0 218 -17 66 -43 132 -50 126 -2 -3 -11 -40 -20
-84 -23 -112 -69 -224 -125 -308 -90 -135 -246 -262 -397 -326 -111 -47 -124
-45 -29 4 264 136 441 330 492 541 11 45 17 108 17 179 -2 312 -172 611 -424
745 -81 43 -91 37 -23 -13 87 -64 170 -161 212 -247 30 -62 37 -89 40 -156 5
-98 -12 -164 -71 -279 -47 -89 -152 -204 -225 -243 -38 -21 -34 -15 46 65 75
74 96 103 136 183 72 149 79 268 21 387 -46 92 -157 197 -272 257 l-32 16 39
-76 c59 -116 76 -233 46 -329 l-12 -40 -12 74 c-16 93 -66 192 -128 252 l-46
44 6 -50 c4 -27 9 -113 12 -190 7 -152 -6 -236 -46 -315 -23 -46 -33 -49 -55
-17 -61 87 -78 312 -39 537 l6 35 -50 -49 c-78 -75 -131 -191 -132 -286 -1
-29 -2 -32 -11 -17 -19 33 -28 125 -18 189 5 35 27 100 49 147 45 92 44 93
-48 38 -112 -67 -218 -198 -242 -298 -41 -172 65 -407 250 -553 l35 -28 -53
28 c-71 37 -178 152 -223 239 -90 174 -98 295 -27 444 32 68 146 196 218 246
61 42 40 42 -42 -1 -53 -28 -98 -63 -163 -129 -103 -103 -158 -192 -204 -330
-95 -286 -56 -535 116 -740 69 -82 198 -183 320 -248 102 -56 76 -53 -44 4
-161 77 -307 210 -389 355 -42 75 -70 153 -93 264 l-18 85 -28 -59 c-40 -84
-46 -215 -17 -313 42 -138 139 -243 397 -429 231 -166 313 -274 302 -392 -6
-70 -25 -110 -77 -162 -48 -48 -100 -75 -182 -96 -154 -40 -318 30 -388 166
-10 19 -3 15 35 -18 27 -23 78 -57 114 -75 59 -29 74 -32 156 -32 78 0 98 4
152 29 108 49 173 142 158 224 -21 114 -113 212 -349 371 -250 170 -335 266
-367 419 -19 93 2 258 47 376 12 33 -69 -19 -153 -98 -114 -106 -194 -238
-254 -416 l-19 -55 5 85 c4 94 40 232 81 313 62 122 178 260 304 361 19 15 28
25 20 22 -235 -82 -391 -116 -529 -115 -120 1 -140 12 -49 27 90 16 255 70
340 113 120 60 223 136 321 239 53 55 97 105 97 110 0 5 -33 -6 -73 -25 -153
-73 -382 -110 -537 -86 -158 24 -270 61 -186 61 88 0 230 55 354 137 59 40 96
72 312 273 217 202 302 262 427 305 80 27 69 39 -24 25 -141 -22 -271 -79
-527 -229 -266 -157 -375 -201 -501 -201 -49 0 -89 6 -113 17 l-37 17 75 6
c129 12 242 68 407 203 368 299 599 391 873 346z"/>
<path d="M2503 9526 c-102 -58 -153 -117 -175 -201 -14 -51 -20 -55 -36 -20
-10 22 -77 65 -100 65 -5 0 -12 -18 -15 -40 -3 -23 -20 -60 -40 -87 -58 -81
-67 -105 -67 -189 l0 -77 -22 20 c-30 27 -62 43 -87 43 -17 0 -21 -6 -21 -31
0 -42 -21 -83 -76 -149 -61 -73 -82 -118 -90 -184 -7 -54 -7 -55 -29 -40 -22
14 -24 14 -33 -18 -46 -147 -6 -396 100 -621 28 -59 52 -106 54 -104 2 1 -13
45 -33 97 -43 116 -80 278 -87 385 -4 66 -4 74 5 45 39 -128 76 -227 101 -271
31 -54 47 -62 27 -13 -7 16 -12 74 -12 129 0 84 6 125 41 260 33 132 92 404
92 433 0 4 5 0 10 -8 16 -24 11 -111 -11 -216 -11 -55 -22 -148 -25 -209 l-4
-110 14 81 c20 122 50 211 136 406 92 207 110 261 110 337 1 46 3 52 12 37 7
-12 9 -53 5 -110 -4 -76 -15 -121 -65 -276 -62 -189 -112 -369 -112 -405 0
-11 24 25 53 80 29 55 107 195 174 310 154 268 171 302 193 388 l18 71 7 -41
c8 -48 -8 -135 -36 -200 -15 -35 -198 -350 -341 -586 -25 -43 -15 -35 79 61
118 119 190 173 316 232 117 56 159 61 56 7 -348 -180 -532 -449 -564 -822 -3
-38 -2 -90 4 -115 5 -25 9 -35 10 -23 1 12 10 47 22 78 25 67 89 140 210 236
49 39 107 92 128 117 22 25 42 44 45 41 3 -3 -7 -32 -23 -65 -28 -59 -80 -117
-212 -239 -36 -33 -77 -80 -92 -105 -34 -60 -57 -150 -56 -225 l1 -60 13 60
c29 135 85 217 247 361 65 58 131 124 146 146 25 38 27 50 27 137 l0 96 -48 3
c-67 4 -145 -21 -195 -63 -53 -46 -56 -30 -3 18 54 48 110 80 221 123 237 91
281 136 310 313 l12 75 -26 23 c-33 28 -100 47 -142 40 l-32 -5 24 41 c36 63
32 127 -16 266 -40 118 -53 208 -37 264 9 34 -4 35 -60 3z"/>
<path d="M8235 9457 c-1 -81 -6 -105 -40 -202 -46 -131 -51 -201 -17 -260 12
-20 22 -37 22 -39 0 -1 -16 0 -36 2 -42 5 -113 -20 -142 -51 l-21 -22 19 -89
c36 -162 72 -198 292 -284 69 -28 139 -58 155 -68 54 -34 103 -76 115 -97 9
-18 6 -17 -22 6 -58 49 -110 70 -187 75 l-73 5 0 -91 c0 -50 5 -103 10 -119 6
-15 84 -100 174 -188 175 -171 215 -229 235 -338 12 -66 21 -70 21 -11 0 60
-22 149 -51 207 -12 24 -77 97 -154 172 -102 99 -140 143 -159 185 -38 82 -32
88 26 25 29 -32 96 -93 149 -136 53 -43 110 -95 126 -116 37 -46 73 -116 73
-140 0 -10 5 -25 11 -33 7 -11 9 24 6 120 -7 195 -54 342 -156 493 -91 135
-226 251 -396 339 -103 54 -98 62 11 17 142 -59 305 -181 400 -298 27 -33 50
-59 52 -57 1 2 -76 137 -173 300 -96 163 -185 320 -196 348 -25 63 -36 177
-21 204 10 17 11 17 12 -7 0 -66 48 -170 193 -425 85 -148 173 -303 195 -344
23 -41 42 -70 42 -63 0 25 -63 255 -114 412 -60 184 -76 252 -75 314 1 76 15
87 22 19 7 -68 39 -156 141 -387 60 -137 73 -180 114 -375 l10 -45 1 60 c1 57
-7 116 -44 319 -15 83 -13 166 4 166 4 0 13 -34 19 -76 7 -42 36 -171 64 -288
46 -185 52 -224 53 -316 0 -58 -3 -123 -8 -145 l-7 -40 25 40 c31 50 82 179
97 248 15 69 27 80 21 20 -14 -164 -46 -295 -117 -488 -23 -61 41 59 74 138
61 149 90 281 90 406 0 110 -13 181 -32 181 -6 0 -20 -7 -30 -17 -17 -15 -18
-14 -18 38 0 67 -22 115 -88 197 -54 67 -88 141 -78 168 10 26 -61 11 -94 -21
-14 -14 -28 -25 -31 -25 -2 0 -4 38 -4 83 l0 83 -52 78 c-29 42 -55 92 -59
112 -5 30 -9 34 -28 28 -35 -10 -66 -34 -84 -63 l-18 -29 -16 57 c-20 67 -75
134 -145 179 -88 55 -88 55 -88 -51z"/>
<path d="M1359 9115 c-100 -52 -150 -142 -157 -283 l-4 -93 -22 20 c-37 35
-79 44 -119 27 -77 -32 -93 -124 -43 -246 34 -84 84 -150 238 -313 121 -128
228 -258 228 -277 0 -5 -26 9 -57 31 -75 52 -164 79 -263 79 -44 0 -82 -4 -85
-10 -21 -34 59 -179 127 -230 l48 -35 -47 -22 c-51 -25 -95 -62 -90 -76 1 -5
46 -24 100 -42 189 -64 359 -164 416 -244 l22 -30 -59 30 c-45 24 -81 33 -160
42 -128 14 -132 11 -103 -73 24 -73 66 -141 115 -189 20 -19 36 -39 36 -43 0
-4 -15 -8 -33 -8 -19 0 -37 -3 -40 -6 -3 -4 18 -34 47 -68 168 -194 211 -353
140 -513 l-17 -38 -8 65 c-9 82 -36 149 -105 266 -69 115 -111 221 -125 318
-9 62 -14 74 -28 69 -25 -10 -64 -42 -82 -69 -16 -25 -16 -24 -28 45 -16 101
-46 172 -94 227 -42 48 -120 104 -144 104 -24 0 -14 -39 15 -54 34 -17 105
-92 125 -132 31 -60 48 -131 58 -233 18 -204 39 -255 52 -134 6 57 37 136 65
166 15 17 17 15 28 -53 9 -54 34 -116 103 -258 49 -103 95 -205 100 -227 15
-57 13 -134 -4 -191 -8 -27 -15 -50 -15 -52 0 -8 48 25 85 59 150 138 134 415
-34 600 -45 50 -50 60 -31 54 52 -16 123 -58 164 -95 24 -22 45 -37 48 -35 9
9 -10 93 -31 132 -48 94 -113 165 -261 282 -23 19 -24 20 -5 21 65 1 190 -49
259 -103 l39 -31 -7 44 c-9 58 -38 122 -77 171 -57 73 -199 160 -339 209 -78
28 -95 40 -53 40 119 0 265 -66 378 -172 88 -82 95 -68 19 39 -52 73 -145 145
-269 210 -154 79 -208 126 -230 201 -6 21 -3 22 42 22 98 -1 229 -76 362 -209
l84 -84 -6 53 c-13 105 -114 274 -280 465 -100 115 -163 207 -214 312 -50 102
-54 147 -6 62 17 -30 49 -79 72 -109 42 -57 202 -223 208 -217 2 2 -17 34 -41
71 -70 106 -98 192 -104 318 -3 81 0 124 13 177 9 39 20 73 24 75 3 2 6 -44 7
-102 0 -93 5 -119 32 -199 35 -103 84 -204 145 -303 46 -72 118 -172 123 -168
1 2 -6 39 -17 83 -27 112 -35 246 -18 320 l13 60 7 -100 c20 -269 102 -516
262 -783 89 -147 119 -210 160 -332 92 -271 70 -527 -67 -797 -136 -267 -466
-577 -878 -824 -32 -19 -58 -38 -58 -43 0 -13 119 0 236 25 132 28 256 30 311
5 48 -21 47 -36 -1 -36 -51 0 -186 -42 -242 -75 l-49 -30 140 -6 c165 -8 249
-26 346 -74 68 -35 200 -148 187 -160 -3 -4 -28 9 -55 28 -226 161 -531 196
-862 97 -69 -20 -71 -22 -71 -54 l0 -33 88 33 c130 49 293 70 423 55 183 -20
370 -101 506 -217 30 -25 57 -44 60 -40 9 9 -15 105 -39 154 -32 67 -119 146
-209 189 -78 38 -78 38 -79 77 0 55 -33 102 -94 133 -45 23 -62 26 -146 26
-80 -1 -203 -19 -268 -39 -9 -3 16 13 57 36 186 104 309 199 456 352 124 129
218 260 289 403 102 206 130 330 123 543 -6 218 -36 311 -178 567 -103 186
-205 397 -233 485 -36 108 -46 178 -46 311 0 65 -4 129 -9 142 -14 35 -51 67
-79 67 -59 0 -88 -49 -79 -133 l6 -52 -30 35 c-83 95 -116 231 -88 359 15 72
54 111 109 111 36 0 48 -6 81 -39 22 -21 39 -48 39 -59 0 -43 18 -30 25 17 12
85 -21 153 -92 190 -38 20 -133 13 -184 -14z"/>
<path d="M9255 9131 c-28 -12 -76 -61 -86 -89 -10 -27 -12 -113 -3 -137 5 -11
13 -2 29 34 52 110 173 108 215 -4 16 -43 14 -192 -3 -241 -24 -67 -53 -117
-86 -148 l-30 -29 10 38 c28 100 -47 180 -119 129 -37 -26 -44 -60 -47 -219
-4 -205 -26 -278 -161 -548 -36 -70 -94 -180 -129 -243 -75 -135 -129 -265
-153 -367 -25 -110 -22 -337 5 -447 71 -285 271 -593 523 -804 105 -88 239
-180 328 -225 34 -17 62 -33 62 -35 0 -1 -37 6 -82 16 -113 26 -269 27 -325 4
-65 -28 -103 -76 -103 -134 l-1 -47 -77 -35 c-136 -62 -235 -182 -249 -303
l-6 -51 29 22 c116 90 160 119 239 157 128 63 241 88 390 88 136 0 244 -20
347 -63 37 -15 69 -25 73 -22 12 13 3 52 -14 62 -42 22 -211 60 -313 71 -224
24 -452 -34 -620 -158 -27 -19 -48 -33 -48 -30 0 14 68 87 113 121 109 82 224
116 422 125 l140 6 -42 27 c-52 34 -144 66 -217 74 -31 4 -59 11 -62 16 -8 13
57 37 119 44 38 5 91 -1 188 -20 268 -51 322 -48 217 13 -182 106 -421 285
-566 425 -215 207 -340 404 -404 636 -20 74 -23 107 -22 250 0 150 3 173 27
254 41 132 79 216 167 366 148 253 203 390 250 620 11 53 23 136 26 185 8 95
17 92 28 -11 8 -64 -6 -191 -30 -288 -8 -32 -13 -60 -11 -63 8 -8 145 202 191
294 74 149 98 231 105 363 l6 115 18 -50 c25 -68 33 -199 18 -277 -17 -84 -63
-194 -111 -262 -22 -31 -36 -56 -31 -56 4 0 46 39 92 88 88 91 165 191 195
255 20 41 35 50 27 15 -21 -89 -124 -252 -263 -413 -156 -182 -253 -341 -269
-444 -4 -28 -6 -53 -4 -55 3 -3 32 24 65 60 118 126 258 212 360 222 50 4 58
2 58 -12 0 -54 -84 -137 -185 -185 -166 -78 -298 -189 -352 -295 l-26 -51 60
56 c69 63 152 121 215 148 80 34 208 53 208 31 0 -5 -7 -10 -15 -10 -8 0 -49
-14 -92 -31 -183 -72 -321 -184 -361 -292 -12 -32 -22 -71 -22 -88 l0 -30 43
34 c55 45 89 62 166 82 102 26 112 17 40 -35 -132 -96 -238 -242 -255 -350
l-7 -45 29 26 c60 54 204 134 204 113 0 -3 -23 -31 -51 -61 -87 -96 -129 -202
-129 -329 0 -128 50 -236 137 -293 26 -17 48 -29 50 -28 2 2 -4 20 -12 40 -21
51 -19 171 4 238 10 30 50 117 89 194 82 164 102 219 102 280 0 25 3 45 8 45
10 0 48 -58 67 -103 8 -20 18 -64 22 -97 3 -33 9 -57 13 -55 10 6 27 109 35
205 15 179 79 311 176 360 25 14 39 27 39 40 0 25 -11 25 -61 -1 -112 -57
-199 -211 -199 -352 l0 -32 -31 38 c-25 31 -75 67 -92 67 -2 0 -7 -31 -10 -68
-7 -86 -50 -199 -121 -320 -66 -110 -101 -198 -112 -272 l-7 -55 -21 45 c-16
35 -21 65 -21 136 0 88 1 94 47 185 31 63 68 117 112 165 36 39 62 74 59 78
-4 3 -21 6 -40 6 -18 0 -33 3 -33 6 0 3 20 28 45 56 52 58 104 159 112 217 l6
41 -44 0 c-79 0 -173 -20 -231 -49 -32 -15 -58 -24 -58 -20 0 3 29 33 64 66
89 84 261 169 464 229 24 7 -17 52 -73 79 l-52 26 67 67 c67 67 100 130 100
190 l0 24 -102 -4 c-115 -5 -177 -26 -256 -86 -24 -18 -46 -32 -48 -30 -12 12
94 142 247 304 181 191 237 281 246 398 7 78 -13 121 -64 143 -43 18 -79 10
-114 -23 l-26 -25 -6 83 c-7 105 -19 144 -61 205 -48 71 -112 107 -195 110
-36 2 -75 -1 -86 -6z"/>
<path d="M3031 8409 c-29 -28 -80 -68 -113 -91 -109 -73 -182 -170 -203 -268
l-8 -35 -14 40 c-16 48 -57 93 -100 111 -56 24 -69 19 -88 -33 -28 -82 -30
-219 -5 -391 24 -165 20 -248 -14 -322 -9 -19 -13 -26 -10 -15 13 39 16 168 5
206 -23 76 -103 138 -179 139 -48 0 -106 -34 -133 -77 -21 -33 -24 -51 -24
-128 0 -49 6 -154 13 -232 35 -366 -73 -729 -305 -1028 l-54 -70 61 65 c166
175 262 364 313 614 20 99 22 134 18 326 -1 118 -4 257 -5 308 l-1 94 37 34
c32 29 45 34 84 34 42 0 51 -4 85 -40 84 -89 70 -248 -32 -365 -18 -20 -29
-38 -26 -41 13 -13 89 9 127 37 81 59 130 155 157 309 23 130 10 341 -32 494
-12 42 33 -22 53 -77 41 -108 50 -262 26 -442 -17 -126 75 152 121 366 46 215
65 253 165 329 43 33 88 71 99 86 12 15 21 23 21 18 0 -19 -47 -75 -117 -139
-88 -80 -95 -99 -153 -364 -41 -192 -72 -293 -106 -348 l-18 -28 32 29 c49 46
122 156 207 316 139 260 230 379 358 461 82 53 93 49 18 -7 -33 -25 -81 -69
-107 -97 -59 -67 -164 -228 -234 -359 -71 -133 -153 -257 -226 -344 -46 -54
-52 -65 -29 -50 117 74 222 179 364 365 105 138 168 204 221 231 21 11 109 40
196 65 88 25 170 53 184 62 24 16 24 16 11 -1 -22 -27 -114 -69 -238 -110 -62
-21 -131 -50 -154 -65 -23 -16 -112 -107 -198 -204 -86 -96 -190 -213 -231
-259 -97 -108 -49 -66 185 163 211 206 269 245 402 269 94 17 155 3 300 -71
65 -32 132 -62 150 -65 54 -10 51 -26 -3 -19 -96 12 -145 25 -236 62 -159 63
-249 49 -402 -61 -76 -56 -178 -150 -151 -140 11 3 38 13 60 22 55 20 173 27
210 12 l30 -13 -62 -13 c-82 -17 -155 -53 -234 -113 -70 -54 -146 -128 -138
-136 3 -2 33 0 66 6 77 14 161 -2 203 -38 17 -13 30 -28 30 -31 0 -4 -28 -22
-63 -39 -111 -58 -254 -198 -376 -368 -58 -80 -96 -142 -231 -375 -110 -188
-207 -326 -290 -412 -41 -43 -72 -78 -68 -78 3 0 43 35 88 77 109 102 211 241
350 474 173 291 284 434 420 542 75 60 179 117 213 117 27 0 30 24 9 67 -35
67 -104 113 -172 113 -40 0 -38 12 12 55 74 63 183 104 276 105 23 0 42 3 42
6 0 3 -9 19 -20 34 -27 37 -96 70 -151 71 l-44 1 35 10 c49 14 124 -3 234 -54
154 -71 210 -66 366 32 36 23 78 44 93 47 25 5 26 7 13 22 -8 9 -31 50 -52 91
-20 41 -46 88 -57 104 -30 43 -104 86 -148 86 l-36 0 23 47 c35 69 32 101 -11
119 -19 7 -59 14 -90 14 -46 0 -71 -8 -144 -45 -49 -25 -99 -45 -112 -45 -22
0 -22 1 8 20 46 27 83 88 90 147 5 47 4 50 -18 56 -13 4 -49 7 -79 7 -72 0
-135 -31 -225 -110 -38 -34 -79 -66 -90 -72 -19 -10 -19 -9 1 13 42 47 57 89
51 145 -9 87 -15 89 -76 33z"/>
<path d="M7702 8435 c-15 -33 -15 -120 -1 -148 6 -12 25 -37 43 -56 49 -53 1
-22 -96 61 -46 39 -101 79 -123 89 -44 20 -138 25 -180 9 -24 -9 -25 -13 -19
-47 10 -55 38 -106 79 -141 53 -47 17 -42 -91 13 -97 50 -162 58 -229 31 -32
-14 -35 -19 -35 -54 0 -25 9 -52 25 -76 l24 -36 -35 0 c-81 0 -152 -63 -210
-185 -19 -40 -41 -79 -49 -85 -22 -18 -18 -28 15 -35 16 -3 56 -24 90 -46 113
-73 136 -81 209 -77 51 3 86 13 154 46 101 47 187 67 232 53 29 -9 28 -9 -15
-10 -54 -2 -113 -33 -148 -78 l-25 -33 45 0 c98 0 218 -48 293 -118 l40 -37
-53 -6 c-72 -9 -123 -45 -155 -110 -28 -55 -27 -69 3 -69 31 0 110 -38 174
-84 128 -91 263 -249 386 -451 232 -381 286 -459 395 -569 98 -100 140 -121
49 -24 -95 99 -184 228 -320 464 -150 261 -241 391 -363 518 -70 73 -199 170
-246 186 -40 13 -43 20 -17 42 53 47 151 64 257 45 l40 -7 -87 84 c-102 99
-210 160 -305 172 l-58 7 30 13 c48 21 142 16 220 -10 l70 -24 -62 58 c-72 68
-164 133 -231 163 -76 34 -167 29 -272 -15 -115 -48 -280 -82 -280 -59 0 6 10
11 23 11 12 0 89 32 170 72 144 69 151 72 225 72 95 0 187 -29 265 -83 30 -21
136 -120 236 -219 99 -100 190 -186 202 -193 12 -6 -48 65 -132 158 -85 93
-190 209 -233 257 -44 48 -95 98 -115 111 -20 13 -92 43 -161 65 -118 39 -179
68 -225 105 -15 12 -10 11 20 -3 22 -11 101 -37 175 -57 74 -21 154 -46 178
-56 61 -27 128 -94 246 -248 58 -75 137 -169 178 -210 66 -67 185 -161 203
-161 4 0 -17 26 -46 58 -66 72 -154 206 -254 387 -43 77 -99 172 -126 210 -55
79 -156 186 -212 223 -53 35 -38 39 20 6 65 -38 189 -163 246 -250 25 -39 80
-135 122 -214 42 -78 94 -170 117 -204 49 -71 110 -147 116 -142 2 2 -8 27
-23 55 -29 59 -61 174 -104 378 -42 197 -57 228 -153 315 -43 39 -86 85 -95
102 -14 28 -11 26 39 -19 30 -27 78 -70 108 -94 68 -57 90 -107 130 -293 39
-187 100 -391 121 -404 5 -3 6 15 1 43 -4 26 -7 111 -7 188 0 151 20 245 66
310 l21 30 -6 -35 c-36 -197 -38 -221 -33 -360 3 -121 9 -158 30 -225 33 -101
78 -170 135 -206 39 -24 117 -47 127 -37 2 2 -14 26 -36 53 -100 127 -105 288
-10 368 65 54 164 23 192 -60 9 -29 9 -66 -1 -178 -45 -496 56 -860 315 -1132
l55 -58 -68 92 c-85 116 -150 238 -196 372 -79 228 -100 427 -72 695 18 173
15 230 -18 278 -37 55 -71 73 -135 73 -46 0 -66 -6 -98 -27 -75 -49 -109 -168
-80 -276 8 -29 11 -50 6 -45 -16 16 -39 128 -39 188 0 33 7 101 15 150 20 123
20 312 -1 387 -19 67 -32 72 -104 36 -35 -18 -51 -35 -72 -77 -16 -32 -30 -48
-33 -40 -2 8 -11 33 -19 57 -29 82 -94 158 -191 223 -27 18 -75 57 -106 86
l-56 53 -11 -25z"/>
<path d="M3092 6977 c-47 -15 -119 -82 -146 -136 -13 -25 -54 -145 -91 -266
-68 -223 -115 -340 -153 -385 -15 -17 -11 -4 13 45 51 100 71 209 57 305 -6
41 -17 90 -25 109 l-15 35 -37 -74 c-146 -289 -337 -503 -579 -647 -38 -23
-39 -24 -11 -18 49 11 146 62 218 116 119 89 273 280 359 446 24 46 46 83 51
83 13 0 7 -154 -8 -215 -27 -105 -77 -197 -150 -273 -37 -40 -83 -82 -103 -94
-67 -41 -11 -31 82 15 192 95 312 245 411 512 20 55 53 131 73 169 42 81 123
173 169 193 54 22 59 15 12 -17 -88 -58 -158 -174 -246 -410 -76 -201 -103
-249 -191 -331 l-75 -70 66 25 c179 67 359 176 512 310 280 245 541 356 836
356 43 0 79 -4 79 -9 0 -4 -39 -11 -87 -14 -172 -12 -382 -83 -528 -179 -70
-47 -185 -144 -185 -156 0 -4 42 -8 93 -9 183 -5 336 -63 433 -165 31 -32 54
-61 51 -65 -3 -3 -27 13 -54 35 -175 146 -447 168 -698 58 -30 -14 -55 -27
-55 -29 0 -3 39 -17 87 -32 107 -33 211 -84 280 -137 53 -40 116 -123 128
-168 6 -22 3 -21 -21 10 -149 188 -350 273 -562 236 -135 -24 -326 -79 -478
-140 -77 -30 -156 -58 -177 -61 -20 -4 -39 -11 -42 -15 -2 -4 26 -15 63 -25
327 -87 650 -247 829 -410 56 -50 163 -193 163 -216 0 -5 -28 19 -62 54 -173
176 -430 315 -714 387 -180 45 -182 43 -46 -59 188 -141 308 -283 354 -415 20
-60 22 -104 6 -157 -11 -38 -13 -39 -56 -39 -59 0 -153 25 -221 60 -96 48
-173 113 -271 226 -290 336 -403 431 -586 494 -63 22 -110 27 -54 6 194 -72
346 -201 540 -461 178 -238 258 -309 404 -354 50 -15 95 -21 168 -21 l99 0 20
44 c28 63 33 123 16 179 -8 26 -13 47 -11 47 2 0 19 -11 39 -25 109 -73 261
-91 366 -43 l56 25 -8 69 c-26 214 -147 348 -433 476 -121 55 -196 94 -196
104 0 2 23 -7 52 -22 268 -136 542 -161 748 -68 67 30 72 39 72 131 0 48 -7
78 -25 114 -13 27 -22 49 -20 49 2 0 23 -10 46 -22 51 -26 168 -36 220 -19 19
7 54 26 77 42 l43 31 -7 55 c-7 64 -35 123 -71 151 l-25 20 37 7 c92 17 164
83 267 242 63 99 100 133 143 133 28 0 -29 44 -112 85 -157 79 -334 85 -539
17 -76 -24 -159 -64 -461 -221 -66 -34 -109 -54 -95 -44 86 63 107 84 132 132
30 58 38 144 17 198 -14 38 -57 83 -96 99 -37 16 -113 17 -161 1z"/>
<path d="M7532 6969 c-142 -71 -132 -276 20 -389 26 -19 45 -36 43 -38 -2 -3
-86 41 -187 96 -282 155 -429 209 -588 219 -67 3 -117 0 -170 -11 -80 -17
-197 -69 -245 -109 l-29 -24 31 -7 c40 -9 63 -34 153 -169 84 -125 143 -178
222 -199 l48 -12 -29 -30 c-39 -41 -61 -95 -61 -152 0 -53 8 -62 85 -99 68
-34 158 -34 238 -1 32 13 56 21 55 18 -34 -63 -42 -94 -43 -165 0 -72 2 -80
25 -97 48 -36 179 -72 283 -78 161 -8 313 26 480 109 43 22 81 39 85 39 20 0
-83 -57 -189 -104 -161 -72 -220 -109 -296 -182 -76 -74 -129 -178 -146 -283
-13 -84 -8 -92 66 -117 107 -36 239 -18 342 47 l47 30 -8 -28 c-16 -52 -11
-155 11 -198 l20 -40 89 -3 c112 -4 177 10 268 55 94 47 178 131 308 308 57
77 123 163 148 190 103 116 257 227 375 271 34 13 53 23 42 23 -38 1 -156 -47
-230 -94 -96 -60 -208 -165 -361 -342 -68 -77 -153 -168 -189 -201 -101 -93
-260 -162 -371 -162 -40 0 -43 2 -54 36 -20 60 -7 147 35 230 55 113 245 303
399 400 25 16 46 32 46 35 0 4 -42 -2 -92 -13 -304 -65 -572 -199 -767 -383
l-85 -80 29 55 c40 75 182 215 286 284 98 63 246 139 364 186 72 29 328 113
372 122 10 2 -16 14 -57 27 -41 13 -122 42 -180 66 -122 50 -366 119 -475 134
-190 27 -365 -43 -510 -202 -55 -61 -63 -67 -53 -39 19 49 77 122 133 165 66
50 192 111 284 136 41 11 76 22 78 25 8 7 -87 46 -174 71 -215 63 -407 33
-570 -89 -35 -25 -63 -42 -63 -36 0 5 24 34 54 65 96 98 248 153 436 158 50 1
90 5 90 9 0 10 -129 118 -185 153 -171 110 -404 185 -572 185 -38 0 -52 3 -47
11 9 16 215 6 309 -15 194 -42 391 -146 564 -297 177 -155 301 -236 479 -314
124 -55 149 -57 90 -9 -98 81 -142 152 -203 324 -80 226 -167 375 -257 440
-47 34 -36 39 21 10 84 -42 157 -159 245 -386 95 -248 214 -390 404 -485 106
-54 129 -50 53 7 -100 75 -174 178 -214 294 -22 64 -37 187 -30 238 l6 43 43
-80 c157 -295 406 -538 589 -576 24 -5 19 0 -23 23 -215 123 -435 368 -565
631 l-42 84 -19 -44 c-12 -28 -21 -76 -24 -135 -5 -104 9 -166 64 -278 23 -48
28 -63 14 -46 -42 51 -91 171 -155 385 -37 121 -76 238 -86 260 -65 138 -210
202 -327 144z"/>
<path d="M5362 5776 c-48 -66 -109 -200 -133 -291 -16 -60 -22 -112 -23 -207
0 -71 -2 -128 -2 -128 -1 0 -15 7 -30 15 -45 23 -125 19 -164 -7 -65 -45 -88
-135 -55 -214 8 -20 11 -34 7 -32 -87 46 -112 53 -196 56 -84 4 -88 3 -81 -14
4 -11 11 -80 15 -154 5 -74 9 -136 9 -137 1 -2 17 -20 36 -42 l35 -39 -37 -7
c-62 -11 -116 -39 -150 -79 -18 -20 -33 -40 -33 -44 0 -4 39 -9 88 -9 97 -2
205 -30 244 -64 l23 -20 -25 7 c-51 14 -157 8 -191 -12 -50 -29 -72 -66 -64
-103 10 -48 35 -56 175 -56 132 0 175 -12 239 -63 l24 -20 -32 -17 c-32 -16
-61 -65 -61 -104 0 -15 10 -20 51 -26 124 -17 249 -115 317 -247 18 -33 32
-52 32 -42 0 24 -50 122 -86 169 -36 47 -135 117 -199 140 -27 10 -54 22 -59
26 -18 16 24 58 70 72 l46 13 -41 37 c-22 20 -64 49 -93 64 -48 25 -66 28
-192 33 -118 4 -141 8 -150 23 -14 22 0 46 43 71 44 25 147 25 226 -2 33 -11
61 -19 63 -17 8 8 -75 88 -115 112 -59 34 -155 63 -210 63 -31 0 -43 4 -41 13
7 23 75 47 162 59 l86 11 -52 31 c-83 50 -98 80 -98 200 0 56 -3 112 -7 125
-6 24 -5 24 48 18 72 -7 160 -41 214 -83 25 -19 47 -34 50 -34 2 0 -11 29 -31
64 -62 113 -55 201 19 246 57 35 133 19 178 -38 l24 -31 1 167 c1 138 4 181
22 246 25 90 59 169 104 239 36 56 40 54 93 -32 53 -89 93 -221 104 -347 5
-60 8 -120 6 -134 -2 -14 -6 -54 -9 -89 l-4 -64 30 37 c76 93 186 88 230 -11
17 -39 18 -51 8 -92 -6 -25 -27 -74 -45 -108 l-34 -62 48 34 c71 51 155 86
219 92 l57 5 -5 -123 c-4 -100 -9 -130 -25 -157 -20 -33 -98 -91 -126 -93 -8
-1 26 -7 74 -15 140 -22 234 -74 135 -74 -54 0 -136 -22 -191 -50 -40 -21
-137 -106 -137 -122 0 -4 26 2 58 13 109 38 243 23 272 -30 13 -25 13 -27 -6
-45 -12 -13 -39 -16 -128 -16 -138 0 -194 -15 -275 -75 -60 -44 -75 -65 -46
-65 53 0 127 -73 87 -86 -145 -47 -241 -123 -298 -236 -25 -49 -47 -108 -39
-108 1 0 15 25 30 56 37 75 134 177 199 209 29 14 80 31 115 37 l62 12 -6 30
c-8 39 -35 78 -63 91 -31 14 -28 22 24 54 66 42 130 55 238 47 84 -6 94 -5
119 14 20 16 27 30 27 56 0 75 -101 124 -217 105 -29 -4 -53 -5 -53 -1 0 4 27
19 59 34 65 29 165 45 243 39 l50 -4 -19 32 c-26 46 -86 86 -149 100 l-55 12
24 26 c43 46 50 72 54 193 2 65 8 130 13 144 l10 26 -92 -4 c-75 -3 -103 -9
-145 -31 -29 -14 -53 -25 -53 -24 0 1 7 20 15 42 8 22 14 53 15 69 0 44 -38
115 -74 137 -38 23 -133 26 -162 4 -10 -8 -22 -15 -26 -15 -5 0 -8 53 -8 118
0 123 -19 227 -60 333 -21 54 -119 219 -131 219 -3 0 -20 -20 -37 -44z"/>
<path d="M1215 5446 c-69 -14 -155 -40 -227 -70 -35 -15 -38 -19 -38 -57 0
-29 4 -39 13 -35 6 2 53 18 102 35 339 112 591 36 1009 -303 180 -145 306
-208 424 -210 53 -1 60 -3 45 -14 -32 -23 -97 -34 -161 -28 -117 12 -233 64
-508 227 -245 145 -377 198 -509 205 l-80 4 65 -23 c150 -55 226 -109 458
-328 90 -84 196 -179 235 -211 85 -68 249 -153 327 -169 138 -28 135 -23 30
-48 -118 -29 -280 -38 -391 -22 -96 14 -245 61 -306 97 -23 13 -44 24 -48 24
-3 0 15 -28 42 -61 157 -201 440 -364 711 -411 39 -6 72 -16 72 -20 0 -18
-193 -13 -309 8 -69 13 -248 66 -336 100 -11 4 14 -20 55 -53 88 -71 120 -104
187 -193 99 -132 159 -295 168 -455 l5 -80 -29 82 c-61 170 -157 316 -270 410
-63 52 -119 88 -126 81 -2 -2 6 -30 17 -63 31 -91 44 -220 31 -302 -25 -160
-113 -264 -373 -440 -91 -62 -194 -140 -228 -174 -149 -149 -155 -295 -17
-387 74 -49 134 -65 228 -60 96 4 166 33 241 99 53 47 59 40 16 -19 -67 -92
-171 -138 -294 -129 -236 16 -385 206 -302 382 38 80 97 137 302 291 218 164
298 243 351 352 33 66 38 85 41 167 4 95 -11 173 -46 240 l-16 30 -18 -94
c-59 -295 -256 -527 -547 -645 -97 -39 -97 -31 -1 17 127 64 205 120 301 216
151 152 217 322 206 530 -7 135 -35 240 -96 366 -76 154 -181 268 -321 347
-80 46 -99 43 -35 -4 186 -138 285 -332 255 -499 -29 -160 -133 -323 -261
-408 -75 -50 -99 -54 -37 -6 107 81 212 245 238 371 30 142 -18 275 -139 386
-66 61 -177 136 -186 126 -3 -2 8 -29 24 -59 47 -87 64 -160 59 -258 -5 -118
-19 -135 -34 -42 -7 40 -24 97 -39 127 -27 55 -118 164 -129 153 -3 -3 -1 -34
6 -70 16 -92 15 -303 -1 -369 -7 -30 -26 -79 -42 -107 -22 -41 -29 -66 -29
-109 0 -51 1 -55 17 -43 27 23 81 146 99 225 12 54 15 109 13 203 -2 71 -1
127 2 125 4 -2 17 -36 30 -76 17 -53 24 -96 24 -155 0 -46 3 -83 7 -83 44 0
124 70 154 135 19 39 24 44 24 25 -1 -54 -40 -111 -149 -216 -130 -125 -171
-192 -171 -276 0 -76 32 -135 90 -166 39 -20 55 -23 120 -20 100 6 175 42 256
122 66 66 94 112 135 221 l27 70 7 -39 c10 -52 -8 -147 -41 -214 -50 -101
-141 -177 -414 -345 -129 -78 -180 -142 -180 -222 0 -91 50 -139 146 -140 l62
0 -63 -66 c-79 -85 -99 -136 -93 -252 2 -61 9 -95 28 -132 74 -153 278 -248
461 -217 188 32 349 176 349 311 0 105 -59 157 -172 149 -62 -4 -73 -8 -158
-66 -126 -85 -211 -109 -284 -78 -99 41 -85 160 31 266 31 28 133 102 228 165
94 62 195 135 225 162 69 62 121 143 150 234 l24 72 13 -67 c32 -157 89 -254
174 -299 47 -25 62 -28 114 -24 105 8 187 69 214 159 16 51 16 161 0 224 -27
112 -95 231 -183 322 -27 28 -48 52 -46 52 3 0 27 -7 54 -15 27 -8 63 -15 81
-15 47 0 124 26 177 59 l46 29 -9 44 c-22 99 -92 193 -175 236 l-39 20 30 7
c60 13 86 28 120 68 61 71 57 132 -15 206 -36 37 -74 58 -208 117 -34 15 -61
28 -60 29 2 2 32 -3 68 -11 73 -16 135 -11 196 16 48 21 112 76 136 118 l17
29 -74 -5 c-61 -4 -87 0 -136 18 -82 29 -161 77 -239 144 -318 274 -431 348
-619 407 -85 26 -259 34 -356 15z"/>
<path d="M9280 5444 c-181 -38 -335 -129 -580 -340 -159 -137 -198 -165 -288
-207 -60 -29 -76 -32 -159 -32 -51 0 -93 -3 -93 -7 0 -18 107 -120 148 -140
57 -27 172 -30 240 -4 81 29 32 -2 -68 -44 -145 -61 -203 -109 -231 -189 -21
-60 60 -160 147 -182 l45 -12 -49 -28 c-82 -46 -150 -142 -167 -231 -6 -32 -4
-38 27 -61 75 -57 177 -78 265 -54 l52 14 -44 -49 c-243 -270 -259 -625 -31
-693 173 -52 292 46 349 284 l21 87 26 -76 c29 -84 72 -153 132 -211 22 -21
128 -98 236 -171 107 -73 217 -153 243 -179 84 -82 111 -168 69 -222 -58 -74
-202 -53 -340 48 -66 48 -110 65 -173 65 -65 0 -113 -28 -139 -80 -39 -77 -7
-172 86 -257 191 -174 479 -174 645 2 76 80 96 130 96 240 0 78 -4 97 -28 147
-16 34 -50 77 -82 106 l-54 49 43 -4 c118 -14 200 79 167 189 -17 56 -75 114
-178 177 -252 154 -331 216 -388 306 -45 71 -65 138 -65 219 0 75 9 78 30 11
59 -189 225 -342 381 -353 81 -6 124 4 164 39 71 63 83 174 29 268 -15 25 -80
98 -144 161 -95 94 -120 124 -133 164 -27 79 -20 86 16 16 25 -50 43 -73 81
-97 76 -52 81 -48 81 55 0 65 6 106 24 160 13 39 27 72 31 72 3 0 3 -28 -2
-62 -11 -74 -4 -211 14 -288 14 -63 87 -212 106 -218 22 -7 16 105 -8 139 -61
85 -86 290 -57 474 8 50 13 92 10 94 -2 3 -26 -17 -53 -44 -65 -64 -111 -158
-118 -241 -2 -35 -8 -64 -12 -64 -5 0 -14 31 -20 68 -17 93 -1 186 50 287 43
85 41 86 -49 32 -82 -49 -175 -147 -213 -224 -31 -63 -33 -75 -33 -168 0 -85
4 -109 27 -163 50 -121 117 -211 213 -290 l40 -33 -45 22 c-25 12 -77 54 -116
93 -56 56 -81 91 -117 166 -56 115 -71 182 -64 272 12 137 114 293 264 401 53
38 49 46 -9 16 -270 -137 -448 -437 -450 -759 -1 -126 16 -203 72 -316 72
-148 246 -307 434 -399 106 -52 96 -60 -15 -12 -115 51 -196 104 -283 187
-133 127 -221 286 -248 452 -6 40 -15 77 -19 81 -10 12 -49 -96 -62 -171 -7
-47 -7 -81 2 -130 30 -164 119 -272 386 -472 259 -194 329 -278 329 -395 1
-108 -63 -193 -191 -253 -50 -23 -70 -27 -153 -27 -78 0 -104 4 -145 23 -54
25 -128 91 -151 134 -12 24 -6 21 50 -21 87 -66 157 -91 254 -91 68 0 86 4
147 34 146 71 189 168 130 295 -37 80 -145 179 -320 296 -82 54 -182 130 -222
169 -157 148 -195 332 -120 565 13 39 20 71 15 71 -21 0 -127 -82 -184 -142
-96 -100 -175 -236 -216 -373 l-18 -60 4 95 c7 139 60 289 149 419 42 62 160
185 219 227 27 20 47 38 45 40 -2 2 -32 -7 -66 -21 -150 -61 -402 -108 -528
-97 -67 5 -68 17 -3 26 147 20 361 107 505 207 69 48 265 239 265 259 0 5 -37
-9 -82 -30 -142 -66 -229 -84 -408 -84 -132 -1 -169 3 -250 24 l-95 24 45 9
c184 36 312 102 466 237 28 25 120 110 205 189 207 194 277 243 434 302 l50
19 -75 -4 c-133 -8 -257 -59 -528 -218 -261 -153 -416 -217 -523 -218 -42 0
-139 27 -139 39 0 5 10 6 23 4 41 -8 139 16 214 52 88 41 138 75 269 181 397
320 660 394 997 280 106 -36 112 -35 105 21 -3 26 -10 30 -113 65 -176 59
-316 72 -455 42z"/>
<path d="M3788 4236 c4 -74 0 -94 -38 -209 -49 -148 -52 -222 -12 -277 l23
-30 -51 0 c-58 0 -106 -18 -134 -48 -16 -19 -17 -27 -7 -86 22 -126 55 -189
121 -231 21 -13 98 -48 172 -77 146 -59 230 -109 268 -160 l24 -33 -45 38
c-59 47 -116 67 -195 67 l-64 0 0 -86 c0 -112 14 -140 114 -234 232 -216 283
-285 311 -413 l13 -62 1 60 c2 143 -37 216 -204 380 -73 71 -140 145 -150 164
-18 36 -36 91 -30 91 2 0 30 -27 61 -61 32 -33 97 -92 145 -130 122 -99 167
-159 195 -259 12 -43 12 -41 13 66 2 195 -46 359 -150 513 -97 145 -233 263
-406 350 -46 23 -83 43 -83 46 0 3 30 -7 68 -21 166 -62 306 -164 446 -324 56
-65 68 -86 -151 285 -198 334 -228 411 -205 510 9 37 10 38 11 10 3 -60 52
-170 162 -363 62 -108 148 -260 191 -337 43 -77 78 -131 78 -120 0 30 -42 182
-110 394 -64 205 -83 294 -73 353 8 54 18 54 20 -1 3 -72 20 -123 103 -311 87
-195 124 -305 145 -424 l15 -81 -5 110 c-2 61 -13 151 -24 200 -21 92 -27 200
-13 223 5 7 20 -46 36 -130 16 -79 46 -213 67 -299 48 -198 55 -264 36 -354
-8 -38 -13 -72 -11 -74 9 -9 95 191 119 275 l25 89 -6 -80 c-9 -134 -46 -290
-103 -435 -35 -90 3 -28 53 86 82 188 117 369 97 515 -13 95 -22 110 -49 86
-18 -17 -19 -16 -25 36 -6 65 -30 115 -87 182 -55 66 -80 116 -80 160 0 19 -5
35 -10 35 -22 0 -78 -29 -98 -50 l-20 -22 -3 89 c-4 89 -4 90 -56 167 -34 50
-53 88 -53 107 0 20 -5 29 -15 29 -27 0 -72 -28 -99 -62 -26 -33 -26 -33 -26
-8 -1 82 -102 199 -213 245 l-32 13 3 -82z"/>
<path d="M6947 4287 c-79 -42 -151 -123 -173 -192 l-18 -55 -18 28 c-17 26
-71 62 -94 62 -7 0 -15 -16 -18 -35 -4 -19 -26 -63 -50 -98 -56 -82 -70 -125
-63 -199 l5 -60 -22 21 c-18 17 -85 51 -101 51 -3 0 -5 -12 -5 -27 -1 -40 -31
-100 -82 -163 -61 -75 -79 -113 -85 -181 l-6 -58 -24 16 c-13 9 -26 14 -28 11
-3 -3 -10 -31 -16 -64 -15 -80 -6 -241 20 -340 23 -89 99 -280 127 -316 14
-20 15 -20 9 -3 -47 121 -60 165 -81 255 -13 58 -26 143 -29 190 l-5 85 25
-89 c25 -89 94 -248 112 -259 6 -4 5 17 -3 51 -20 84 -17 164 12 287 73 316
95 415 100 463 7 52 17 65 28 36 11 -30 6 -92 -19 -215 -30 -147 -44 -306 -27
-295 7 4 12 20 12 36 0 89 46 235 144 454 78 175 106 261 106 325 1 38 2 43
12 27 24 -43 3 -172 -62 -371 -55 -170 -120 -404 -120 -430 0 -5 19 24 41 65
23 41 106 188 186 327 162 284 192 346 200 415 8 71 23 58 23 -19 0 -44 -8
-91 -23 -133 -13 -36 -102 -199 -201 -364 -97 -164 -176 -300 -174 -302 3 -2
21 19 42 46 103 135 273 258 454 329 82 32 75 25 -25 -28 -107 -57 -133 -74
-226 -149 -123 -100 -232 -257 -287 -418 -39 -111 -67 -394 -40 -394 6 0 10
10 10 23 0 35 44 118 90 170 23 26 80 77 125 113 46 35 106 89 134 120 60 65
68 50 20 -35 -30 -51 -77 -102 -215 -232 -32 -31 -72 -79 -87 -107 -29 -53
-57 -161 -57 -220 0 -45 16 -32 24 20 10 59 57 154 108 214 24 28 89 92 146
143 56 51 113 107 127 125 33 44 49 119 40 191 l-7 57 -76 -4 c-83 -5 -120
-20 -179 -71 -24 -21 -33 -26 -26 -12 29 52 121 111 262 166 237 93 269 124
306 303 12 62 13 81 3 93 -23 28 -87 53 -137 53 l-50 0 22 38 c34 57 29 133
-16 264 -40 117 -55 218 -38 260 5 15 7 29 3 32 -4 2 -34 -10 -65 -27z"/>
<path d="M4823 3900 c-74 -23 -122 -108 -109 -194 8 -53 21 -60 30 -15 7 38
56 85 96 94 155 34 192 -299 50 -457 l-39 -43 6 57 c4 44 2 63 -11 83 -25 37
-60 48 -96 30 -49 -25 -57 -55 -63 -230 -8 -238 -40 -330 -255 -725 -165 -305
-204 -427 -205 -640 0 -122 9 -185 49 -317 24 -79 26 -83 54 -83 l29 0 -25 73
c-91 266 -65 529 80 815 19 37 68 125 110 196 115 197 190 403 220 609 9 58
16 129 16 158 0 42 2 50 13 40 20 -20 14 -260 -10 -353 -11 -43 -17 -78 -14
-78 10 0 105 139 155 226 98 171 140 307 141 451 0 57 1 103 2 103 1 0 11 -30
23 -66 24 -79 27 -231 6 -312 -18 -66 -65 -168 -106 -227 -17 -25 -27 -45 -22
-45 14 0 165 160 209 221 21 29 53 78 71 108 27 45 32 50 27 26 -19 -92 -111
-238 -270 -426 -155 -184 -248 -342 -261 -444 l-7 -50 91 87 c109 105 193 161
280 188 111 35 135 26 103 -38 -28 -55 -88 -105 -183 -153 -168 -84 -255 -153
-320 -253 -21 -33 -38 -63 -38 -68 0 -5 29 17 65 49 125 112 268 178 371 171
l49 -3 -90 -33 c-230 -83 -376 -209 -405 -349 -7 -30 -10 -57 -7 -59 3 -3 25
10 49 28 60 46 139 79 207 85 l56 6 -66 -51 c-133 -102 -249 -264 -249 -349
l0 -33 53 41 c52 42 140 89 166 89 7 0 -11 -26 -40 -58 -64 -69 -103 -137
-124 -217 -23 -89 -21 -107 12 -103 25 3 29 8 36 58 13 95 92 234 181 319 20
19 36 38 36 43 0 4 -18 11 -40 14 l-40 6 47 52 c47 52 106 164 118 224 l7 32
-65 0 c-88 0 -163 -15 -220 -45 -27 -14 -52 -25 -55 -25 -3 0 16 23 43 51 88
89 250 176 425 230 39 11 70 24 70 28 0 16 -46 55 -90 75 l-47 22 58 52 c58
52 101 123 114 189 6 31 5 32 -32 39 -49 9 -175 -9 -233 -34 -25 -11 -66 -36
-92 -56 -27 -20 -48 -32 -48 -28 0 21 73 115 170 219 197 213 241 266 275 337
42 85 58 160 44 207 -11 42 -17 51 -49 72 -38 26 -84 22 -123 -13 l-35 -30 -4
93 c-6 142 -59 236 -160 288 -47 24 -120 32 -165 19z"/>
<path d="M5836 3894 c-107 -33 -181 -150 -193 -304 l-6 -78 -35 24 c-42 29
-77 30 -118 5 -63 -39 -69 -142 -15 -255 41 -87 78 -134 244 -312 128 -137
217 -247 217 -269 0 -4 -17 7 -37 23 -64 50 -140 82 -221 94 -95 14 -152 5
-152 -22 0 -61 72 -177 137 -223 l44 -31 -37 -13 c-46 -16 -104 -59 -104 -77
0 -8 43 -28 106 -50 202 -70 352 -160 416 -249 l20 -29 -53 30 c-64 36 -135
52 -226 52 l-65 0 6 -37 c12 -64 60 -155 114 -214 l52 -56 -40 -7 c-47 -7 -49
-14 -14 -47 85 -80 178 -244 190 -335 5 -47 9 -54 28 -54 32 0 34 4 24 68 -11
77 -68 189 -129 257 -28 30 -46 55 -39 55 24 0 124 -56 165 -92 24 -21 46 -38
50 -38 13 0 -5 81 -30 134 -34 72 -120 171 -204 236 -69 54 -70 55 -41 58 49
5 134 -25 204 -72 l66 -44 0 29 c0 15 -10 54 -21 85 -40 105 -176 215 -354
284 -127 49 -126 49 -69 49 112 2 268 -75 382 -188 28 -29 52 -48 52 -44 0 4
-14 31 -30 60 -58 101 -171 193 -340 278 -41 21 -90 49 -108 63 -36 28 -82 98
-82 127 0 15 6 17 53 11 107 -14 289 -128 383 -240 21 -25 42 -46 47 -46 14 0
-3 79 -30 145 -36 87 -115 202 -237 349 -125 151 -197 254 -237 342 -37 82
-39 127 -3 58 33 -62 84 -132 151 -208 63 -70 157 -154 131 -116 -43 61 -92
157 -116 223 -34 96 -37 251 -7 342 l19 60 6 -100 c9 -151 47 -268 144 -440
42 -77 146 -228 152 -223 2 2 -6 46 -16 98 -13 60 -19 132 -19 195 1 156 13
169 28 32 28 -259 107 -495 240 -716 192 -317 257 -538 230 -779 -9 -80 -39
-210 -64 -274 -6 -14 -2 -18 19 -18 32 0 42 21 77 150 20 74 23 108 23 255 -1
250 -4 260 -271 775 -62 118 -126 258 -144 310 -29 87 -33 110 -39 265 -7 187
-16 220 -64 240 -78 33 -129 -43 -102 -150 l8 -30 -27 25 c-14 13 -43 58 -63
99 -36 73 -37 78 -37 185 0 98 3 115 23 147 25 42 70 64 107 55 38 -10 84 -56
100 -101 l13 -40 7 30 c4 17 9 38 11 47 8 29 -16 97 -46 131 -29 33 -86 58
-131 56 -13 0 -46 -7 -73 -15z"/>
<path d="M3250 3184 c-18 -55 -7 -119 29 -171 l32 -45 -28 20 c-15 11 -57 46
-93 77 -104 91 -175 117 -265 98 -36 -8 -40 -12 -43 -42 -5 -48 42 -138 85
-163 18 -11 32 -23 29 -25 -8 -8 -70 16 -151 58 -88 45 -136 50 -204 19 -43
-20 -44 -21 -38 -62 3 -22 15 -54 26 -69 12 -16 21 -31 21 -34 0 -3 -18 -5
-40 -5 -79 0 -136 -51 -199 -177 -22 -45 -45 -84 -51 -88 -17 -10 -11 -35 8
-35 10 0 65 -28 122 -62 128 -77 174 -84 268 -44 34 14 90 38 124 52 36 15 87
28 122 30 56 3 58 3 26 -7 -74 -23 -91 -33 -120 -66 -17 -18 -30 -38 -30 -43
0 -6 25 -10 55 -10 96 0 218 -53 283 -123 l23 -24 -43 -7 c-84 -14 -155 -74
-173 -148 -6 -25 -4 -27 47 -42 153 -44 356 -242 522 -508 32 -53 54 -78 67
-78 10 0 19 4 19 8 0 11 -99 169 -156 249 -118 165 -269 310 -382 365 l-65 32
32 27 c55 46 159 63 240 39 19 -5 37 -7 40 -4 3 4 -32 42 -78 86 -98 91 -213
155 -298 165 -29 3 -53 9 -53 13 0 5 23 13 51 20 58 14 141 2 219 -31 l45 -19
-57 54 c-78 74 -178 144 -246 172 -76 31 -143 31 -229 -2 -131 -49 -185 -64
-256 -69 l-72 -5 45 15 c25 8 100 42 167 76 109 56 129 62 196 67 94 6 187
-20 272 -76 33 -22 147 -125 254 -231 106 -105 197 -191 203 -191 5 0 -40 53
-100 118 -60 64 -161 176 -224 247 -62 72 -134 144 -159 160 -25 17 -103 50
-173 73 -117 39 -208 81 -221 103 -3 4 14 -1 39 -11 24 -11 100 -35 170 -54
218 -60 248 -81 393 -275 127 -169 212 -261 303 -330 45 -34 86 -61 92 -61 6
0 -12 24 -40 54 -64 67 -158 211 -255 387 -40 74 -93 164 -116 198 -52 76
-156 188 -211 226 -22 15 -38 30 -36 32 11 11 107 -58 171 -122 85 -84 139
-164 241 -355 79 -149 132 -233 192 -308 40 -48 51 -49 27 -1 -31 59 -53 136
-100 343 -25 113 -53 222 -61 243 -10 22 -55 75 -110 128 -107 102 -128 148
-28 59 173 -154 171 -152 224 -399 33 -157 80 -313 106 -355 15 -25 15 -24 10
15 -27 194 -11 366 45 476 17 34 32 59 34 58 2 -2 -6 -42 -16 -89 -25 -111
-35 -313 -20 -409 33 -211 125 -345 247 -359 l47 -5 -41 55 c-53 69 -74 128
-75 203 -1 139 91 226 188 179 21 -9 46 -31 57 -48 18 -29 19 -41 11 -166 -19
-313 -5 -536 45 -705 15 -49 22 -61 41 -63 18 -3 22 0 18 11 -74 193 -96 425
-68 708 15 149 11 208 -19 257 -61 101 -218 95 -287 -10 -26 -39 -28 -49 -28
-144 0 -113 -8 -116 -26 -10 -10 60 -9 90 7 201 31 214 20 446 -22 462 -53 20
-143 -44 -165 -116 l-12 -40 -22 63 c-38 108 -84 163 -208 250 -37 26 -86 65
-109 87 -23 21 -42 39 -44 39 -1 0 -8 -16 -14 -36z m634 -1030 c3 -8 2 -12 -4
-9 -6 3 -10 10 -10 16 0 14 7 11 14 -7z"/>
<path d="M7490 3184 c-19 -20 -64 -57 -100 -82 -130 -91 -184 -155 -219 -258
l-19 -58 -17 39 c-28 69 -85 115 -143 115 -24 0 -31 -6 -41 -37 -23 -69 -25
-249 -6 -387 20 -144 17 -271 -9 -326 -11 -24 -14 -27 -11 -10 14 59 16 148 6
188 -7 23 -26 59 -44 79 -78 89 -201 84 -271 -10 -18 -25 -21 -42 -20 -140 0
-62 4 -188 8 -282 10 -190 -4 -315 -49 -461 -30 -96 -30 -94 -5 -94 15 0 23
12 34 53 54 191 72 383 54 586 -22 264 -17 297 55 341 42 26 76 25 118 -3 106
-70 104 -260 -2 -381 l-41 -46 37 0 c51 0 97 24 145 77 84 90 122 223 123 423
0 108 -14 224 -39 330 l-6 25 21 -25 c41 -49 64 -145 68 -290 3 -74 0 -162 -5
-195 -6 -33 -8 -62 -6 -64 14 -15 76 187 129 419 44 192 67 242 137 295 29 22
75 60 102 85 45 41 48 42 33 15 -8 -16 -49 -61 -91 -98 -42 -38 -86 -87 -97
-109 -11 -21 -40 -129 -65 -240 -46 -207 -82 -329 -111 -376 l-17 -27 32 29
c49 46 122 157 205 313 41 78 96 175 122 215 61 94 194 225 265 261 30 16 46
21 35 13 -11 -9 -44 -35 -73 -58 -94 -74 -178 -189 -297 -403 -94 -172 -186
-311 -257 -390 -57 -64 -54 -64 37 0 79 56 202 185 299 315 100 134 179 215
236 245 25 12 106 40 180 60 74 20 152 46 172 56 47 24 57 24 27 0 -40 -31
-100 -58 -204 -91 -186 -60 -159 -38 -535 -455 -180 -199 -164 -188 100 71
180 176 202 194 284 235 88 43 91 44 190 44 l101 0 115 -59 c63 -33 140 -67
170 -77 l55 -18 -45 0 c-61 -1 -146 20 -260 64 -125 49 -191 47 -297 -9 -67
-35 -253 -179 -253 -196 0 -4 28 4 63 18 73 30 186 36 227 12 24 -14 24 -14
-34 -22 -34 -4 -89 -22 -130 -43 -74 -37 -210 -144 -239 -189 l-17 -26 32 8
c18 4 67 7 108 7 60 0 83 -5 117 -24 61 -35 61 -47 0 -77 -161 -82 -365 -307
-521 -576 l-28 -48 24 0 c18 0 33 16 67 73 171 278 366 466 539 517 23 7 42
15 42 17 0 17 -36 84 -58 106 -36 38 -67 54 -127 62 l-49 8 39 34 c86 75 181
113 283 113 28 0 52 5 52 10 0 6 -18 28 -39 49 -30 30 -52 42 -95 51 -31 6
-56 14 -56 17 0 3 29 3 64 1 47 -4 89 -17 167 -53 92 -43 112 -49 174 -49 67
-1 74 1 147 47 42 26 97 57 122 68 l47 20 -20 27 c-10 15 -33 57 -51 94 -59
121 -115 168 -200 168 l-41 0 20 26 c25 31 41 86 34 113 -6 23 -43 41 -104 48
-42 5 -60 0 -156 -46 -124 -58 -154 -64 -100 -20 46 38 78 98 80 152 2 40 1
41 -38 50 -49 11 -125 3 -162 -17 -15 -8 -66 -47 -113 -86 -98 -82 -141 -110
-99 -64 15 16 32 39 38 51 15 29 14 135 -2 156 -11 16 -15 15 -47 -19z"/>
<path d="M5350 2278 c-104 -52 -179 -168 -202 -310 l-12 -78 -18 30 c-15 26
-71 70 -88 70 -3 0 -14 -42 -23 -92 -18 -93 -68 -209 -152 -353 -42 -73 -44
-87 -8 -83 23 3 35 19 89 123 67 127 114 253 114 307 l1 33 28 -33 c31 -37 61
-127 61 -185 0 -20 4 -37 9 -37 14 0 30 78 40 196 12 129 29 190 73 264 35 57
107 120 138 120 30 0 124 -93 152 -152 32 -66 45 -124 58 -257 6 -57 15 -123
22 -145 l11 -41 14 80 c21 120 93 239 93 153 0 -58 28 -138 102 -285 67 -133
73 -143 100 -143 15 0 28 3 28 8 0 4 -21 43 -45 87 -106 187 -154 313 -155
403 0 45 -23 42 -78 -13 -24 -25 -46 -45 -47 -45 -1 0 -5 30 -8 67 -12 127
-95 255 -199 309 -26 13 -49 24 -50 24 -2 0 -23 -10 -48 -22z"/>
<path d="M3118 1746 c-91 -33 -127 -88 -128 -189 0 -97 -1 -97 156 -97 l135 0
-12 23 c-25 48 -92 129 -131 157 -31 23 -36 30 -21 30 45 0 147 -102 184 -183
12 -26 16 -27 82 -27 l69 0 -6 35 c-33 174 -197 300 -328 251z"/>
<path d="M7550 1745 c-70 -22 -128 -78 -165 -160 -18 -38 -35 -82 -39 -97 l-6
-28 69 0 69 0 28 47 c48 83 134 163 174 163 7 0 -13 -23 -43 -50 -48 -44 -117
-134 -117 -153 0 -12 268 -8 275 3 4 6 9 35 12 65 10 100 -46 190 -134 214
-48 14 -67 13 -123 -4z"/>
<path d="M2174 1605 c-71 -19 -152 -57 -204 -96 l-45 -33 30 -7 c35 -8 491
-11 483 -4 -8 8 -146 32 -228 40 -127 11 -92 18 65 12 120 -4 168 -11 240 -31
74 -21 111 -26 208 -26 66 0 116 4 113 9 -12 18 -224 104 -315 127 -108 28
-263 32 -347 9z"/>
<path d="M8285 1600 c-92 -24 -186 -60 -265 -101 l-65 -34 118 -3 c94 -2 131
1 185 17 108 32 179 41 301 40 l116 -1 -100 -13 c-55 -7 -127 -18 -160 -26
-59 -14 -55 -14 150 -17 204 -3 295 2 295 16 0 9 -84 65 -137 91 -106 52 -305
67 -438 31z"/>
</g>
</svg>
