<?xml version="1.0" encoding="UTF-8"?>
<svg width="512pt" height="512pt" version="1.1" viewBox="0 0 512 512" xmlns="http://www.w3.org/2000/svg" fill="#dbb56f"
    opacity="0.3">
    <path
        d="m36.133 36.133c7.3906-7.3906 17.414-11.543 27.867-11.543s20.477 4.1523 27.867 11.543l-55.734 55.734c9.957 9.9453 24.465 13.824 38.059 10.18 13.59-3.6484 24.207-14.266 27.855-27.855 3.6445-13.594-0.23438-28.102-10.18-38.059l36.133-36.133h-128v128l36.133-36.133c-7.3906-7.3906-11.543-17.414-11.543-27.867s4.1523-20.477 11.543-27.867z" />
    <path
        d="m128 128 36.133-36.133c-9.9492-9.957-13.832-24.465-10.188-38.062 3.6445-13.594 14.266-24.215 27.859-27.859 13.598-3.6445 28.105 0.23828 38.062 10.188l-55.734 55.734c9.957 9.9453 24.465 13.824 38.059 10.18 13.59-3.6484 24.207-14.266 27.855-27.855 3.6445-13.594-0.23438-28.102-10.18-38.059l36.133-36.133h-128z" />
    <path
        d="m256 128 36.133-36.133c-9.9492-9.957-13.832-24.465-10.188-38.062 3.6445-13.594 14.266-24.215 27.859-27.859 13.598-3.6445 28.105 0.23828 38.062 10.188l-55.734 55.734c9.957 9.9453 24.465 13.824 38.059 10.18 13.59-3.6484 24.207-14.266 27.855-27.855 3.6445-13.594-0.23438-28.102-10.18-38.059l36.133-36.133h-128z" />
    <path
        d="m384 128 36.133-36.133c-7.3945-7.3906-11.551-17.414-11.555-27.871-0.003906-10.453 4.1484-20.48 11.543-27.875 7.3945-7.3945 17.422-11.547 27.875-11.543 10.457 0.003906 20.48 4.1602 27.871 11.555l-55.734 55.734c7.3906 7.3984 17.414 11.559 27.871 11.562 10.457 0.003906 20.488-4.1484 27.883-11.543s11.547-17.426 11.543-27.883c-0.003907-10.457-4.1641-20.48-11.562-27.871l36.133-36.133h-128z" />
    <path
        d="m356.13 219.87c7.3906 7.3906 17.414 11.543 27.867 11.543s20.477-4.1523 27.867-11.543l-55.734-55.734c7.3906-7.3945 17.414-11.551 27.871-11.555 10.453-0.003906 20.48 4.1484 27.875 11.543 7.3945 7.3945 11.547 17.422 11.543 27.875-0.003906 10.457-4.1602 20.48-11.555 27.871l36.133 36.133v-128h-128l36.133 36.133c-7.3906 7.3906-11.543 17.414-11.543 27.867s4.1523 20.477 11.543 27.867z" />
    <path
        d="m484.13 164.13c-7.3906 7.3906-11.543 17.414-11.543 27.867s4.1523 20.477 11.543 27.867c7.3906 7.3906 17.414 11.543 27.867 11.543v-39.41l-27.867-27.867c7.3828-7.4023 17.414-11.559 27.867-11.543v-24.59h-64z" />
    <path
        d="m228.13 219.87c7.3906 7.3906 17.414 11.543 27.867 11.543s20.477-4.1523 27.867-11.543l-55.734-55.734c9.957-9.9492 24.465-13.832 38.062-10.188 13.594 3.6445 24.215 14.266 27.859 27.859 3.6445 13.598-0.23828 28.105-10.188 38.062l36.133 36.133v-128h-128l36.133 36.133c-7.3906 7.3906-11.543 17.414-11.543 27.867s4.1523 20.477 11.543 27.867z" />
    <path
        d="m100.13 219.87c7.3906 7.3906 17.414 11.543 27.867 11.543s20.477-4.1523 27.867-11.543l-55.734-55.734c9.957-9.9492 24.465-13.832 38.062-10.188 13.594 3.6445 24.215 14.266 27.859 27.859 3.6445 13.598-0.23828 28.105-10.188 38.062l36.133 36.133v-128h-128l36.133 36.133c-7.3906 7.3906-11.543 17.414-11.543 27.867s4.1523 20.477 11.543 27.867z" />
    <path
        d="m27.867 164.13c7.3906 7.3906 11.543 17.414 11.543 27.867s-4.1523 20.477-11.543 27.867l36.133 36.133v-128h-64v24.59c10.453-0.015625 20.484 4.1406 27.867 11.543z" />
    <path d="m27.867 219.87-27.867-27.867v39.41c10.453 0.015625 20.484-4.1406 27.867-11.543z" />
    <path
        d="m36.133 292.13c7.3906-7.3906 17.414-11.543 27.867-11.543s20.477 4.1523 27.867 11.543l-55.734 55.734c9.957 9.9453 24.465 13.824 38.059 10.18 13.59-3.6484 24.207-14.266 27.855-27.855 3.6445-13.594-0.23438-28.102-10.18-38.059l36.133-36.133h-128v128l36.133-36.133c-7.3906-7.3906-11.543-17.414-11.543-27.867s4.1523-20.477 11.543-27.867z" />
    <path
        d="m164.13 292.13c7.3906-7.3906 17.414-11.543 27.867-11.543s20.477 4.1523 27.867 11.543l-55.734 55.734c9.957 9.9453 24.465 13.824 38.059 10.18 13.59-3.6484 24.207-14.266 27.855-27.855 3.6445-13.594-0.23438-28.102-10.18-38.059l36.133-36.133h-128v128l36.133-36.133c-7.3906-7.3906-11.543-17.414-11.543-27.867s4.1523-20.477 11.543-27.867z" />
    <path
        d="m292.13 292.13c7.3906-7.3906 17.414-11.543 27.867-11.543s20.477 4.1523 27.867 11.543l-55.734 55.734c9.957 9.9453 24.465 13.824 38.059 10.18 13.59-3.6484 24.207-14.266 27.855-27.855 3.6445-13.594-0.23438-28.102-10.18-38.059l36.133-36.133h-128v128l36.133-36.133c-7.3906-7.3906-11.543-17.414-11.543-27.867s4.1523-20.477 11.543-27.867z" />
    <path
        d="m384 256v128l36.133-36.133c-7.3945-7.3906-11.551-17.414-11.555-27.871-0.003906-10.453 4.1484-20.48 11.543-27.875 7.3945-7.3945 17.422-11.547 27.875-11.543 10.457 0.003906 20.48 4.1602 27.871 11.555l-55.734 55.734c7.3906 7.3984 17.414 11.559 27.871 11.562 10.457 0.003906 20.488-4.1484 27.883-11.543s11.547-17.426 11.543-27.883c-0.003907-10.457-4.1641-20.48-11.562-27.871l36.133-36.133z" />
    <path
        d="m448 384h-128l36.133 36.133c-9.9453 9.957-13.824 24.465-10.18 38.059 3.6484 13.59 14.266 24.207 27.855 27.855 13.594 3.6445 28.102-0.23438 38.059-10.18l-55.734-55.734c7.3906-7.3945 17.414-11.551 27.871-11.555 10.453-0.003906 20.48 4.1484 27.875 11.543 7.3945 7.3945 11.547 17.422 11.543 27.875-0.003906 10.457-4.1602 20.48-11.555 27.871l36.133 36.133z" />
    <path
        d="m484.13 420.13c7.3828-7.4023 17.414-11.559 27.867-11.543v-24.59h-64l36.133 36.133c-7.3906 7.3906-11.543 17.414-11.543 27.867s4.1523 20.477 11.543 27.867c7.3906 7.3906 17.414 11.543 27.867 11.543v-39.41z" />
    <path
        d="m320 384h-128l36.133 36.133c-9.9453 9.957-13.824 24.465-10.18 38.059 3.6484 13.59 14.266 24.207 27.855 27.855 13.594 3.6445 28.102-0.23438 38.059-10.18l-55.734-55.734c9.957-9.9492 24.465-13.832 38.062-10.188 13.594 3.6445 24.215 14.266 27.859 27.859 3.6445 13.598-0.23828 28.105-10.188 38.062l36.133 36.133z" />
    <path
        d="m192 384h-128l36.133 36.133c-9.9453 9.957-13.824 24.465-10.18 38.059 3.6484 13.59 14.266 24.207 27.855 27.855 13.594 3.6445 28.102-0.23438 38.059-10.18l-55.734-55.734c9.957-9.9492 24.465-13.832 38.062-10.188 13.594 3.6445 24.215 14.266 27.859 27.859 3.6445 13.598-0.23828 28.105-10.188 38.062l36.133 36.133z" />
    <path
        d="m64 384h-64v24.59c10.453-0.015625 20.484 4.1406 27.867 11.543 7.3906 7.3906 11.543 17.414 11.543 27.867s-4.1523 20.477-11.543 27.867l36.133 36.133z" />
    <path d="m27.867 475.87-27.867-27.867v39.41c10.453 0.015625 20.484-4.1406 27.867-11.543z" />
</svg>