<?xml version="1.0" encoding="UTF-8"?>
<svg width="512pt" height="512pt" version="1.1" viewBox="0 0 512 512" xmlns="http://www.w3.org/2000/svg" fill="#660707">
    <path
        d="m499.08 336.16-2.5781-1.5586c-3.6211-2.0586-7.2383-4.6602-11.379-6.1992-5.6797-2.0586-9.8203-5.6797-12.918-11.379-2.5781-3.6211-7.7617-12.422-18.621-12.422h-0.51953c-4.6602 0-8.8008-1.5586-13.441-5.1797-6.7188-5.6797-14.48-8.8008-21.719-11.379-9.3008-3.6211-16.039-7.2383-21.199-11.898l-1.5586-1.0391c-9.3008-8.2812-19.141-17.578-31.039-24.301-4.6602-2.5781-7.7617-7.2383-9.8203-12.422h1.5586c7.7617 0.51953 10.34-2.5781 11.898-8.8008l0.51953-1.0391c1.5586-6.1992 3.1016-10.34 7.2383-11.898l1.0391-0.51953c0.51953 0 1.0391-0.51953 1.0391-0.51953 2.5781 0.51953 5.1797 0.51953 7.7617 1.0391 4.1406 0.51953 8.2812 1.5586 12.422 1.5586 5.6797 0.51953 12.422 0 19.141-1.0391 3.6211-0.51953 6.1992-2.5781 7.2383-5.6797 1.0391-3.1016 0.51953-6.7188-2.0586-8.8008-2.5781-2.5781-7.2383-5.6797-12.422-6.1992-10.859-0.51953-21.719-3.1016-31.039-5.6797-6.1992-1.5586-8.8008-4.6602-10.34-10.859-0.51953-2.5781-1.0391-5.6797-3.6211-7.2383-2.5781-2.0586-5.6797-1.0391-8.8008-0.51953-1.0391-3.6211 0.51953-7.2383 2.0586-11.379l5.6797-3.6211c5.6797-3.1016 11.379-6.7188 17.059-9.8203 5.6797-3.1016 13.961-7.2383 14.48-18.102 0-4.6602-1.0391-8.8008-3.1016-11.379-2.5781-3.6211-8.2812-7.2383-18.621-3.6211-5.1797 2.0586-12.422 5.1797-17.578 11.379-2.5781 3.1016-5.6797 6.1992-8.2812 9.3008v-0.51953c-1.0391-3.6211-5.1797-4.6602-7.2383-4.1406-4.6602 0.51953-11.379 4.6602-14.48 9.8203-0.51953-0.51953-0.51953-1.0391-1.0391-1.5586-1.5586-2.5781-1.0391-3.1016-0.51953-3.6211 1.5586-1.5586 3.1016-3.6211 4.1406-5.6797 2.0586-3.1016 1.5586-6.1992 1.0391-7.7617-0.51953-1.5586-2.0586-3.6211-6.1992-5.1797-1.0391 0-1.5586-0.51953-2.5781-0.51953h-1.0391c0.51953-2.0586 0-3.6211-0.51953-5.6797-0.51953-2.0586-1.0391-4.6602-1.5586-6.7188-1.0391-3.1016-1.5586-6.1992-2.5781-9.8203-0.51953-1.5586-0.51953-3.1016-0.51953-5.1797-0.51953-4.6602-0.51953-10.34-4.6602-15l-0.51953-1.0391c-1.0391-1.5586-2.5781-3.1016-4.6602-4.6602-3.1016-2.0586-6.7188-2.0586-9.8203 0-1.5586 1.0391-2.5781 2.0586-3.6211 3.6211v-0.51953c0.51953-2.5781 1.0391-5.1797 1.0391-7.7617 0.51953-3.6211 1.0391-6.7188 1.5586-10.34 0.51953-4.1406 0.51953-7.7617 0-10.859-0.51953-3.1016-2.5781-6.1992-5.6797-7.2383-3.1016-1.0391-6.1992 0-8.8008 2.0586-2.5781 3.1016-6.1992 6.7188-6.7188 11.379-1.0391 4.6602-1.0391 9.3008-1.5586 13.961 0 3.1016-0.51953 5.6797-1.0391 8.8008-1.0391 8.8008-2.0586 15-3.6211 20.16l-0.51953 0.51953-1.0391-2.0586c-2.5781-4.1406-5.1797-8.2812-6.7188-12.422-4.6602-11.379-6.1992-23.781-6.7188-35.16-0.51953-7.2383-2.5781-18.102-11.898-25.859-2.0586-1.5586-4.1406-2.0586-6.1992-3.1016-0.51953 0-1.0391-0.51953-2.0586-0.51953-1.0391-0.51953-2.0586-0.51953-3.1016 0l-4.6797 3.1797c-0.51953 0-1.0391 0.51953-1.5586 1.0391-0.51953 0.51953-1.0391 0.51953-1.5586 1.0391-1.5586 1.0391-3.1016 2.0586-4.6602 3.6211-6.1992 7.7617-8.2812 18.102-5.6797 30 2.5781 11.898 11.379 19.141 17.578 23.781l2.5781 1.5586c4.1406 3.1016 7.7617 5.6797 10.34 9.8203 5.6797 9.3008 7.2383 15.52 4.6602 21.719-4.1406 10.34-10.34 22.242-20.68 29.48-8.8008 6.1992-16.039 7.7617-23.281 4.1406-4.1406-2.0586-8.2812-3.6211-12.918-5.1797-5.6797-2.5781-11.898-4.6602-17.578-7.7617-5.6797-3.1016-11.898-6.1992-15.52-11.898-3.6211-5.6797-8.2812-9.3008-13.961-11.379-3.1016-1.0391-6.1992-1.0391-10.859 0.51953-1.0391 0.51953-2.5781 1.0391-4.1406 3.6211-0.51953 0.51953-2.0586 4.1406-1.0391 7.2383 1.5586 4.1406 3.1016 6.7188 5.6797 8.8008 5.6797 4.6602 11.379 8.8008 17.059 13.441 4.6602 3.6211 9.8203 7.2383 14.48 11.379 1.0391 0.51953 1.5586 2.0586 2.0586 2.5781 1.5586 6.7188 0.51953 13.441-3.1016 19.66 0 0-0.51953 0.51953-1.0391 0.51953-0.51953 0.51953-1.0391 0.51953-2.0586 1.0391-1.5586 1.0391-3.6211 2.0586-5.1797 3.6211-3.1016 3.6211-6.1992 5.1797-9.3008 5.6797-3.6211 0.51953-7.7617 1.0391-11.379 1.0391-6.7188 0.51953-13.441 1.5586-20.68 2.0586-9.3008 0.51953-17.059-0.51953-24.301-3.6211-3.6211-1.5586-7.7617-3.1016-11.898-3.1016-6.7188-0.51953-13.441-1.0391-20.16-0.51953-5.1797 0-10.34 1.0391-16.539 2.0586-2.5781 0.51953-7.7617 2.5781-9.3008 6.7188-1.5586 4.1406-1.5586 8.8008 0.51953 12.918 2.0586 3.6211 5.6797 6.1992 9.8203 6.7188 5.1797 1.0391 11.379 2.0586 17.578 4.6602 12.422 4.6602 23.281 1.5586 32.059-2.5781 3.6211-1.5586 8.2812-2.5781 12.422-2.5781 5.6797 0 11.379 0.51953 17.578 1.5586l6.7188 1.0391c3.6211 0.51953 7.2383 1.0391 10.34 2.0586 2.0586 0.51953 4.1406 1.5586 6.7188 3.1016 2.0586 1.0391 4.1406 2.0586 6.1992 2.5781 2.5781 1.0391 3.1016 1.5586 3.1016 3.1016 0.51953 2.0586 2.0586 7.2383 5.6797 8.8008 1.0391 0.51953 1.5586 0.51953 1.5586 2.5781v3.1016c0.51953 3.6211 0 3.6211-0.51953 4.1406-1.0391 0.51953-2.5781 0.51953-4.1406 0.51953h0.039063-13.441c-5.1797 0-11.898 5.6797-11.898 10.859 0 6.1992 4.1406 10.34 10.34 10.859 2.5781 0.51953 5.6797 0.51953 8.8008 0 2.0586-0.51953 4.1406-1.0391 6.1992-1.5586-1.0391 1.5586-1.0391 3.1016 0 4.6602 1.0391 1.5586 2.0586 2.5781 4.1406 3.1016h0.51953c1.5586 0.51953 3.6211 1.0391 5.6797 0 1.5586-0.51953 3.1016-1.5586 4.6602-2.5781 1.0391-0.51953 2.0586-1.0391 3.1016-1.5586 1.0391-0.51953 2.0586-1.0391 3.1016-1.5586 3.6211-2.0586 6.1992-3.1016 8.8008-2.5781 2.5781 0.51953 5.6797 0.51953 8.2812 0.51953h4.6602c2.0586 0 3.6211 0.51953 4.6602 1.0391l-6.1992 6.1992c-1.0391 1.0391-2.0586 2.0586-3.6211 2.5781-2.5781 1.5586-5.1797 3.6211-7.2383 6.7188-5.1797 6.7188-10.34 13.961-15.52 21.199-9.3008 12.918-18.621 26.379-29.48 38.281-6.1992 6.1992-11.379 11.898-16.539 17.059-5.6797-2.5781-9.8203 0.51953-11.379 1.5586-2.0586 1.5586-2.5781 4.6602-1.0391 6.7188 0 0.51953 0.51953 1.0391 1.0391 2.0586-7.7617 7.2383-14.48 12.918-21.199 19.141-2.0586 1.5586-4.1406 3.1016-6.1992 4.6602-4.1406 3.1016-8.2812 6.1992-11.379 9.8203-7.2383 8.8008-14.48 18.102-21.199 26.898-4.1406 5.6797-8.8008 11.379-12.918 16.539-6.7188 8.8008-13.961 17.578-21.199 25.859l-4.6602 5.6797-2.5781 2.5781c-1.5586 1.5586-3.1016 3.1016-4.6602 5.1797-4.6602 6.7188-2.0586 11.898 1.0391 14.48 1.0391 1.0391 4.6602 3.1016 8.2812 3.1016 1.0391 0 2.0586 0 3.1016-0.51953 3.6211-1.5586 7.2383-5.1797 8.8008-8.2812 6.1992-11.898 15-22.762 25.34-32.059 12.422-11.379 24.301-24.301 37.762-42.922 8.2812-11.379 16.039-19.66 24.82-25.859 10.34-7.7617 17.578-15 22.242-23.281 5.1797-9.3008 12.918-18.102 24.82-27.918l1.0391-0.51953c6.7188-5.6797 13.961-11.898 20.68-18.102 2.5781-3.1016 4.6602-6.1992 6.7188-9.3008 1.0391-1.5586 1.5586-2.5781 2.5781-4.1406 0.51953-0.51953 1.0391-1.0391 1.0391-1.5586 0 0 0.51953 0.51953 1.0391 0.51953 1.5586 1.0391 3.1016 1.5586 4.1406 2.0586 0.51953 0 0.51953 0 1.0391 0.51953 1.5586 0.51953 3.6211 0.51953 5.1797-0.51953 1.5586-1.0391 2.0586-3.1016 2.0586-4.6602v-1.5586c0-1.5586-0.51953-2.5781-0.51953-4.1406-0.51953-1.5586-1.5586-2.5781-2.0586-3.6211 0-0.51953-0.51953-0.51953-0.51953-1.0391 3.1016-2.0586 6.1992-4.1406 8.8008-5.1797 1.0391-0.51953 1.5586-0.51953 2.0586-0.51953 0 0.51953 0.51953 1.5586 0.51953 3.1016 1.0391 4.6602 1.5586 9.3008 2.5781 13.961l1.0391 6.1992c0.51953 3.6211 1.0391 7.2383 1.5586 10.859 0.51953 4.6602-0.51953 8.2812-3.1016 10.859-1.0391 1.0391-1.5586 2.5781-2.0586 3.6211-2.0586 4.1406-1.0391 7.2383 0 8.8008 1.0391 1.5586 3.1016 3.6211 7.7617 3.1016 4.1406-0.51953 7.7617-1.5586 10.859-3.1016 6.1992-3.1016 6.1992-9.8203 5.6797-13.441v-1.5586c0-3.6211 0.51953-9.8203 7.2383-10.859 2.5781-0.51953 2.5781 0.51953 2.5781 1.0391 0.51953 1.5586 0 3.6211-0.51953 5.1797-6.7188 17.578-7.2383 35.68-2.5781 53.258 0.51953 2.5781 2.5781 4.1406 4.1406 5.1797 0.51953 0 0.51953 0.51953 1.0391 0.51953 1.0391 1.0391 2.5781 1.5586 3.6211 1.5586 1.5586 0 2.5781-0.51953 3.6211-1.5586 0.51953-0.51953 0.51953-0.51953 1.0391-1.0391 1.0391-1.0391 3.1016-3.1016 3.6211-5.1797 1.0391-3.1016 0.51953-6.1992 0-8.8008-2.0586-9.3008-1.5586-18.621 0.51953-31.539 0-0.51953 0.51953-1.0391 0.51953-1.0391h0.51953c8.2812 2.0586 10.859-4.6602 11.898-7.2383v-0.51953c3.1016-8.8008 7.2383-15 12.422-20.68 2.0586 2.0586 3.6211 4.6602 5.1797 7.2383l1.0391 1.0391c7.7617 10.859 12.422 20.16 13.961 30 1.0391 7.2383 5.1797 12.422 8.2812 16.539 2.5781 3.1016 6.1992 5.1797 9.8203 4.6602 3.1016 0 5.6797-2.0586 7.7617-4.6602 2.5781-4.6602 3.1016-9.3008 0.51953-13.441-1.5586-2.0586-2.5781-4.6602-4.1406-6.7188-1.5586-2.5781-3.1016-5.1797-4.6602-7.2383l-0.51953-0.51953c-1.5586-3.1016-3.1016-5.6797-4.1406-8.2812-0.51953-2.0586-1.0391-4.6602-1.0391-7.2383-0.51953-2.0586-0.51953-4.6602-1.0391-7.2383-0.51953-3.1016-1.5586-6.1992-2.5781-8.8008v-0.51953s0.51953 0 0.51953 0.51953c2.5781 1.0391 4.6602 2.5781 7.2383 3.6211 7.2383 3.1016 12.422 7.7617 15 13.441 1.0391 1.5586 2.5781 3.1016 4.1406 4.1406 1.0391 0.51953 2.5781 1.0391 3.6211 1.0391h1.0391c1.5586 0.51953 3.1016 0 4.6602-1.0391 1.0391-1.0391 2.0586-2.5781 2.0586-4.1406v-1.0391c0-1.5586 0-4.1406-1.5586-6.1992-4.1406-6.1992-8.8008-12.422-12.918-18.102-3.6211-4.6602-6.7188-9.8203-10.34-14.48-0.51953-0.51953-0.51953-1.5586-0.51953-1.0391 0.51953-2.5781 2.0586-4.6602 4.6602-6.1992 2.0586-1.0391 4.6602-1.5586 6.1992-1.0391 2.5781 1.0391 4.6602 1.5586 7.2383 2.5781 8.8008 3.1016 16.539 5.6797 23.781 10.34 7.7617 5.1797 15.52 10.34 22.762 14.48 4.1406 2.5781 6.1992 4.6602 8.2812 7.2383 5.6797 9.3008 11.898 15.52 20.16 19.141 2.5781 1.0391 4.6602 3.6211 7.2383 6.1992l1.5586 1.5586c4.6602 5.1797 10.859 11.379 21.199 11.379 1.5586 0 3.6211 1.0391 6.7188 2.5781 5.1797 3.1016 9.8203 6.1992 14.48 9.3008 4.1406 2.5781 7.7617 5.1797 11.898 7.2383 3.1016 2.0586 7.7617 2.0586 11.898 1.0391 4.1406-1.5586 6.7188-4.1406 8.2812-7.7617-1.1797-7.6406-3.7617-15.922-9.4414-19.02z" />
    <path
        d="m367.2 82.238c3.1016 1.5586 6.7188 2.5781 9.8203 2.5781 1.5586 0 3.6211 0 5.1797-1.0391 11.379-3.1016 17.578-15 14.48-26.898-1.5586-6.1992-5.6797-11.379-10.859-14.48-4.6602-2.5781-9.8203-3.1016-14.48-1.5586-4.6602 1.0391-9.3008 4.1406-11.898 8.8008-3.6211 5.1797-4.6602 11.898-3.1016 18.102 2.0586 6.2188 5.6797 11.379 10.859 14.5z" />
</svg>