<?xml version="1.0" standalone="no"?>
<!DOCTYPE svg PUBLIC "-//W3C//DTD SVG 20010904//EN"
 "http://www.w3.org/2000/svg">
<svg version="1.0" xmlns="http://www.w3.org/2000/svg"
 width="512pt" height="512pt" viewBox="0 0 512 512"
 preserveAspectRatio="xMidYMid meet" stroke="#b8e8fe"
fill="#b8e8fe" opacity="1">
  <style>
    path {
      stroke-width: 10px;
    }
  </style>
 <path d="m95.723 0.35156c7.9258 6.3438 16.121 12.898 32.281 12.898s24.355-6.5586 32.281-12.898c0.14844-0.11719 0.29297-0.23437 0.44141-0.35156h-1.4453c-7.668 6.1328-15.734 12.348-31.277 12.348-15.543 0-23.609-6.2148-31.277-12.348h-1.4453c0.14453 0.11719 0.29297 0.23438 0.44141 0.35156z"/>
 <path d="m223.72 0.35156c7.9258 6.3438 16.121 12.898 32.281 12.898s24.355-6.5586 32.281-12.898c0.14844-0.11719 0.29297-0.23437 0.44141-0.35156h-1.4492c-7.668 6.1328-15.734 12.348-31.277 12.348s-23.609-6.2148-31.277-12.348h-1.4453c0.14844 0.11719 0.29688 0.23438 0.44531 0.35156z"/>
 <path d="m32.723 0h-1.4453c-7.668 6.1328-15.734 12.348-31.277 12.348v0.90234c16.16 0 24.355-6.5586 32.281-12.898 0.14844-0.11719 0.29688-0.23437 0.44141-0.35156z"/>
 <path d="m479.72 0.35156c7.9258 6.3438 16.121 12.898 32.281 12.898v-0.90234c-15.543 0-23.602-6.2148-31.277-12.348h-1.4453c0.14844 0.11719 0.29688 0.23438 0.44141 0.35156z"/>
 <path d="m351.72 0.35156c7.9258 6.3438 16.121 12.898 32.281 12.898s24.355-6.5586 32.281-12.898c0.14844-0.11719 0.29297-0.23437 0.44141-0.35156h-1.4453c-7.668 6.1328-15.734 12.348-31.277 12.348-15.543 0-23.609-6.2148-31.277-12.348h-1.4492c0.14844 0.11719 0.29688 0.23438 0.44531 0.35156z"/>
 <path d="m448 11.133c-16.16 0-24.355 6.5586-32.281 12.898-7.8047 6.2461-15.879 12.703-31.719 12.703s-23.91-6.457-31.719-12.703c-7.9258-6.3438-16.121-12.898-32.281-12.898s-24.355 6.5586-32.281 12.898c-7.8047 6.2461-15.879 12.703-31.719 12.703s-23.91-6.457-31.719-12.703c-7.9258-6.3438-16.121-12.898-32.281-12.898s-24.355 6.5586-32.281 12.898c-7.8047 6.2461-15.879 12.703-31.719 12.703s-23.914-6.457-31.719-12.703c-7.9258-6.3438-16.121-12.898-32.281-12.898s-24.355 6.5586-32.281 12.898c-7.8086 6.2461-15.879 12.703-31.719 12.703v0.90234c16.16 0 24.355-6.5586 32.281-12.898 7.8086-6.2461 15.879-12.703 31.719-12.703s23.914 6.457 31.719 12.703c7.9258 6.3438 16.121 12.898 32.281 12.898s24.355-6.5586 32.281-12.898c7.8047-6.2461 15.879-12.703 31.719-12.703s23.91 6.457 31.719 12.703c7.9258 6.3438 16.121 12.898 32.281 12.898s24.355-6.5586 32.281-12.898c7.8047-6.2461 15.879-12.703 31.719-12.703s23.91 6.457 31.719 12.703c7.9258 6.3438 16.121 12.898 32.281 12.898s24.355-6.5586 32.281-12.898c7.8047-6.2461 15.879-12.703 31.719-12.703s23.91 6.457 31.719 12.703c7.9258 6.3438 16.121 12.898 32.281 12.898v-0.90234c-15.84 0-23.91-6.457-31.719-12.703-7.9297-6.3477-16.125-12.898-32.281-12.898z"/>
 <path d="m448 35.512c-16.16 0-24.355 6.5586-32.281 12.898-7.8047 6.2461-15.879 12.703-31.719 12.703s-23.91-6.457-31.719-12.703c-7.9258-6.3438-16.121-12.898-32.281-12.898s-24.355 6.5586-32.281 12.898c-7.8047 6.2461-15.879 12.703-31.719 12.703s-23.91-6.457-31.719-12.703c-7.9258-6.3438-16.121-12.898-32.281-12.898s-24.355 6.5586-32.281 12.898c-7.8047 6.2461-15.879 12.703-31.719 12.703s-23.914-6.457-31.719-12.703c-7.9258-6.3438-16.121-12.898-32.281-12.898s-24.355 6.5586-32.281 12.898c-7.8086 6.2461-15.879 12.703-31.719 12.703v0.90234c16.16 0 24.355-6.5586 32.281-12.898 7.8086-6.2461 15.879-12.703 31.719-12.703s23.914 6.457 31.719 12.703c7.9258 6.3438 16.121 12.898 32.281 12.898s24.355-6.5586 32.281-12.898c7.8047-6.2461 15.879-12.703 31.719-12.703s23.91 6.457 31.719 12.703c7.9258 6.3438 16.121 12.898 32.281 12.898s24.355-6.5586 32.281-12.898c7.8047-6.2461 15.879-12.703 31.719-12.703s23.91 6.457 31.719 12.703c7.9258 6.3438 16.121 12.898 32.281 12.898s24.355-6.5586 32.281-12.898c7.8047-6.2461 15.879-12.703 31.719-12.703s23.91 6.457 31.719 12.703c7.9258 6.3438 16.121 12.898 32.281 12.898v-0.90234c-15.84 0-23.91-6.457-31.719-12.703-7.9297-6.3438-16.125-12.898-32.281-12.898z"/>
 <path d="m448 59.895c-16.16 0-24.355 6.5586-32.281 12.898-7.8047 6.2461-15.879 12.703-31.719 12.703s-23.91-6.457-31.719-12.703c-7.9258-6.3438-16.121-12.898-32.281-12.898s-24.355 6.5586-32.281 12.898c-7.8047 6.2461-15.879 12.703-31.719 12.703s-23.91-6.457-31.719-12.703c-7.9258-6.3438-16.121-12.898-32.281-12.898s-24.355 6.5586-32.281 12.898c-7.8047 6.2461-15.879 12.703-31.719 12.703s-23.914-6.457-31.719-12.703c-7.9258-6.3438-16.121-12.898-32.281-12.898s-24.355 6.5586-32.281 12.898c-7.8086 6.2461-15.879 12.703-31.719 12.703v0.90234c16.16 0 24.355-6.5586 32.281-12.898 7.8086-6.2461 15.879-12.703 31.719-12.703s23.914 6.457 31.719 12.703c7.9258 6.3438 16.121 12.898 32.281 12.898s24.355-6.5586 32.281-12.898c7.8047-6.2461 15.879-12.703 31.719-12.703s23.91 6.457 31.719 12.703c7.9258 6.3438 16.121 12.898 32.281 12.898s24.355-6.5586 32.281-12.898c7.8047-6.2461 15.879-12.703 31.719-12.703s23.91 6.457 31.719 12.703c7.9258 6.3438 16.121 12.898 32.281 12.898s24.355-6.5586 32.281-12.898c7.8047-6.2461 15.879-12.703 31.719-12.703s23.91 6.457 31.719 12.703c7.9258 6.3438 16.121 12.898 32.281 12.898v-0.90234c-15.84 0-23.91-6.457-31.719-12.703-7.9297-6.3438-16.125-12.898-32.281-12.898z"/>
 <path d="m448 84.27c-16.16 0-24.355 6.5586-32.281 12.898-7.8047 6.2461-15.879 12.703-31.719 12.703s-23.91-6.457-31.719-12.703c-7.9258-6.3438-16.121-12.898-32.281-12.898s-24.355 6.5586-32.281 12.898c-7.8047 6.2461-15.879 12.703-31.719 12.703s-23.91-6.457-31.719-12.703c-7.9258-6.3438-16.121-12.898-32.281-12.898s-24.355 6.5586-32.281 12.898c-7.8047 6.2461-15.879 12.703-31.719 12.703s-23.914-6.457-31.719-12.703c-7.9258-6.3438-16.121-12.898-32.281-12.898s-24.355 6.5586-32.281 12.898c-7.8086 6.2461-15.879 12.703-31.719 12.703v0.90234c16.16 0 24.355-6.5586 32.281-12.898 7.8086-6.2461 15.879-12.703 31.719-12.703s23.914 6.457 31.719 12.703c7.9258 6.3438 16.121 12.898 32.281 12.898s24.355-6.5586 32.281-12.898c7.8047-6.2461 15.879-12.703 31.719-12.703s23.91 6.457 31.719 12.703c7.9258 6.3438 16.121 12.898 32.281 12.898s24.355-6.5586 32.281-12.898c7.8047-6.2461 15.879-12.703 31.719-12.703s23.91 6.457 31.719 12.703c7.9258 6.3438 16.121 12.898 32.281 12.898s24.355-6.5586 32.281-12.898c7.8047-6.2461 15.879-12.703 31.719-12.703s23.91 6.457 31.719 12.703c7.9258 6.3438 16.121 12.898 32.281 12.898v-0.90234c-15.84 0-23.91-6.457-31.719-12.703-7.9297-6.3398-16.125-12.898-32.281-12.898z"/>
 <path d="m448 108.65c-16.16 0-24.355 6.5586-32.281 12.898-7.8047 6.2461-15.879 12.703-31.719 12.703s-23.91-6.457-31.719-12.703c-7.9258-6.3438-16.121-12.898-32.281-12.898s-24.355 6.5586-32.281 12.898c-7.8047 6.2461-15.879 12.703-31.719 12.703s-23.91-6.457-31.719-12.703c-7.9258-6.3438-16.121-12.898-32.281-12.898s-24.355 6.5586-32.281 12.898c-7.8047 6.2461-15.879 12.703-31.719 12.703s-23.914-6.457-31.719-12.703c-7.9258-6.3438-16.121-12.898-32.281-12.898s-24.355 6.5586-32.281 12.898c-7.8086 6.2461-15.879 12.703-31.719 12.703v0.90234c16.16 0 24.355-6.5586 32.281-12.898 7.8086-6.2461 15.879-12.703 31.719-12.703s23.914 6.457 31.719 12.703c7.9258 6.3438 16.121 12.898 32.281 12.898s24.355-6.5586 32.281-12.898c7.8047-6.2461 15.879-12.703 31.719-12.703s23.91 6.457 31.719 12.703c7.9258 6.3438 16.121 12.898 32.281 12.898s24.355-6.5586 32.281-12.898c7.8047-6.2461 15.879-12.703 31.719-12.703s23.91 6.457 31.719 12.703c7.9258 6.3438 16.121 12.898 32.281 12.898s24.355-6.5586 32.281-12.898c7.8047-6.2461 15.879-12.703 31.719-12.703s23.91 6.457 31.719 12.703c7.9258 6.3438 16.121 12.898 32.281 12.898v-0.90234c-15.84 0-23.91-6.457-31.719-12.703-7.9297-6.3398-16.125-12.898-32.281-12.898z"/>
 <path d="m448 133.03c-16.16 0-24.355 6.5586-32.281 12.898-7.8047 6.2461-15.879 12.703-31.719 12.703s-23.91-6.457-31.719-12.703c-7.9258-6.3438-16.121-12.898-32.281-12.898s-24.355 6.5586-32.281 12.898c-7.8047 6.2461-15.879 12.703-31.719 12.703s-23.91-6.457-31.719-12.703c-7.9258-6.3438-16.121-12.898-32.281-12.898s-24.355 6.5586-32.281 12.898c-7.8047 6.2461-15.879 12.703-31.719 12.703s-23.914-6.457-31.719-12.703c-7.9258-6.3438-16.121-12.898-32.281-12.898s-24.355 6.5586-32.281 12.898c-7.8086 6.2461-15.879 12.703-31.719 12.703v0.90234c16.16 0 24.355-6.5586 32.281-12.898 7.8086-6.2461 15.879-12.703 31.719-12.703s23.914 6.457 31.719 12.703c7.9258 6.3438 16.121 12.898 32.281 12.898s24.355-6.5586 32.281-12.898c7.8047-6.2461 15.879-12.703 31.719-12.703s23.91 6.457 31.719 12.703c7.9258 6.3438 16.121 12.898 32.281 12.898s24.355-6.5586 32.281-12.898c7.8047-6.2461 15.879-12.703 31.719-12.703s23.91 6.457 31.719 12.703c7.9258 6.3438 16.121 12.898 32.281 12.898s24.355-6.5586 32.281-12.898c7.8047-6.2461 15.879-12.703 31.719-12.703s23.91 6.457 31.719 12.703c7.9258 6.3438 16.121 12.898 32.281 12.898v-0.90234c-15.84 0-23.91-6.457-31.719-12.703-7.9297-6.3398-16.125-12.898-32.281-12.898z"/>
 <path d="m448 157.41c-16.16 0-24.355 6.5586-32.281 12.898-7.8047 6.2461-15.879 12.703-31.719 12.703s-23.91-6.457-31.719-12.703c-7.9258-6.3438-16.121-12.898-32.281-12.898s-24.355 6.5586-32.281 12.898c-7.8047 6.2461-15.879 12.703-31.719 12.703s-23.91-6.457-31.719-12.703c-7.9258-6.3438-16.121-12.898-32.281-12.898s-24.355 6.5586-32.281 12.898c-7.8047 6.2461-15.879 12.703-31.719 12.703s-23.914-6.457-31.719-12.703c-7.9258-6.3438-16.121-12.898-32.281-12.898s-24.355 6.5586-32.281 12.898c-7.8086 6.2461-15.879 12.703-31.719 12.703v0.90234c16.16 0 24.355-6.5586 32.281-12.898 7.8086-6.2461 15.879-12.703 31.719-12.703s23.914 6.457 31.719 12.703c7.9258 6.3438 16.121 12.898 32.281 12.898s24.355-6.5586 32.281-12.898c7.8047-6.2461 15.879-12.703 31.719-12.703s23.91 6.457 31.719 12.703c7.9258 6.3438 16.121 12.898 32.281 12.898s24.355-6.5586 32.281-12.898c7.8047-6.2461 15.879-12.703 31.719-12.703s23.91 6.457 31.719 12.703c7.9258 6.3438 16.121 12.898 32.281 12.898s24.355-6.5586 32.281-12.898c7.8047-6.2461 15.879-12.703 31.719-12.703s23.91 6.457 31.719 12.703c7.9258 6.3438 16.121 12.898 32.281 12.898v-0.90234c-15.84 0-23.91-6.457-31.719-12.703-7.9297-6.3398-16.125-12.898-32.281-12.898z"/>
 <path d="m448 181.8c-16.16 0-24.355 6.5586-32.281 12.898-7.8047 6.2461-15.879 12.703-31.719 12.703s-23.91-6.457-31.719-12.703c-7.9258-6.3438-16.121-12.898-32.281-12.898s-24.355 6.5586-32.281 12.898c-7.8047 6.2461-15.879 12.703-31.719 12.703s-23.91-6.457-31.719-12.703c-7.9258-6.3438-16.121-12.898-32.281-12.898s-24.355 6.5586-32.281 12.898c-7.8047 6.2461-15.879 12.703-31.719 12.703s-23.914-6.457-31.719-12.703c-7.9258-6.3438-16.121-12.898-32.281-12.898s-24.355 6.5586-32.281 12.898c-7.8086 6.2461-15.879 12.703-31.719 12.703v0.90234c16.16 0 24.355-6.5586 32.281-12.898 7.8086-6.2461 15.879-12.703 31.719-12.703s23.914 6.457 31.719 12.703c7.9258 6.3438 16.121 12.898 32.281 12.898s24.355-6.5586 32.281-12.898c7.8047-6.2461 15.879-12.703 31.719-12.703s23.91 6.457 31.719 12.703c7.9258 6.3438 16.121 12.898 32.281 12.898s24.355-6.5586 32.281-12.898c7.8047-6.2461 15.879-12.703 31.719-12.703s23.91 6.457 31.719 12.703c7.9258 6.3438 16.121 12.898 32.281 12.898s24.355-6.5586 32.281-12.898c7.8047-6.2461 15.879-12.703 31.719-12.703s23.91 6.457 31.719 12.703c7.9258 6.3438 16.121 12.898 32.281 12.898v-0.90234c-15.84 0-23.91-6.457-31.719-12.703-7.9297-6.3398-16.125-12.898-32.281-12.898z"/>
 <path d="m448 206.18c-16.16 0-24.355 6.5586-32.281 12.898-7.8047 6.2461-15.879 12.703-31.719 12.703s-23.91-6.457-31.719-12.703c-7.9258-6.3438-16.121-12.898-32.281-12.898s-24.355 6.5586-32.281 12.898c-7.8047 6.2461-15.879 12.703-31.719 12.703s-23.91-6.457-31.719-12.703c-7.9258-6.3438-16.121-12.898-32.281-12.898s-24.355 6.5586-32.281 12.898c-7.8047 6.2461-15.879 12.703-31.719 12.703s-23.914-6.457-31.719-12.703c-7.9258-6.3438-16.121-12.898-32.281-12.898s-24.355 6.5586-32.281 12.898c-7.8086 6.2461-15.879 12.703-31.719 12.703v0.90234c16.16 0 24.355-6.5586 32.281-12.898 7.8086-6.2461 15.879-12.703 31.719-12.703s23.914 6.457 31.719 12.703c7.9258 6.3438 16.121 12.898 32.281 12.898s24.355-6.5586 32.281-12.898c7.8047-6.2461 15.879-12.703 31.719-12.703s23.91 6.457 31.719 12.703c7.9258 6.3438 16.121 12.898 32.281 12.898s24.355-6.5586 32.281-12.898c7.8047-6.2461 15.879-12.703 31.719-12.703s23.91 6.457 31.719 12.703c7.9258 6.3438 16.121 12.898 32.281 12.898s24.355-6.5586 32.281-12.898c7.8047-6.2461 15.879-12.703 31.719-12.703s23.91 6.457 31.719 12.703c7.9258 6.3438 16.121 12.898 32.281 12.898v-0.90234c-15.84 0-23.91-6.457-31.719-12.703-7.9297-6.3398-16.125-12.898-32.281-12.898z"/>
 <path d="m448 230.56c-16.16 0-24.355 6.5586-32.281 12.898-7.8047 6.2461-15.879 12.703-31.719 12.703s-23.91-6.457-31.719-12.703c-7.9258-6.3438-16.121-12.898-32.281-12.898s-24.355 6.5586-32.281 12.898c-7.8047 6.2461-15.879 12.703-31.719 12.703s-23.91-6.457-31.719-12.703c-7.9258-6.3438-16.121-12.898-32.281-12.898s-24.355 6.5586-32.281 12.898c-7.8047 6.2461-15.879 12.703-31.719 12.703s-23.914-6.457-31.719-12.703c-7.9258-6.3438-16.121-12.898-32.281-12.898s-24.355 6.5586-32.281 12.898c-7.8086 6.2461-15.879 12.703-31.719 12.703v0.90234c16.16 0 24.355-6.5586 32.281-12.898 7.8086-6.2461 15.879-12.703 31.719-12.703s23.914 6.457 31.719 12.703c7.9258 6.3438 16.121 12.898 32.281 12.898s24.355-6.5586 32.281-12.898c7.8047-6.2461 15.879-12.703 31.719-12.703s23.91 6.457 31.719 12.703c7.9258 6.3438 16.121 12.898 32.281 12.898s24.355-6.5586 32.281-12.898c7.8047-6.2461 15.879-12.703 31.719-12.703s23.91 6.457 31.719 12.703c7.9258 6.3438 16.121 12.898 32.281 12.898s24.355-6.5586 32.281-12.898c7.8047-6.2461 15.879-12.703 31.719-12.703s23.91 6.457 31.719 12.703c7.9258 6.3438 16.121 12.898 32.281 12.898v-0.90234c-15.84 0-23.91-6.457-31.719-12.703-7.9297-6.3398-16.125-12.898-32.281-12.898z"/>
 <path d="m448 254.94c-16.16 0-24.355 6.5586-32.281 12.898-7.8047 6.2461-15.879 12.703-31.719 12.703s-23.91-6.457-31.719-12.703c-7.9258-6.3438-16.121-12.898-32.281-12.898s-24.355 6.5586-32.281 12.898c-7.8047 6.2461-15.879 12.703-31.719 12.703s-23.91-6.457-31.719-12.703c-7.9258-6.3438-16.121-12.898-32.281-12.898s-24.355 6.5586-32.281 12.898c-7.8047 6.2461-15.879 12.703-31.719 12.703s-23.914-6.457-31.719-12.703c-7.9258-6.3438-16.121-12.898-32.281-12.898s-24.355 6.5586-32.281 12.898c-7.8086 6.2461-15.879 12.703-31.719 12.703v0.90234c16.16 0 24.355-6.5586 32.281-12.898 7.8086-6.2461 15.879-12.703 31.719-12.703s23.914 6.457 31.719 12.703c7.9258 6.3438 16.121 12.898 32.281 12.898s24.355-6.5586 32.281-12.898c7.8047-6.2461 15.879-12.703 31.719-12.703s23.91 6.457 31.719 12.703c7.9258 6.3438 16.121 12.898 32.281 12.898s24.355-6.5586 32.281-12.898c7.8047-6.2461 15.879-12.703 31.719-12.703s23.91 6.457 31.719 12.703c7.9258 6.3438 16.121 12.898 32.281 12.898s24.355-6.5586 32.281-12.898c7.8047-6.2461 15.879-12.703 31.719-12.703s23.91 6.457 31.719 12.703c7.9258 6.3438 16.121 12.898 32.281 12.898v-0.90234c-15.84 0-23.91-6.457-31.719-12.703-7.9297-6.3477-16.125-12.898-32.281-12.898z"/>
 <path d="m448 279.32c-16.16 0-24.355 6.5586-32.281 12.898-7.8047 6.2461-15.879 12.703-31.719 12.703s-23.91-6.457-31.719-12.703c-7.9258-6.3438-16.121-12.898-32.281-12.898s-24.355 6.5586-32.281 12.898c-7.8047 6.2461-15.879 12.703-31.719 12.703s-23.91-6.457-31.719-12.703c-7.9258-6.3438-16.121-12.898-32.281-12.898s-24.355 6.5586-32.281 12.898c-7.8047 6.2461-15.879 12.703-31.719 12.703s-23.914-6.457-31.719-12.703c-7.9258-6.3438-16.121-12.898-32.281-12.898s-24.355 6.5586-32.281 12.898c-7.8086 6.2461-15.879 12.703-31.719 12.703v0.90234c16.16 0 24.355-6.5586 32.281-12.898 7.8086-6.2461 15.879-12.703 31.719-12.703s23.914 6.457 31.719 12.703c7.9258 6.3438 16.121 12.898 32.281 12.898s24.355-6.5586 32.281-12.898c7.8047-6.2461 15.879-12.703 31.719-12.703s23.91 6.457 31.719 12.703c7.9258 6.3438 16.121 12.898 32.281 12.898s24.355-6.5586 32.281-12.898c7.8047-6.2461 15.879-12.703 31.719-12.703s23.91 6.457 31.719 12.703c7.9258 6.3438 16.121 12.898 32.281 12.898s24.355-6.5586 32.281-12.898c7.8047-6.2461 15.879-12.703 31.719-12.703s23.91 6.457 31.719 12.703c7.9258 6.3438 16.121 12.898 32.281 12.898v-0.90234c-15.84 0-23.91-6.457-31.719-12.703-7.9297-6.3438-16.125-12.898-32.281-12.898z"/>
 <path d="m448 303.7c-16.16 0-24.355 6.5586-32.281 12.898-7.8047 6.2461-15.879 12.703-31.719 12.703s-23.91-6.457-31.719-12.703c-7.9258-6.3438-16.121-12.898-32.281-12.898s-24.355 6.5586-32.281 12.898c-7.8047 6.2461-15.879 12.703-31.719 12.703s-23.91-6.457-31.719-12.703c-7.9258-6.3438-16.121-12.898-32.281-12.898s-24.355 6.5586-32.281 12.898c-7.8047 6.2461-15.879 12.703-31.719 12.703s-23.914-6.457-31.719-12.703c-7.9258-6.3438-16.121-12.898-32.281-12.898s-24.355 6.5586-32.281 12.898c-7.8086 6.2461-15.879 12.703-31.719 12.703v0.90234c16.16 0 24.355-6.5586 32.281-12.898 7.8086-6.2461 15.879-12.703 31.719-12.703s23.914 6.457 31.719 12.703c7.9258 6.3438 16.121 12.898 32.281 12.898s24.355-6.5586 32.281-12.898c7.8047-6.2461 15.879-12.703 31.719-12.703s23.91 6.457 31.719 12.703c7.9258 6.3438 16.121 12.898 32.281 12.898s24.355-6.5586 32.281-12.898c7.8047-6.2461 15.879-12.703 31.719-12.703s23.91 6.457 31.719 12.703c7.9258 6.3438 16.121 12.898 32.281 12.898s24.355-6.5586 32.281-12.898c7.8047-6.2461 15.879-12.703 31.719-12.703s23.91 6.457 31.719 12.703c7.9258 6.3438 16.121 12.898 32.281 12.898v-0.90234c-15.84 0-23.91-6.457-31.719-12.703-7.9297-6.3438-16.125-12.898-32.281-12.898z"/>
 <path d="m448 328.08c-16.16 0-24.355 6.5586-32.281 12.898-7.8047 6.2461-15.879 12.703-31.719 12.703s-23.91-6.457-31.719-12.703c-7.9258-6.3438-16.121-12.898-32.281-12.898s-24.355 6.5586-32.281 12.898c-7.8047 6.2461-15.879 12.703-31.719 12.703s-23.91-6.457-31.719-12.703c-7.9258-6.3438-16.121-12.898-32.281-12.898s-24.355 6.5586-32.281 12.898c-7.8047 6.2461-15.879 12.703-31.719 12.703s-23.914-6.457-31.719-12.703c-7.9258-6.3438-16.121-12.898-32.281-12.898s-24.355 6.5586-32.281 12.898c-7.8086 6.2461-15.879 12.703-31.719 12.703v0.90234c16.16 0 24.355-6.5586 32.281-12.898 7.8086-6.2461 15.879-12.703 31.719-12.703s23.914 6.457 31.719 12.703c7.9258 6.3438 16.121 12.898 32.281 12.898s24.355-6.5586 32.281-12.898c7.8047-6.2461 15.879-12.703 31.719-12.703s23.91 6.457 31.719 12.703c7.9258 6.3438 16.121 12.898 32.281 12.898s24.355-6.5586 32.281-12.898c7.8047-6.2461 15.879-12.703 31.719-12.703s23.91 6.457 31.719 12.703c7.9258 6.3438 16.121 12.898 32.281 12.898s24.355-6.5586 32.281-12.898c7.8047-6.2461 15.879-12.703 31.719-12.703s23.91 6.457 31.719 12.703c7.9258 6.3438 16.121 12.898 32.281 12.898v-0.90234c-15.84 0-23.91-6.457-31.719-12.703-7.9297-6.3398-16.125-12.898-32.281-12.898z"/>
 <path d="m448 352.46c-16.16 0-24.355 6.5586-32.281 12.898-7.8047 6.2461-15.879 12.703-31.719 12.703s-23.91-6.457-31.719-12.703c-7.9258-6.3438-16.121-12.898-32.281-12.898s-24.355 6.5586-32.281 12.898c-7.8047 6.2461-15.879 12.703-31.719 12.703s-23.91-6.457-31.719-12.703c-7.9258-6.3438-16.121-12.898-32.281-12.898s-24.355 6.5586-32.281 12.898c-7.8047 6.2461-15.879 12.703-31.719 12.703s-23.914-6.457-31.719-12.703c-7.9258-6.3438-16.121-12.898-32.281-12.898s-24.355 6.5586-32.281 12.898c-7.8086 6.2461-15.879 12.703-31.719 12.703v0.90234c16.16 0 24.355-6.5586 32.281-12.898 7.8086-6.2461 15.879-12.703 31.719-12.703s23.914 6.457 31.719 12.703c7.9258 6.3438 16.121 12.898 32.281 12.898s24.355-6.5586 32.281-12.898c7.8047-6.2461 15.879-12.703 31.719-12.703s23.91 6.457 31.719 12.703c7.9258 6.3438 16.121 12.898 32.281 12.898s24.355-6.5586 32.281-12.898c7.8047-6.2461 15.879-12.703 31.719-12.703s23.91 6.457 31.719 12.703c7.9258 6.3438 16.121 12.898 32.281 12.898s24.355-6.5586 32.281-12.898c7.8047-6.2461 15.879-12.703 31.719-12.703s23.91 6.457 31.719 12.703c7.9258 6.3438 16.121 12.898 32.281 12.898v-0.90234c-15.84 0-23.91-6.457-31.719-12.703-7.9297-6.3398-16.125-12.898-32.281-12.898z"/>
 <path d="m448 376.84c-16.16 0-24.355 6.5586-32.281 12.898-7.8047 6.2461-15.879 12.703-31.719 12.703s-23.91-6.457-31.719-12.703c-7.9258-6.3438-16.121-12.898-32.281-12.898s-24.355 6.5586-32.281 12.898c-7.8047 6.2461-15.879 12.703-31.719 12.703s-23.91-6.457-31.719-12.703c-7.9258-6.3438-16.121-12.898-32.281-12.898s-24.355 6.5586-32.281 12.898c-7.8047 6.2461-15.879 12.703-31.719 12.703s-23.914-6.457-31.719-12.703c-7.9258-6.3438-16.121-12.898-32.281-12.898s-24.355 6.5586-32.281 12.898c-7.8086 6.2461-15.879 12.703-31.719 12.703v0.90234c16.16 0 24.355-6.5586 32.281-12.898 7.8086-6.2461 15.879-12.703 31.719-12.703s23.914 6.457 31.719 12.703c7.9258 6.3438 16.121 12.898 32.281 12.898s24.355-6.5586 32.281-12.898c7.8047-6.2461 15.879-12.703 31.719-12.703s23.91 6.457 31.719 12.703c7.9258 6.3438 16.121 12.898 32.281 12.898s24.355-6.5586 32.281-12.898c7.8047-6.2461 15.879-12.703 31.719-12.703s23.91 6.457 31.719 12.703c7.9258 6.3438 16.121 12.898 32.281 12.898s24.355-6.5586 32.281-12.898c7.8047-6.2461 15.879-12.703 31.719-12.703s23.91 6.457 31.719 12.703c7.9258 6.3438 16.121 12.898 32.281 12.898v-0.90234c-15.84 0-23.91-6.457-31.719-12.703-7.9297-6.3398-16.125-12.898-32.281-12.898z"/>
 <path d="m448 401.22c-16.16 0-24.355 6.5586-32.281 12.898-7.8047 6.2461-15.879 12.703-31.719 12.703s-23.91-6.457-31.719-12.703c-7.9258-6.3438-16.121-12.898-32.281-12.898s-24.355 6.5586-32.281 12.898c-7.8047 6.2461-15.879 12.703-31.719 12.703s-23.91-6.457-31.719-12.703c-7.9258-6.3438-16.121-12.898-32.281-12.898s-24.355 6.5586-32.281 12.898c-7.8047 6.2461-15.879 12.703-31.719 12.703s-23.914-6.457-31.719-12.703c-7.9258-6.3438-16.121-12.898-32.281-12.898s-24.355 6.5586-32.281 12.898c-7.8086 6.2461-15.879 12.703-31.719 12.703v0.90234c16.16 0 24.355-6.5586 32.281-12.898 7.8086-6.2461 15.879-12.703 31.719-12.703s23.914 6.457 31.719 12.703c7.9258 6.3438 16.121 12.898 32.281 12.898s24.355-6.5586 32.281-12.898c7.8047-6.2461 15.879-12.703 31.719-12.703s23.91 6.457 31.719 12.703c7.9258 6.3438 16.121 12.898 32.281 12.898s24.355-6.5586 32.281-12.898c7.8047-6.2461 15.879-12.703 31.719-12.703s23.91 6.457 31.719 12.703c7.9258 6.3438 16.121 12.898 32.281 12.898s24.355-6.5586 32.281-12.898c7.8047-6.2461 15.879-12.703 31.719-12.703s23.91 6.457 31.719 12.703c7.9258 6.3438 16.121 12.898 32.281 12.898v-0.90234c-15.84 0-23.91-6.457-31.719-12.703-7.9297-6.3398-16.125-12.898-32.281-12.898z"/>
 <path d="m448 425.61c-16.16 0-24.355 6.5586-32.281 12.898-7.8047 6.2461-15.879 12.703-31.719 12.703s-23.91-6.457-31.719-12.703c-7.9258-6.3438-16.121-12.898-32.281-12.898s-24.355 6.5586-32.281 12.898c-7.8047 6.2461-15.879 12.703-31.719 12.703s-23.91-6.457-31.719-12.703c-7.9258-6.3438-16.121-12.898-32.281-12.898s-24.355 6.5586-32.281 12.898c-7.8047 6.2461-15.879 12.703-31.719 12.703s-23.914-6.457-31.719-12.703c-7.9258-6.3438-16.121-12.898-32.281-12.898s-24.355 6.5586-32.281 12.898c-7.8086 6.2461-15.879 12.703-31.719 12.703v0.90234c16.16 0 24.355-6.5586 32.281-12.898 7.8086-6.2461 15.879-12.703 31.719-12.703s23.914 6.457 31.719 12.703c7.9258 6.3438 16.121 12.898 32.281 12.898s24.355-6.5586 32.281-12.898c7.8047-6.2461 15.879-12.703 31.719-12.703s23.91 6.457 31.719 12.703c7.9258 6.3438 16.121 12.898 32.281 12.898s24.355-6.5586 32.281-12.898c7.8047-6.2461 15.879-12.703 31.719-12.703s23.91 6.457 31.719 12.703c7.9258 6.3438 16.121 12.898 32.281 12.898s24.355-6.5586 32.281-12.898c7.8047-6.2461 15.879-12.703 31.719-12.703s23.91 6.457 31.719 12.703c7.9258 6.3438 16.121 12.898 32.281 12.898v-0.90234c-15.84 0-23.91-6.457-31.719-12.703-7.9297-6.3398-16.125-12.898-32.281-12.898z"/>
 <path d="m448 449.99c-16.16 0-24.355 6.5586-32.281 12.898-7.8047 6.2461-15.879 12.703-31.719 12.703s-23.91-6.457-31.719-12.703c-7.9258-6.3438-16.121-12.898-32.281-12.898s-24.355 6.5586-32.281 12.898c-7.8047 6.2461-15.879 12.703-31.719 12.703s-23.91-6.457-31.719-12.703c-7.9258-6.3438-16.121-12.898-32.281-12.898s-24.355 6.5586-32.281 12.898c-7.8047 6.2461-15.879 12.703-31.719 12.703s-23.914-6.457-31.719-12.703c-7.9258-6.3438-16.121-12.898-32.281-12.898s-24.355 6.5586-32.281 12.898c-7.8086 6.2461-15.879 12.703-31.719 12.703v0.90234c16.16 0 24.355-6.5586 32.281-12.898 7.8086-6.2461 15.879-12.703 31.719-12.703s23.914 6.457 31.719 12.703c7.9258 6.3438 16.121 12.898 32.281 12.898s24.355-6.5586 32.281-12.898c7.8047-6.2461 15.879-12.703 31.719-12.703s23.91 6.457 31.719 12.703c7.9258 6.3438 16.121 12.898 32.281 12.898s24.355-6.5586 32.281-12.898c7.8047-6.2461 15.879-12.703 31.719-12.703s23.91 6.457 31.719 12.703c7.9258 6.3438 16.121 12.898 32.281 12.898s24.355-6.5586 32.281-12.898c7.8047-6.2461 15.879-12.703 31.719-12.703s23.91 6.457 31.719 12.703c7.9258 6.3438 16.121 12.898 32.281 12.898v-0.90234c-15.84 0-23.91-6.457-31.719-12.703-7.9297-6.3398-16.125-12.898-32.281-12.898z"/>
 <path d="m448 474.37c-16.16 0-24.355 6.5586-32.281 12.898-7.8047 6.2461-15.879 12.703-31.719 12.703s-23.91-6.457-31.719-12.703c-7.9258-6.3438-16.121-12.898-32.281-12.898s-24.355 6.5586-32.281 12.898c-7.8047 6.2461-15.879 12.703-31.719 12.703s-23.91-6.457-31.719-12.703c-7.9258-6.3438-16.121-12.898-32.281-12.898s-24.355 6.5586-32.281 12.898c-7.8047 6.2461-15.879 12.703-31.719 12.703s-23.914-6.457-31.719-12.703c-7.9258-6.3438-16.121-12.898-32.281-12.898s-24.355 6.5586-32.281 12.898c-7.8086 6.2461-15.879 12.703-31.719 12.703v0.90234c16.16 0 24.355-6.5586 32.281-12.898 7.8086-6.2461 15.879-12.703 31.719-12.703s23.914 6.457 31.719 12.703c7.9258 6.3438 16.121 12.898 32.281 12.898s24.355-6.5586 32.281-12.898c7.8047-6.2461 15.879-12.703 31.719-12.703s23.91 6.457 31.719 12.703c7.9258 6.3438 16.121 12.898 32.281 12.898s24.355-6.5586 32.281-12.898c7.8047-6.2461 15.879-12.703 31.719-12.703s23.91 6.457 31.719 12.703c7.9258 6.3438 16.121 12.898 32.281 12.898s24.355-6.5586 32.281-12.898c7.8047-6.2461 15.879-12.703 31.719-12.703s23.91 6.457 31.719 12.703c7.9258 6.3438 16.121 12.898 32.281 12.898v-0.90234c-15.84 0-23.91-6.457-31.719-12.703-7.9297-6.3398-16.125-12.898-32.281-12.898z"/>
 <path d="m96.285 511.65c-7.9258-6.3438-16.121-12.898-32.281-12.898s-24.355 6.5586-32.281 12.898c-0.14844 0.11719-0.29297 0.23437-0.44141 0.35156h1.4492c7.668-6.1328 15.734-12.348 31.277-12.348 15.543 0 23.609 6.2148 31.277 12.348h1.4492c-0.15625-0.11719-0.30078-0.23438-0.44922-0.35156z"/>
 <path d="m448 498.75c-16.16 0-24.355 6.5586-32.281 12.898-0.14844 0.11719-0.29297 0.23437-0.44141 0.35156h1.4492c7.668-6.1328 15.734-12.348 31.277-12.348 15.543 0 23.602 6.2148 31.273 12.348h1.4453c-0.14844-0.11719-0.29297-0.23438-0.44141-0.35156-7.9297-6.3398-16.125-12.898-32.281-12.898z"/>
 <path d="m224.29 511.65c-7.9258-6.3438-16.121-12.898-32.281-12.898s-24.355 6.5586-32.281 12.898c-0.14844 0.11719-0.29297 0.23437-0.44141 0.35156h1.4492c7.668-6.1328 15.734-12.348 31.277-12.348 15.543 0 23.602 6.2148 31.277 12.348h1.4492c-0.15234-0.11719-0.30078-0.23438-0.44922-0.35156z"/>
 <path d="m352.29 511.65c-7.9258-6.3438-16.121-12.898-32.281-12.898s-24.355 6.5586-32.281 12.898c-0.14844 0.11719-0.29297 0.23437-0.44141 0.35156h1.4492c7.668-6.1328 15.734-12.348 31.277-12.348 15.543 0 23.602 6.2148 31.277 12.348h1.4492c-0.15625-0.11719-0.30078-0.23438-0.44922-0.35156z"/>
</svg>
