<?xml version="1.0" encoding="UTF-8"?>
<svg width="512pt" height="512pt" version="1.1" viewBox="150 150 200 200" xmlns="http://www.w3.org/2000/svg"
    fill="currentColor" transform="scale(1.5)">
    <path
        d="m362.13 147.98c-8.7578 8.4023-20.996 11.176-32.922 14.973-15.004 4.2344-33.117 8.4336-51.75 14.367-1.8945 7.3711-1.9531 13.387-2.5156 21.805-1.7852-9.3281-2.2969-15.348-1.3086-20.598-2.3594 0.77734-4.6836 1.6719-7.0469 2.5117-44.762 15.883-89.367 42.871-100.48 105.71 0.066406 3.3477 0.62109 6.9336 2.3164 10.047 1.8516 1.7969 0.25781 5.5859-2.3164 5.5273h-7.9531c3.0156 2.7773 6.2344 5.4883 11.277 8.9414-8.7422 15.922-16.371 33.406-23.055 52.754l9.6641-6.4297c4.4688-14.125 10.477-28.531 18.324-42.906 1.4219-2.6055 2.8867-5.2422 4.4297-7.8359-1.5312 2.6055-3.0234 5.2227-4.4297 7.8359 2.9883 1.6758 7.457 3.2852 12.484 4.1211 4.7109 0.78125 9.6562 0.80078 14.297 0.40234l-11.375-11.355c-1.8906-2.0156 0.44141-5.9922 3.1211-5.3242 11.023 3.1289 19.039 3.7734 29.398 1.1055 10.359-2.668 23.07-9 42.387-20.195 5.293-3.1562 21.379-13.125 39.164-27.23-19.332-1.8867-24.074-0.34375-44.301-9.043 19.977 4.1016 25.754 3.5117 47.922 6.1289 7.7969-6.3594 15.777-13.438 23.258-21.102 12.949-13.262 24.234-28.109 30.305-43.309 5.4375-13.617 6.3867-27.285 1.1094-40.895zm-38.156 40.996c-5.8398 2.2695-11.422 4.6719-16.914 7.1328-56.324 20.887-97.727 52.008-127.86 98.773-1.4336 2.2266-2.8438 4.4336-4.2305 6.7305 1.3633-2.293 2.8125-4.5078 4.2305-6.7305 33.043-51.934 79.633-84.891 144.78-105.91z" />
</svg>