<?xml version="1.0" encoding="UTF-8"?>
<svg width="512pt" height="512pt" version="1.1" viewBox="0 0 512 512" xmlns="http://www.w3.org/2000/svg"
    fill="currentColor" transform="scale(1.5)">
    <path
        d="m126.69 386.42c-16.977-15.566-30.742-32.656-38.758-48.137-4.3516-8.3984-6.75-15.902-7.1797-22.199l-9.9922 10.891c-4.5039 4.9141-3.0508 15.523 3.9844 29.113 7.6602 14.797 20.922 31.23 37.324 46.273 35.359 32.418 69.836 44.277 78.676 34.641l10.105-11.027c-0.16406 0-0.31641 0.019532-0.48047 0.019532-18.117-0.007813-46.543-14.691-73.68-39.574z" />
    <path
        d="m227.71 283.18-5.4062-6.0625-3.6875-5.1914c-2.2734 2.8555-4.5781 5.6836-6.9023 8.5078-3.2266 3.9336-6.4414 7.875-9.7891 11.703-6.6875 7.668-13.188 15.492-20.191 22.938-6.8906 7.4531-14.406 15.164-23.766 20.562-4.6484 2.7227-9.8828 4.5859-15.238 5.3242-5.3672 0.69531-10.812 0.09375-15.719-1.7734 10.262-0.29688 19.875-3.0195 28.129-8.293 0.36719-0.22656 0.70703-0.48047 1.0664-0.71875-32.062-25.414-58.707-32.34-66.262-24.105-4.5156 4.9141-3.0625 15.523 3.9727 29.113 7.6602 14.797 20.922 31.23 37.324 46.273 35.277 32.34 69.672 44.215 78.602 34.703l0.0625-0.0625c0-0.011719 0.011718-0.011719 0.019531-0.011719 7.3711-8.0898-1.5781-30.68-21.27-54.375-5.8984 7.5078-8.7656 16.672-11.172 26.43-0.93359-5.0391-0.96094-10.25 0.14453-15.402 1.1055-5.1289 3.3594-10.129 6.4102-14.387 5.9922-8.6641 13.516-15.328 20.051-22.723 6.6875-7.3125 13.699-14.305 20.531-21.473 3.4102-3.5938 6.9336-7.0742 10.445-10.566 2.6211-2.6211 5.2539-5.2227 7.9062-7.8047-3.2578-2.1914-6.3906-4.5664-9.3711-7.1172-1.957-1.8398-3.9961-3.5703-5.8906-5.4883z" />
    <path
        d="m429.95 221.09c-5.2344-0.28516-10.117-1.5781-14.848-3.1328-9.4414-3.1758-18.188-7.6602-26.613-12.586-16.805-9.9531-32.215-21.926-46.613-34.961-14.297-13.137-27.547-27.484-38.965-43.336-5.6406-7.9648-10.855-16.324-14.828-25.469-1.9453-4.5859-3.6562-9.3477-4.3945-14.551-0.12109-0.89062-0.20312-1.8008-0.25781-2.7227-10.812 12.504-21.473 25.16-31.848 38.012-6.4922 8.0586-12.902 16.188-19.035 24.484l-4.5039 6.2578c-1.4844 2.0977-2.8867 4.2305-4.332 6.3477-1.3633 2.1406-2.7227 4.2891-3.9727 6.4609-1.0742 2.2305-2.3867 4.3125-3.2344 6.6758-3.8711 9.1953-6.0625 19.16-7.1172 29.195-1.0156 10.047-0.77734 20.246 0.80859 30.199 3.125 19.836 11.98 39.086 27.598 51.836 15.246 13.086 34.652 21.156 54.66 23.266 20.051 1.957 40.59-2.1523 58.348-11.703 8.7656-4.8438 17.09-10.988 25.168-17.324 8.0078-6.4531 15.758-13.25 23.254-20.316 7.5156-7.0547 14.727-14.457 21.781-21.996 4.4844-4.8008 8.8867-9.707 13.18-14.684-1.4258 0.10547-2.8398 0.10547-4.2344 0.046875zm-186.29-50.074c1.2891-4.0234 3.1445-7.6914 5.2227-11.184 2.0898-3.4805 4.4531-6.7773 7.0156-9.9023 2.5508-3.1328 5.3438-6.0625 8.375-8.7773 3.043-2.6914 6.2891-5.2109 10.074-7.1484-1.7305 3.8828-3.8516 7.3203-6.0938 10.648-2.2539 3.3164-4.668 6.4805-7.2305 9.5352-2.5508 3.0508-5.2344 6-8.0586 8.8359-2.875 2.8086-5.8359 5.5742-9.3047 7.9922zm71.41 80.504-56.977 3.7188c-1.2383 0.082031-2.3125-0.85938-2.3945-2.0977-0.011718-0.09375 0-0.20312 0-0.29688 1.2578-19.457 2.8047-39.332 4.6914-59.074 19.711-1.9062 39.586-3.4922 59.062-4.793 1.2891-0.082031 2.418 0.89062 2.5 2.1914 0.011719 0.10156 0.011719 0.21484 0 0.31641l-3.8203 56.965c-0.10156 1.668-1.4414 2.9609-3.0625 3.0703zm60.02-5.5703c-4.7617 5.293-9.9141 10.27-15.504 14.727-5.582 4.4648-11.539 8.4883-17.848 11.887-6.3398 3.3398-13.086 6-20.07 7.4453 6.1328-3.6875 12-7.332 17.676-11.348 5.6016-4.1055 11.121-8.2344 16.457-12.656 5.2852-4.4766 10.598-8.9297 15.84-13.539 5.2422-4.6094 10.508-9.2148 15.996-13.805-3.4531 6.2812-7.8164 11.965-12.547 17.289z" />
    <path
        d="m288.77 231.58c2.4688 0.09375 5.0195-0.71875 6.9531-2.457 1.9453-1.7188 3.1523-4.2617 3.2852-6.9531 0.12109-2.6914-0.92187-5.4258-2.8555-7.3711-1.9062-1.9766-4.668-3.0625-7.3711-2.9297-2.7148 0.15234-5.2539 1.4141-6.9219 3.3906-1.668 1.9648-2.5508 4.4648-2.3867 6.9219 0.21094 4.8633 4.2773 9.1914 9.2969 9.3984z" />
    <path
        d="m260.38 250.54 51.324-5.4375 5.3438-51.219c-17.469 1.8242-34.621 3.3906-51.895 4.6602-1.3008 17.281-2.9102 34.473-4.7734 51.996zm12.645-28.375c0.14453-4.1055 1.957-8.1289 4.9453-10.793 2.9609-2.6836 6.9336-4.1172 10.793-3.9531 3.8594 0.10156 7.6094 1.7188 10.332 4.4023 2.7227 2.6836 4.3711 6.4609 4.4766 10.332 0.15234 3.8828-1.3398 7.8438-4.0547 10.762-2.6914 2.918-6.6562 4.8008-10.762 4.875-4.0742 0.11328-8.293-1.4336-11.254-4.3828-3-2.8984-4.5859-7.1484-4.4766-11.242z" />
    <path
        d="m443.54 200.85c-0.60547-4.3711-2.1523-8.7773-3.9844-13.035-3.7188-8.5508-8.7656-16.629-14.242-24.359-11.07-15.434-24.062-29.562-38.094-42.496-14.121-12.82-29.266-24.617-45.609-34.305-8.1914-4.7734-16.691-9.082-25.527-12.043-4.4023-1.4453-8.9297-2.5898-13.332-2.8164-4.3633-0.27734-8.7031 0.5625-11.008 3.1758-2.3672 2.5586-2.7656 6.9219-2.0586 11.223 0.64453 4.332 2.2305 8.7031 4.0859 12.934 3.7773 8.4805 8.8984 16.488 14.418 24.156 11.109 15.352 24.227 29.285 38.195 42.199 14 12.883 29.039 24.738 45.27 34.527 8.1211 4.8438 16.559 9.2266 25.344 12.258 4.3828 1.4844 8.8789 2.6719 13.262 2.9375 4.3516 0.32812 8.6836-0.44922 11.051-3.0625 2.4453-2.5469 2.8945-6.9609 2.2305-11.293zm-53.605-37.109c-3.2578-3.1836-6.4102-6.4609-9.7188-9.5742-3.2461-3.1758-6.5117-6.3398-9.8711-9.4102-3.2773-3.1523-6.6445-6.207-10.016-9.2461-3.3281-3.1016-6.7891-6.0508-10.18-9.1016l-20.848-17.949c8.4688 3.8008 16.414 8.6406 23.973 14 3.8203 2.6328 7.4336 5.5391 11.051 8.4258 3.5742 2.9492 7.0234 6.043 10.445 9.1641 3.3398 3.2148 6.6367 6.4609 9.8086 9.8398 3.1133 3.4297 6.2461 6.8516 9.1133 10.496 5.8164 7.207 11.133 14.867 15.359 23.133-6.4102-6.7031-12.699-13.305-19.117-19.777z" />
</svg>