<?xml version="1.0" encoding="UTF-8"?>
<svg width="512pt" height="512pt" version="1.1" viewBox="0 0 512 512" fill="currentColor" transform="scale(1.5)"
    xmlns="http://www.w3.org/2000/svg">
    <path
        d="m25.82 439.24c18.059-20.32 96-102.76 276.28-230.24 6.8008 6.4609 33.801 32.66 41.758 47.781-50 37.621-232.8 171.36-318.04 182.46zm313.46-211.28 15.398 20.621c-1.4609 1.1211-3.6602 2.8008-6.5391 4.9805-8.7383-15.801-34.52-40.879-42-48 6.3008-6.1602 12.52-12.082 18.66-17.781 3.3398 2 15.98 10.422 20.422 25.738-3.8594 5.1016-6.0781 9.7383-5.9805 13.602zm9.9219-19.238c-5.1211-13.621-15.621-21.602-20.359-24.66 62.48-57.32 116.08-90.996 140.38-104.96 1.3984 3.3594 3.7188 11.738-1.0391 24.34-2 5.2617-3.8594 9.3984-5.5 13.039-3.4414 7.6016-5.8008 12.918-4.6992 19.422-19.461 7.3594-83.902 45.16-108.78 72.82zm130.72-82.34c-0.039063 0.058594-4.6211 5.3789-16.84 8.0195-0.57812-4.6602 1.2188-8.7188 4.3984-15.762 1.6016-3.5391 3.5781-7.9414 5.6406-13.34 5.5586-14.719 2.4805-24.84 0.71875-28.82 2.9609-1.6602 5.2812-2.9219 6.8594-3.7383 3.0586 7.6016 11.02 31.559-0.78125 53.641z" />
</svg>