<?xml version="1.0" encoding="UTF-8"?>
<svg width="512pt" height="512pt" version="1.1" viewBox="0 0 512 512" xmlns="http://www.w3.org/2000/svg"
    fill="currentColor" transform="scale(1.5)">
    <path
        d="m370.75 103.65s-8.1523 2.082-9.9492-4.4531c-24.773-90.418-97.879-84.289-97.172-84.082 25.973 7.6758 46.527 35.266 55.383 57.422 7.7773 19.434 9.3594 20.578-7.2695-5.5547-52.793-83.027-137.61-47.359-137.61-47.359 66.121-1.9219 84.598 50.078 65.09 95.191-16.379 37.887-4.9766 69.059-4.9766 69.059-104.61-25.586-142.08 71.055-142.08 71.055 1.8281 4.9922 4.5273 11.828 8.1133 19.488l82.113 224.34c0.56641 1.5547 2.0391 2.5195 3.6055 2.5195 0.43359 0 0.88672-0.078125 1.3203-0.23438 1.9922-0.73047 3.0156-2.9336 2.2852-4.9258l-68.383-186.85c18.074 23.168 44.043 41.047 78.562 28.41 49.898-18.262 52.609-54.355 68.023-60.691 25.645-8.0469 38.727 21.621 90.09 2.8203 60.848-22.277 36-112.92 12.848-176.16zm-191.79 182.28c-23.891 6.707-37.797-16.902-37.797-16.902 14.617-23.789 32.973-27.629 45.363-28.211 21.449-1.0234 44.426 14.465 44.426 14.465-13.051 5.4688-28.109 23.945-51.992 30.648zm163.41-59.812c-22.562 10.312-46 5.9102-59.496 10.168 0 0 7.5469-26.664 24.586-39.73 9.8516-7.5586 26.344-16.473 52.859-7.7422 0-0.003906 4.6133 27-17.949 37.305z" />
</svg>