<?xml version="1.0" encoding="UTF-8"?>
<svg width="512pt" height="512pt" version="1.1" viewBox="0 0 512 512" xmlns="http://www.w3.org/2000/svg"
    fill="currentColor" transform="scale(1.5)">
    <path
        d="m480 307.9c-13.102 52.262-44.359 98.16-88.16 129.54-43.801 31.379-97.32 46.18-151.02 41.758-53.699-4.3984-104.08-27.738-142.18-65.84-38.102-38.098-61.441-88.48-65.84-142.18-4.4219-53.699 10.379-107.22 41.758-151.02 31.379-43.801 77.281-75.059 129.54-88.16-42.82 33.301-69.98 82.84-75.039 136.86-5.0586 54.016 12.422 107.72 48.32 148.4 35.879 40.699 87 64.742 141.22 66.441 54.242 1.7188 106.76-19.059 145.14-57.398 5.8008-5.8008 11.219-11.941 16.262-18.398z"
        fill-rule="evenodd" />
</svg>