<?xml version="1.0" encoding="UTF-8"?>
<svg width="512pt" height="512pt" version="1.1" viewBox="0 0 512 512" xmlns="http://www.w3.org/2000/svg"
    fill="currentColor" transform="scale(1.5)">
    <path d="m212.84 59.535c-17.859 17.859 29.766 29.766 35.723 8.9297 2.9766-11.906-26.789-14.883-35.723-8.9297z" />
    <path
        d="m132.46 113.12c20.836 23.812 29.766 35.723 59.535 26.789-47.629-29.766-41.676-71.441-11.906-89.301 17.859-8.9297 23.812-32.746 65.488-20.836-8.9297-35.723-47.629-29.766-80.371-8.9297-5.9531 5.9531-68.465 26.789-32.746 92.277z" />
    <path
        d="m266.42 95.254c17.859-23.812-2.9766-32.746-11.906-29.766-14.883 44.652-65.488-8.9297-62.512 17.859 14.883 26.789 53.582 35.723 74.418 11.906z" />
    <path
        d="m200.93 38.699c-11.906 5.9531-14.883 29.766 2.9766 26.789-5.9531-26.789 71.441-5.9531 74.418 5.9531 2.9766 2.9766 2.9766 5.9531 2.9766 8.9297 8.9297 5.9531 23.812-11.906 8.9297-23.812-23.812-26.789-74.418-32.746-89.301-17.859z" />
    <path
        d="m281.3 89.301c-44.652 56.559-104.19 2.9766-92.277-14.883 2.9766-11.906-2.9766-14.883 0-23.812-26.789 17.859-29.766 35.723-20.836 53.582 11.906 35.723 62.512 35.723 89.301 26.789 23.812-5.9531 47.629-32.746 23.812-41.676z" />
    <path d="m189.02 223.25c5.9531-20.836-62.512-14.883-77.395-71.441-41.676 47.629 59.535 98.234 77.395 71.441z" />
    <path
        d="m257.49 26.789c20.836 2.9766 59.535 26.789 38.699 50.605 17.859 44.652-44.652 83.348-95.254 59.535-17.859 17.859 86.324 53.582 122.05-8.9297 38.699-59.535-26.789-130.98-68.465-104.19-2.9766 2.9766 0 2.9766 2.9766 2.9766z" />
    <path
        d="m108.65 136.93c23.812 50.605 50.605 68.465 110.14 65.488 17.859-2.9766 86.324-5.9531 86.324-47.629-5.9531 8.9297-56.559 29.766-110.14-2.9766-44.652 5.9531-71.441-29.766-74.418-56.559-29.766 8.9297-20.836 20.836-11.906 41.676z" />
    <path
        d="m251.54 17.859c71.441-26.789 125.02 83.348 62.512 130.98 2.9766 11.906 89.301-8.9297 65.488-77.395-29.766-92.277-128-77.395-128-53.582z" />
    <path
        d="m197.95 208.37c-11.906 0 0 20.836 35.723 26.789 65.488 14.883 133.95-38.699 130.98-92.277-14.883 11.906-29.766 17.859-47.629 17.859-8.9297 26.789-35.723 38.699-59.535 44.652-32.746 5.9531-41.676 0-59.535 2.9766z" />
    <path
        d="m114.61 413.77c0 2.9766 0 2.9766-2.9766 5.9531 11.906 5.9531 44.652-2.9766 53.582-8.9297-2.9766 5.9531 0 8.9297-2.9766 11.906 14.883 0 41.676-17.859 44.652-20.836 2.9766 2.9766 2.9766 2.9766 2.9766 5.9531 5.9531-2.9766 8.9297-5.9531 17.859-17.859 11.906-17.859 20.836-50.605 17.859-53.582-2.9766-2.9766-5.9531 0-8.9297 2.9766-2.9766 14.883-8.9297 32.746-20.836 47.629 2.9766-8.9297 17.859-32.746 14.883-47.629-5.9531 0-11.906 5.9531-23.812 8.9297-8.9297 20.836-8.9297 35.723-29.766 53.582 11.906-17.859 20.836-26.789 23.812-50.605-14.883 0-44.652 11.906-50.605 26.789h-2.9766c-5.9531 5.9531-14.883 11.906-20.836 20.836 14.883-17.859 23.812-26.789 23.812-32.746-2.9766-2.9766-17.859-2.9766-41.676 0-5.9531 8.9297-14.883 14.883-23.812 20.836 5.9531-5.9531 14.883-14.883 14.883-20.836-11.906 2.9766-41.676-8.9297-50.605-5.9531 8.9297-5.9531 41.676 8.9297 50.605 0-8.9297-2.9766-17.859-11.906-29.766-17.859 11.906 5.9531 23.812 11.906 32.746 17.859 5.9531 2.9766 14.883 0 23.812 0-8.9297-14.883-17.859-23.812-26.789-26.789 29.766 5.9531 11.906 32.746 56.559 23.812 5.9531 0 11.906-2.9766 14.883-5.9531-2.9766-14.883-20.836-29.766-38.699-35.723 14.883-2.9766 38.699 26.789 47.629 35.723 14.883-2.9766 29.766-5.9531 32.746-11.906-11.906-11.906-32.746-20.836-47.629-26.789 17.859 5.9531 35.723 11.906 53.582 23.812 5.9531-5.9531 14.883-5.9531 20.836-8.9297-8.9297-17.859-35.723-26.789-50.605-32.746v11.906c-11.906-11.906-38.699-14.883-53.582-14.883 0 2.9766 2.9766 5.9531 2.9766 8.9297-11.906-2.9766-20.836 0-32.746 2.9766 2.9766 0 2.9766 2.9766 2.9766 5.9531-8.9297-2.9766-17.859 2.9766-32.746 8.9297 2.9766 5.9531 2.9766 5.9531 5.9531 11.906-8.9297-2.9766-26.789 0-32.746 5.9531 2.9766 2.9766 0 5.9531 2.9766 8.9297-8.9297 0-11.906 2.9766-20.836 14.883 8.9297 8.9297 17.859 14.883 23.812 14.883 0 0-5.9531 2.9766-5.9531 5.9531 14.883 17.859 29.766 5.9531 20.836 20.836 14.883 8.9297 17.859 11.906 44.652 11.906z" />
    <path d="m254.51 253.02c2.9766 110.14 101.21 214.32 187.54 258.98-92.277-14.883-202.42-151.81-205.39-256z" />
    <path
        d="m471.81 291.72c2.9766 0 5.9531 2.9766 8.9297 0 0 14.883-17.859 47.629-29.766 56.559 8.9297-2.9766 8.9297 2.9766 14.883 0-2.9766 14.883-32.746 38.699-38.699 41.676 2.9766 2.9766 0 5.9531 5.9531 5.9531-5.9531 2.9766-8.9297 5.9531-23.812 11.906-23.812 8.9297-65.488 5.9531-68.465 0 0-2.9766 2.9766-5.9531 5.9531-8.9297 20.836 2.9766 38.699 0 62.512-5.9531-11.906 0-41.676 8.9297-56.559 0 0-5.9531 8.9297-11.906 14.883-20.836 26.789-2.9766 44.652 0 71.441-14.883-23.812 5.9531-38.699 11.906-65.488 8.9297 8.9297-17.859 26.789-47.629 47.629-47.629 11.906-5.9531 20.836-11.906 29.766-17.859-23.812 8.9297-38.699 17.859-41.676 11.906-2.9766-2.9766 2.9766-17.859 14.883-44.652 11.906-2.9766 17.859-8.9297 29.766-17.859-5.9531 5.9531-20.836 11.906-26.789 11.906 5.9531-14.883 5.9531-50.605 8.9297-59.535-8.9297 5.9531-2.9766 47.629-14.883 53.582-2.9766-8.9297-5.9531-20.836-8.9297-38.699 0 14.883 2.9766 29.766 5.9531 44.652 0 5.9531-5.9531 14.883-5.9531 23.812-14.883-11.906-20.836-23.812-20.836-38.699-5.9531 35.723 29.766 26.789 2.9766 71.441-2.9766 5.9531-5.9531 11.906-8.9297 14.883-14.883-11.906-26.789-35.723-26.789-53.582-8.9297 14.883 14.883 50.605 20.836 62.512-5.9531 14.883-14.883 29.766-23.812 29.766-5.9531-14.883-8.9297-41.676-11.906-59.535 0 23.812 0 44.652 5.9531 65.488-5.9531 5.9531-8.9297 14.883-14.883 20.836-17.859-17.859-17.859-50.605-17.859-68.465 5.9531 5.9531 5.9531 2.9766 11.906 5.9531-8.9297-17.859-2.9766-47.629 2.9766-65.488 2.9766 2.9766 2.9766 8.9297 8.9297 8.9297 0-14.883 8.9297-23.812 11.906-35.723 2.9766 2.9766 5.9531 5.9531 8.9297 5.9531 0-11.906 8.9297-20.836 20.836-32.746 2.9766 5.9531 5.9531 2.9766 8.9297 8.9297 2.9766-11.906 11.906-26.789 20.836-32.746 2.9766 2.9766 5.9531 2.9766 8.9297 5.9531 2.9766-8.9297 5.9531-11.906 20.836-17.859 8.9297 14.883 11.906 26.789 8.9297 29.766 2.9766 2.9766 5.9531-2.9766 8.9297-2.9766 11.906 23.812-2.9766 35.723 14.883 32.746 5.9531 17.859 8.9297 20.836-2.9766 50.605z" />
</svg>