<?xml version="1.0" encoding="UTF-8"?>
<svg width="512pt" height="512pt" version="1.1" viewBox="0 0 512 512" xmlns="http://www.w3.org/2000/svg"
    transform="scale(1.5)" fill="currentColor">
    <path
        d="m325.22 23.395-0.4375 0.36328 0.52344 0.10156zm-0.46484 6.2383-1.2734 1.0508-1.4297 0.65234c0.24219-0.55078 0.48437-1.1055 0.73047-1.6562l0.98828-0.023438zm18.875-14.383-2.5547 2.0977-0.023437 2.3477-0.54297 1.8047-5.0938 4.2109 0.60938-0.67578 2.5547-2.1016 1.1055-1.1953-0.39453-4.6602-1.2773 1.0508-1.7461-1.0273-2.3672-0.48437-2.8984-1.2383-1.2773 1.0508-0.73437 1.6094-1.0898 0.64453-2.5508 2.1016-0.51562 1.8164-1.2773 1.0508-1.1562-0.089844-2.5508 2.1016 1.6562 0.72266 3.7148-2.9922 0.83594-0.69141 1.5078-0.125 0.19141 0.62109-0.63672 1.5-1.0898-0.69922-0.72266-0.14062 0.019531 0.085937-3.8281 3.1523 0.77344 3.1758-0.48828 1.8125 3.0586 1.6797 2.0508 0.0625 2.5508-2.1016 0.60156-1.7617 1.2734-1.0508 2.082 1.3008-0.9375 1.3945 1.9219 2.2891 2.5508-2.1016 2.1602 0.23047 0.58594-1.7344 0.98828-1.3359 0.72656-1.4805-1.2383 0.95313 0.24609-1.4531-0.14453-1.7969 1.2344-0.23047 2.5547-2.1016-0.33984-1.1914 1.2773-1.0508 1.3125-0.77734 1.6953-0.035156 2.5508-2.1016-2.5859-1.9844zm-97.961 56.91-1.3672 0.82031-1.3945 0.88281-0.96094 0.74219 2.4023-1.5195zm13.422-4.4688-0.38672 0.40234-16.762 10.594-0.95312 1.1875-0.28516 1.8516-0.96094 1.0977c-0.13281 0.097656-0.26562 0.19141-0.40234 0.28906-2.1719 1.3242-3.4141 2.1719-3.7305 2.543l-0.09375 0.21875c-1.4023 1.0234-2.7969 2.0508-4.1875 3.0859-0.14062-0.023438-0.28906-0.042969-0.44531-0.058594l1.0859-0.6875c0.73828-0.76172 1.2773-1.6992 1.6211-2.8125 0.24609-0.49219 1.5703-1.4414 3.9727-2.8477 0.50391-0.96484 1.1641-1.8008 1.9688-2.5zm85.547 40.5c-0.92578 0.94922-1.7344 1.7891-2.4258 2.5156l-0.53516 0.73047c0.74609-0.78906 1.4961-1.5742 2.25-2.3516zm-105.9 18.062-3.7188 3.6914-1.2852 1.6797 2.8906-2.875 1.0586-1.2461zm198.99 17.227-1.6406 1.6562-0.36328 0.52734 1.1602-1.1719 0.42188-0.50391zm-130.48 8.9453-1.2227 3.6836-1.3125 0.30078c0.83984-1.332 1.6836-2.6602 2.5312-3.9844zm67.266 50.754c-0.58984 0.94141-1.1797 1.8789-1.7695 2.8203l-2.7812 2.9062 0.55078-1.5742 0.55859-0.71094c0.88281-0.97656 1.7656-1.9414 2.6484-2.9023h-0.003906c0.26562-0.17969 0.53125-0.35938 0.79688-0.53906zm67.34 10.047c-0.36719 0.46484-0.73047 0.91797-1.0781 1.3594h-0.003906l-1.125 0.51172c0.72266-0.61328 1.457-1.2383 2.207-1.8711zm-74.953 2.7031c-6.1836 6.6172-9.6289 10.719-10.324 12.309l9.0625-9.3867 1.3984-1.7188-0.13281-1.2031zm-178.03 22.266-1.7656 3.0234 1.3359-0.29688 0.85938-1.2734zm60.965 0.42578-3.6172 5.3945 1.9648-2.418 0.82812-1.4883zm95.039 2.668-1.0625 0.9375-1.3125 1.5234-1.3086 1.5234 0.54297-2.2695zm67.473 16.688-0.30078 0.60156c-0.81641 0.73047-1.6328 1.4609-2.4492 2.1953l-1.2188 1.1016 0.80859-1.2031c0.98438-0.83984 2.0391-1.7383 3.1562-2.6953zm-24.348 25.121-1.2305 0.79297-0.91797 0.90625 0.37109-0.55078 0.43359-0.43359 0.1875-0.10156zm-314.36 11.953-1.8633 4.8359-0.95312 4.1016 0.74609-0.1875 2.4531-6.3594zm260.66 8.7812c-2.0469 2.625-4.0742 5.2656-6.0781 7.9258l-0.25781 0.52734c1.918-2.543 3.9141-5.1523 5.9883-7.8203zm-2.6797 9.1016-0.48437 1.0391-1.4922 1.9375 0.25-0.68359h-0.003906c0.57812-0.76953 1.1523-1.5352 1.7305-2.293zm-70.934 39.438-3.8125 5.5625-0.32031 0.67188 3.7383-5.4492zm-63.5 15.398-2.4492 3.2578-0.88281 1.4102-0.88281 1.4062 2.4531-3.2578c0.58594-0.9375 1.1758-1.8789 1.7617-2.8164zm60.953-17.598-18.512 27.051 17.594-25.883zm116.09-273.22c-0.41016 0-0.74219 0.0625-1.0039 0.19141-0.85938 0.39453-1.6953 1.0156-2.5 1.8672l-6.2383 1.7852c-4.0938 3.6914-8.1484 7.4297-12.168 11.215-0.61719 0.86328-0.99609 1.8555-1.1406 2.9805l-0.81641 1.3555c-0.79297 0.76562-1.5859 1.5312-2.375 2.2969-0.77344 0.77734-1.2305 1.7188-1.3672 2.8359-3.4453 3.3828-6.7734 6.8281-9.9922 10.328l0.53906-0.78516c2.0859-2.2695 4.4258-4.7266 7.0078-7.3828 0.48828-0.84375 0.56641-1.9219 0.23828-3.2305v0.003906l0.5-0.73828 4.043-4.1211 0.45312-1.5977-0.36328-0.32812 0.57031-0.83984 7.0312-8.4297-8.1055 6.5547c-5.3867 3.5938-10.273 6.9141-14.668 9.9531l-5.0586-0.27344-2.793 2.6406c-2.3359 1.4453-5.2031 2.3398-8.6094 2.6797l-3.6289 2.0391-13.23 18.016c-1.7422 1.4375-3.5352 2.9336-5.375 4.4883l-0.86719-1.7266-4.918 6.6602c-1.3008 1.1172-2.6211 2.2656-3.9609 3.4375l-2.2891 0.35156-1.4805-1.2266-3.4727 2.1992-2.7031 0.53125-0.42969-0.87109-4.3594-0.17969-2.5469 2.4883-4.0859 0.80078c-0.007813-0.003907-0.015625-0.007813-0.027344-0.007813-0.3125 0-2.5078 2.7773-6.582 8.332h-0.003906l-2.9141 0.38281-3.5508 1.9062c-1.8789 2.0352-3.1484 4.3906-3.8086 7.0664-2.2109 1.6914-3.8906 3.8008-5.0391 6.332l-3.2188 2.2695-1.5352 3.8945 2.3789-1.0586 2.1562-3.2969 1.9102 0.76562-2.918 2.8516c0.050781 1.3203 0.039063 2.5898-0.039062 3.8125l-1.7422 2.3672-1.5078 1.1094-1.1328 1.3047-1.1289 1.3008 3.6797-3.5938-0.36719 0.49609-17.312 16.918 1.543 1.3242-1.2148 2.2695-6.9961 6.8359-1.9414 0.61328-6.3203-0.011719-4.8516 1.2266-4.5781 6.75 0.875 3.4258-2.668 2.6055-0.68359 0.16797-1.0117 1.4922-1.5195 1.4805 0.37891 0.19531-4.7188 6.957 0.10156 4.5703-4.582 6.75-2.3086-0.12109-6.8711 10.125 3.4531 1.4805 2.5078-3.1875 8.8906-12.879 0.015625 0.054687 0.32812-0.55859 2.7266-2.4062 2.7969-1.957 1.1758 2.4961-0.71094 2.5117c-0.23047 0.38281-0.46094 0.77344-0.69141 1.1602l-2.0508-2.2812-2.2891 3.375-1.7148 0.38672-8.2969 12.23 0.20703 4.6602 1.4844 4.293c-1.4688 2.7891-2.9453 5.6367-4.4258 8.5469l-0.66797-0.58594c1.1289-2.4648 2.293-4.918 3.4922-7.3633l-6.7891-1.918-2.0273 3.2344-5.3125 11.023-4.0508 2.1484-2.6992 3.0312 0.56641 4.3281-1.7734 3.6758-0.62891 4.0781-2.2227 3.2656 1.0703 3.2617 1.7734-3.6758 2.1758-2.1406-1.7695 3.6758 1.8438 4.8867 0.30859 3.2227-2.2188-0.38672-8.8516 18.371 2.9297 0.37109-6.3633 13.203-2.5156 3.1875-3.7227 2.457-5.3125 11.023 1.7188 0.375 4.9531 0.019531c-10.133 27.512-13.801 42.074-11.012 43.68l0.3125-0.28516c5.7539-6.3281 13.262-15.988 22.531-28.984 13.191-19.449 24.961-36.652 35.309-51.613l3.0234-0.75781c0.39062-0.59766 1.0859-1.8984 2.0859-3.9102v0.003907l10.539-15.711c0.49609-1.3047 0.94141-2.6289 1.3398-3.9805v0.003907c3.5742-5.0781 6.9102-9.7734 10-14.086l3-0.45703 0.80078 4.0547-4.5469 6.7734 1.5 3.4648 4.9766 0.11328 9.0859-13.547 2.9766-2.7031c2.5273-1.293 4.7383-2.8672 6.6289-4.7344l0.51172-4.0352c0.99609-2.4961 2.3359-4.8359 4.0234-7.0117l1.2656-3.8789 2.7695-2.8242 0.69922-4.1133-1.5156 0.63672-2.2734 3.3867-2.6016 2.0234 2.2734-3.3906 0.62109-4.1484-0.83203-4.8203 1.0742-1.1055 1.8047 0.18359 13.633-20.32c-0.57422-0.94141-1.0078-1.9688-1.3008-3.0859l6.8164-10.16 2.9141-2.793 0.46875-2.25c1.7227-2.043 4.0273-3.5859 6.918-4.6289l3.9883-5.9375h-0.003906c1.5781-1.4844 3.1602-3.1055 4.75-4.8594l0.09375-2.3594 0.26172-0.39062-0.24609-0.042969 0.058594-1.4609 4.8477-6.5625 1.6523-3.4883 2.668-3.0117 0.65625-3.0352 3.293-4.3867 5.832-5.6953 1.3242 1.4727 14.59-14.254-4.6172-0.65234-3.082 2.6172-5.5352 5.4102c0.33594-0.52344 0.67188-1.0469 1.0117-1.5703l3.6641-4.8789 2.0391-1.9922 0.027343-0.75781 7.1133-9.4648c-0.14062 0.91016-0.41406 1.7734-0.82031 2.5977-1.2656 1.7617-2.5117 3.543-3.7383 5.3359l1.7773 0.58594 1.4844-0.26172 7.543-10.191c0.75-0.71094 1.625-1.2422 2.6289-1.5977 0.57031-0.97656 1.3203-1.6758 2.2383-2.0977l1-1.2266c0.16406-0.96875 0.51562-1.8984 1.0547-2.7891l6.0508-7.1211c0.3125-0.99219 0.82812-1.8867 1.5391-2.6836l-0.75781 0.27344c-1.9062 1.9727-2.8984 3.1484-2.9727 3.5352l-0.91797 0.10938c0.71484-0.80469 1.4375-1.6016 2.1641-2.3906 0.37109-0.37891 0.83594-1.9023 1.3906-4.5703l0.78906-1.3672-0.082031 1.1602 0.48437 0.0625c3.3516-3.5352 7.5938-7.75 12.719-12.645l0.32422-0.64844-1.5781 0.39844 0.87891-0.95703c2.3828-2.2578 4.7852-4.5 7.2031-6.7227l1.3789-0.79297-0.015625-0.45703 1.2188-1.1133 1.2656-0.98047c1.2031-0.03125 2.207-0.42188 3.0117-1.1719l6.125-5.5195 2.4609-2.2109c-1.3125-0.46875-2.3555-0.70312-3.1328-0.70312zm-62.656-38.008-0.42578 0.14062c-2.8438 1.4922-5.6641 3-8.4648 4.5195l-5.8047-0.21094-1.543 0.38281-12.574 7.9453-1.3125 0.96094-0.75391 1.4922-6.9766 4.4258-1.5039 0.51953-1.6758-0.058594-0.29297-0.67578 0.79688-1.418 5.5898-3.5312-1.3477-1.3203-1.5-0.33594-9.6992 6.0508-1.4375 0.73828-1.6758-0.0625c-0.89062 0.73438-1.8633 1.168-2.918 1.3008l-1.3945 0.88281c-0.38672 0.97656-1.0469 1.7734-1.9883 2.4023l-4.1875 2.6484-1.0391 1.1914c-1.0703 0.24219-1.9805 0.78125-2.7266 1.6133l-1.0312 1.2305 0.11328 0.36328c2.418-1.457 3.7266-2.3555 3.9219-2.6992l0.75391 0.23828-2.7969 1.7656c-0.32031 0.42969-1.1016 1.8945-2.3398 4.4023h-0.64453l0.32031-1.1406-15.363 9.7148c0.96875 0.015625 1.3906 0.19922 1.2617 0.54688l-8.3828 5.2969-1.5078 0.53906-0.14844 0.50781-1.3984 0.88281-1.5117 0.51172-1.7148 0.011719-9.7773 6.1797 1.9219 1.0117 0.37891 0.070312c-2.375 0.88281-4.6484 1.8516-6.8203 2.9062l-13.875 24.02c-3.6523 3.3984-7.2383 6.8398-10.762 10.324l-0.03125-0.097656-0.19141 0.31641c-4.9883 4.9414-9.8398 9.9648-14.559 15.078l-1.1016-0.52734-2.6211 3.5977-23.484 9.0391-11.18 19.355-0.14844 11.223-4.625 0.95312-13.977 24.195c-0.65625 2.418-1.1719 4.7383-1.5391 6.9609-2.4648 1.5859-6.3281 4-11.59 7.2461l-2.4258 3.1953-5.8672 15.223-0.34375 3.9688 0.64062 1.8008-10.633 18.41 2.8164-0.6875-4.6523 12.07 1.25 4.1133-7.332 19.027c-0.90234 0.20312-1.8164 0.73828-2.7383 1.6055l-8.8008 22.836 1.7812 0.24609 3.3594-2.5352 5.8672-15.227-0.18359-4.082 2.7617-2.2578 5.8672-15.223 1.0703-2.7773 1.8438-2.6992 2.0469-1.5 1.4688-3.8086 0.88281 2.4883 0.52344 4.0938-1.4688 3.8086-1.3672 0.66406-1.2422-3.2969-4.3984 11.418-1.4297 0.35938-10.746 27.895-0.33203 4.293 2.0938 3.9023 0.85938 4.2812c0.73438-1.9141 1.7109-4.4531 2.9336-7.6172l1.0742-2.6328h0.003906c-1.2578 3.9023-2.4922 7.832-3.7031 11.793l-0.30859-1.543v0.003906c-0.73438 1.9062-1.2227 3.1914-1.4688 3.8555l0.78516 0.94922c-4.8711 16.164-9.3594 32.777-13.461 49.844l30.137-45.883 58.309-94.379 1.2109-1.7266 0.93359 0.76953 5.5391-1.2812 13.977-24.195 5.6484-2.3398 6.75-8.625-0.44141-5.7773 5.5898-9.6797 1.4922-5.2031 0.45703-0.65625 2.9258-3.6289c0.03125-0.23047 0.0625-0.45312 0.089843-0.67188l11.492-16.391 15.203-14.555 4.293-0.69922c2.2305-1.1484 4.3594-2.7422 6.3867-4.7734l0.82422-4.0742c9.4961-9.2852 14.594-15.371 15.293-18.262h-0.003907l-2.4375 1.1484-5.5469 5.3008 0.58203-1.8203 2.8906-2.8789c0.58203-2.5742 1.0039-5.2578 1.2578-8.0547 0.5-0.57812 1.0078-1.1602 1.5156-1.7461l0.17188-0.18359 0.71094 1.7109 23.145-23.004-3.2266-0.089844 1.6875-2.3281 11.574-11.5 3.0508-2 0.96875-1.9961 3.4102-2.1055 4.2227-1.0117 14.465-14.375-5.8594-2.0977 14.898-16.176c3.1719-3.7305 5.8281-7.1367 7.9648-10.211 0.76562-1.0508 1.0117-2.5312 0.72656-4.4336zm-188.05 372.05 0.43359 1.0352 0.41797-0.98828zm328.14-212.56-15.328 6.9727c-13.016 11.078-23.418 20.137-31.199 27.188l-2.5781 3.6562-12.363 11.57c-0.96875 0.09375-1.8789 0.38281-2.7227 0.86328-1.6836 1.4688-3.6328 3.25-5.8438 5.3438h-0.003906l-1.0742 0.62891v0.003906l3.3945-4.8047 11.781-11.414c-0.44922-0.070312-0.88672-0.10547-1.3164-0.10547-1.2344 0-2.375 0.29688-3.4258 0.89453-5.0664 4.4219-12.539 11.68-22.426 21.773l-3.7188 2.418-5.8672 5.4453-21.285 26.406-3.4453 5.9648 6.2344-7.7266 0.54297-1.2109c0.42578-0.6875 1.4727-1.5586 3.1406-2.6094h0.003907l-6.2227 7.7891-2.8711 6.1289-0.89844 1.1172-1.0508 1.8242 0.56641-1.5547-0.71484 0.79687c-6.1094 7.918-12.047 15.945-17.809 24.086l-8.25 11.898 3.3203-2.9453-0.80859 1.207-15.941 22.973c-0.51953 0.73047-0.73438 1.0977-0.64453 1.0977 0.070312 0 0.33984-0.23438 0.79688-0.69531l-3.6484 5.4844-4.3008 4.2734-9.918 15.27-5.3867 8.332c1.3828-0.39844 2.5781-0.90234 3.5859-1.5195l-1.7148 2.6406-5.3828 8.332c1.4766-0.42578 2.7422-0.97656 3.793-1.6484l-2.9844 4.6211c0.94922-0.27344 1.8086-0.59766 2.582-0.97266l-1.1172 1.6094c-0.51953 0.73047-0.73828 1.0977-0.64453 1.0977 0.070313 0 0.33594-0.23438 0.79688-0.69531l-3.6484 5.4883-4.3008 4.2734-9.918 15.266-5.3867 8.332c2.1523-0.62109 3.8516-1.5039 5.0977-2.6484 0.75391-0.24219 2.582-2.7031 5.4961-7.375l8.6211-8.0898c4.2422-6.5 8.207-12.516 11.898-18.039l-2.7461 4.2266-5.3867 8.332c2.1523-0.61719 3.8516-1.5 5.0977-2.6484 0.75391-0.24219 2.582-2.6992 5.4961-7.375 2.8672-2.6992 5.7422-5.3945 8.6211-8.0898 8.4258-12.906 15.762-23.898 22-32.969l0.96484-2.5977 3.1289-2.5039c-0.15234 0.66016-0.17578 1.207-0.0625 1.6406 0.89844-1.2812 1.7422-2.4883 2.5352-3.6172h-0.003906l6.2461-4.9922c4.9023-6.0547 9.1562-11.191 12.758-15.414l10.223-8.1797c6.7852-8.375 12.324-15 16.625-19.875l1.9141-3.5352h-0.003906c1.1836-1.168 2.3867-2.3438 3.6055-3.5312l0.03125-0.023438c0.023437-0.023437 0.042968-0.042968 0.0625-0.066406 0.28906-0.28516 0.58203-0.56641 0.87891-0.85156l0.18359-0.30469c3.8867-4.2305 8.0703-8.6133 12.555-13.152 2.8789-2.6484 5.7812-5.2734 8.707-7.8828l1.0352-0.88281c-1.2344 1.6953-1.7891 2.543-1.6602 2.543 0.074219 0 0.35938-0.26562 0.85547-0.78906l25.359-22.211-5.1953 2.4609c-5.8398 4.9961-11.633 10.035-17.379 15.113l-1.6602 2.418-1.2891 0.51953c0.48828-0.47266 0.97656-0.94922 1.4688-1.4258l1.168-1.9219c4.9492-4.3672 10.812-9.4805 17.594-15.336-0.32422-0.003906 0.38281-1.1953 2.125-3.5781h-0.003907c0.1875-0.16797 0.375-0.33594 0.5625-0.50391l1.0352-0.87891c-1.2344 1.6914-1.7891 2.5391-1.6602 2.5391 0.074219 0 0.35938-0.26172 0.85547-0.78906l25.359-22.207-5.1953 2.457c-5.8398 4.9961-11.633 10.035-17.379 15.117l-1.6602 2.418-0.77734 0.3125c0.84766-1.125 1.8555-2.4375 3.0234-3.9336h-0.003906c0.0625-0.054687 0.125-0.10938 0.18359-0.16016l3.6055-3.0625 0.68359-0.69922h-0.003906c3.6797-3.2148 7.7539-6.7578 12.23-10.625-0.51562-0.003906 1.5859-3.0234 6.3008-9.0664l-11.305 9.5938c-0.86719 0.40234-1.7344 0.80469-2.6016 1.2109l-1.2266 0.57422 2.2031-1.9297h-0.003906c4.6875-4.0352 10.273-8.8047 16.766-14.301-1.4258 1.7852-2.6992 3.4023-3.8242 4.8438l3.7617-3.1914 1.3008-1.3359 0.65625-1.2266-0.37109-0.37891 4.7852-4.0547-10.289 4.6797c0.97656-1.4766 2.8281-3.957 5.5547-7.4492h-0.003907l-11.305 9.5938-1.4062 0.65625c0.074218-0.12891 0.16406-0.26562 0.26172-0.41797h-0.003906l3.8906-3.4023-1.8945 0.89453c4.1445-3.5586 8.9062-7.6172 14.289-12.18l0.003907 0.003907c-1.4258 1.7852-2.6992 3.4023-3.8281 4.8438l3.7617-3.1914 1.3047-1.3359 0.65234-1.2227-0.37109-0.38281 4.7891-4.0547-9.0742 4.125 2.3242-1.9688-5.8672 2.668 0.64062-1.2031-0.37109-0.38281 4.7891-4.0547-9.3203 4.2383c0.77734-1.0234 1.6758-2.1875 2.6953-3.4961h-0.003907l-5.7734 4.8984-2.9297 1.332c-1.9062 1.625-3.7617 3.207-5.5586 4.7422l-0.94141 0.44141c5.1172-4.4258 11.461-9.8477 19.035-16.266-1.4219 1.7891-2.6992 3.4023-3.8242 4.8477l3.7617-3.1953 1.3047-1.332 0.65234-1.2266-0.37109-0.38281zm-260.68 240.95-2.1992 3.207-0.60547 1.6406 0.4375 0.76172 1.1211-1.6367zm-67.672-30.074c-0.95703 0-2.1836 0.17188-3.6836 0.51562l-1.5 0.99609-2.7148 6.0273 0.26172 1.8047-1.3594 3.0117-1.5312 0.97656-1.4883-1.0586c0.43359-1.0117 0.87891-2.0195 1.332-3.0234l-3.0586-0.44141-2.0352 4.4922c-0.91797 0.71484-1.8164 1.4414-2.6875 2.1797 0.089843 1.1289-0.046876 2.2148-0.40625 3.2617-0.51563 1.0156-0.90625 2.0117-1.1758 2.9844l-0.011718 1.7148c0.63281-0.85547 1.2852-1.6602 1.9492-2.418l-0.67578 1.5039 0.84375 1.9844 0.042969 1.0078-0.88281 0.24609-2.7188 6.0273c0.13281 0.59375 0.28906 1.1719 0.46484 1.7305l-1.3555 3.0156-0.83984 1.2227-0.3125 1.1758-1.7383 0.89062-2.0391 4.5195 1.4766 0.26172 2.332-0.37891 1.2461-1.1562 2.2578-0.55859 0.99609-1.3125 2.0352-4.5195 0.36328-1.6016-0.73828-1.9297 0.67969-1.5078-0.34766-1.8125 4.0742-9.0391 0.36328-0.48047-3.3945 7.5352-0.37109 1.5664 1.3086 2.082-0.67969 1.5039 0.65234 1.918c0.64062-0.61328 1.1562-1.4844 1.5469-2.6211l1.3672-0.81641 1.0703 0.035157 1.9023-0.76953c1.6172-0.30078 3.0078-0.74219 4.168-1.3203l1.3594-3.0117 0.39062-1.5938-0.61328-1.625 1.4141-0.83594 2.0391-4.5195-0.36719-1.7969 2.0391-4.5195 0.85156 0.0625 2.0391-4.5234 0.30859-1.2734-1.8516 0.77734-1.3594 3.0117-0.32422 1.418-0.94922 1.2891c-0.22266 0.58984-0.45312 1.0938-0.68359 1.5078l0.054688-0.11719-0.28125-0.57812-0.039063 0.089844-0.4375 1.5898c0.23828-0.24219 0.47266-0.56641 0.69922-0.97656h0.003906l-0.625 1.3828-1.1797 0.54687-0.68359 1.4922-0.76562-1.2617 0.41406-1.5859 0.96875 1.0586 0.69141-1.4023 0.67578-1.5039 0.27734 0.57031 3.3203-7.4922-1.3945-2.0703-0.34375-0.81641-0.23438 0.5625-0.67969 1.5039-1.7266 0.85938 1.7969-3.9844 0.41016 0.023438-0.070312-0.16406 0.39844-1.5c-0.16797-0.015625-0.34375-0.019531-0.53125-0.019531zm29.488 43.328-1.7266 2.8789 0.070312 0.83984 1.5273-2.5469zm309.24-344.05c-21.582 11.359-40.984 22.473-58.207 33.34l15.848-20.023c-1.5508-0.40625-3.0938-0.60547-4.6289-0.60547-1.3125 0-2.6211 0.14453-3.9258 0.44141l-3.293 1.7031c-1.5664 2.0586-3.3555 3.9727-5.3633 5.7461l-11.195 4.6875-2.9336 2.6445-25.316 31.984c-0.082031 0.67578-0.16016 1.3555-0.23828 2.0352h-0.003906c-1.8438 1.4453-3.6484 2.8828-5.4062 4.3164l0.1875-2.5859-1.8633 0.13672-8.5586 10.812h-0.003906c-1.9844 1.6367-3.9492 3.2734-5.9023 4.9141l-1.1719 0.65234-1.2109-1.625c-0.035156-0.011718-0.074219-0.015625-0.11719-0.015625-0.64844 0-1.9844 1.2891-4.0156 3.875l-18.656 7.8047-3.4844 1.8945-15.188 19.191-2.25 3.3086c-0.10937 2.7422-0.56641 5.3516-1.3672 7.8281l-2.0312-0.49219-3.168 2.7969-22.672 29.082 0.003907 0.6875c-6.082 7.332-11.836 14.711-17.273 22.141-0.67969 1.0195-1.3594 2.0508-2.043 3.0859-0.089843-0.16406-0.16016-0.36328-0.21484-0.60547l-22.781 28.785c1.3359-0.050782 3.4297-0.64062 6.2852-1.7773-0.69141 1.1367-1.3867 2.2773-2.082 3.4258l-0.57422 0.49219-9.8047 13.039-3.0469 2.5938c-2.6367 1.0625-4.9375 2.4805-6.8984 4.2539l-2.0078 3.4961-0.62891 3.9844-4.9023 6.5195-1.793 3.3203-2.5742 3.1211-0.90234 4.043 1.6797-0.73047c1.6367-2.375 3.2695-4.3438 4.8984-5.9062v0.003906c-0.16797 1.1836-1.2031 3.0859-3.1055 5.6992 0.21094 2.4648 0.33203 4.8828 0.36328 7.2539-0.19922 0.36719-0.40234 0.73828-0.60156 1.1055l-0.69141-0.9375-2.0664 1.5859-17.164 22.816 3.4375-0.32813-1.8711 2.9062-13.375 17.613-4.6133 1.0312-12.262 16.301 7.082 1.4414 3.6133-1.5898 2.7852-2.9023 1.8555-0.41406-4.125 6.8906c-0.27734 1.0312-0.30469 2.1445-0.070313 3.332l-1.0469 0.066406-1.0508 1.3516-5.0938 8.5039-0.72266 1.5547 0.097656 1.5703-4.2422 7.0898-0.70313 0.78906-0.39844-0.51172-5.9453 9.9219c0.10156 0.054687 0.21875 0.085937 0.35547 0.085937 0.46094 0 1.1367-0.30859 2.0234-0.92578l9.0898-15.07 0.82031-1.3711 0.94141-0.39062 0.85156-0.93359 0.84766-1.4141 0.19922 1.5156-0.31641 1.582-0.85156 1.418-0.55859 0.18359-0.12109-1.7109-3.3984 5.6719-0.070313-0.83203-6.9648 11.633-0.21094 1.7305 0.39844 1.6367-0.023438 1.8242 2-3.3359 0.94141-1.3242 1.6484-0.625-4.457 7.4414-0.26562 0.12109c0.054687-0.21875 0.09375-0.4375 0.11328-0.65625l0.019531-1.6211-0.55078 0.91797-0.33594 1.707 0.75391-0.34766c-0.18359 0.72266-0.55469 1.4453-1.1094 2.1719l0.72656 0.12891 2.8945-1.1016c-4.6797 12.234-6.1602 19.098-4.4414 20.586l0.51172-0.40625c9.7461-9.2305 23.105-24.914 40.09-47.055l8.3125-11.082-0.21094 0.68359 3.1445-4.5938 3.375-4.4961 2.2344-1.5234-10 14.586-3.7383 5.4492 9.7812-6.6758 1.0977-1.0625 15.887-23.172c0.51562-0.41797 1.0977-1.8438 1.7461-4.2812l8.4102-12.27c-0.17188-0.38281 1.3711-1.5898 4.6289-3.6289l-1.6445 4.2461-6.4062 9.5625c0.18359 0.097656 0.41797 0.14844 0.70312 0.14844 0.73047 0 1.793-0.32812 3.1836-0.98438l12.992-18.723c0.80469-0.57812 1.6172-1.1445 2.4375-1.6953l3.9961-4.9414c1.5039-1.832 2.3672-3.6641 2.5938-5.4961l9.9297-14.758c-0.11719-0.53125 0.57031-1.9414 2.0547-4.2227l-0.94531 0.73047-3.7227 5.4375-0.52344 1.3125-1.2109 0.90625-0.15234-0.21484 3.6133-5.4766 2.1328-7.2734 0.89063-1.2656-0.67969 2.8906 0.83594-1.1445 17.754-25.898-2.1758 1.5508-0.019531-0.35156 4.2461-6.1992 16.938-10.176 2.9258-2.4219c6.2031-8.7461 12.5-17.355 18.891-25.828l3.0977-10.762c0.011718 0.12891 0.11328 0.19141 0.30469 0.19141 0.58984 0 2.0312-0.60938 4.3281-1.832 7.3008-9.4375 16.602-20.648 27.902-33.633 2.0898-2.4336 2.9375-4.7227 2.543-6.8633 6.168-6.9766 14.34-15.758 24.516-26.348h0.042968c0.63281 0 0.76562 0.80078 0.39062 2.4023 8.2969-8.6406 18.719-19.07 31.266-31.289l0.77344-1.5352h-0.003906c-2.4258 0.72656-4.8438 1.4961-7.2461 2.3008l-20.012 19.922c-2.0898 1.8281-3.3633 4.0312-3.8203 6.6094l-3.1641 0.36719-11.48 11.891-1.2539 1.5469c-6.3438 6.8711-10.828 11.809-13.457 14.816l-1.4414-1.0508-2.332 2.1211-2.6406 3.0156-2.6172 3.0234 0.62109-2.5703c2.8711-3.4961 5.7227-6.918 8.5586-10.273l-0.61719 2.6211c5.3359-5.9844 10.758-11.902 16.273-17.754l0.17188 1.5781c7.8164-8.3633 20.016-20.746 36.598-37.145 1.6172-2.4062 2.3242-4.5469 2.1289-6.4219l5.4844-5.5391 0.44531-1.6523c-0.11328-0.074219 1.3984-1.6641 4.5391-4.7695l1.5469-0.58203 1.4727 0.042969-0.26172 1.7461-3.4883 3.5195 1.6055 1.2812 1.5-0.17188 5.8164-5.8672 1.3555-0.87891c1.1133-0.26562 2.1094-0.69922 2.9883-1.3008l1.1641-1.1719 0.28906-1.668c1.2695-1.1562 3.1016-3.1289 5.4922-5.918l0.66797-1.5039-0.80859 0.29297c-0.84375 0.79688-1.5508 1.5664-2.125 2.3086l-0.25781-0.49609 1.1641-1.1719c0.46484-0.98828 0.71875-2.1211 0.75781-3.3945l0.63672-1.5234-0.007813 1.6172 9.3047-9.3906 0.40234-0.8125-1.0938-0.10156 7.4141-7.4805c0.97266-0.48438 2-0.91406 3.0781-1.2812l5.8125-5.8672c0.13281-0.085938-0.8125-0.375-2.8398-0.87891l-1.5312 0.42578-1.1562 1.1641c-1.1758 0.19141-2.3711 0.35937-3.5781 0.50391l-1.5469 0.60938-8.1406 8.2188c-0.16406 1.168-0.42188 2.2812-0.77734 3.3281-0.78516 0.77734-1.5508 1.5664-2.2852 2.375l-0.28516 1.7305-12.797 12.91 0.28906-0.48047 10.469-10.562 0.53516-1.5039-0.30078-2.0781 2.3242-2.3477 0.80469-1.3867z" />
</svg>