<?xml version="1.0" encoding="UTF-8"?>
<svg width="512pt" height="512pt" version="1.1" viewBox="0 0 512 512" xmlns="http://www.w3.org/2000/svg"
    transform="scale(1.5)" fill="currentColor">
    <path
        d="m416.54 0h-321.08c-12.461 0-22.602 10.121-22.602 22.602v466.82c0 12.461 10.141 22.602 22.602 22.602h321.1c12.461 0 22.602-10.141 22.602-22.602l-0.019531-466.82c0-12.48-10.141-22.602-22.602-22.602zm-9.3008 467.82c0 6.7383-5.4609 12.262-12.219 12.281-0.019531 0-0.039062 0.019532-0.058593 0.019532h-277.92c-0.019531 0-0.039063-0.019532-0.058594-0.019532-6.7383-0.019531-12.219-5.5195-12.219-12.281v-423.64c0-6.7812 5.5-12.301 12.281-12.301h277.92c6.7617 0 12.281 5.5 12.281 12.301z" />
    <path d="m110.58 414.58v39.559l26.859-39.559z" />
    <path d="m401.42 454.14v-39.559h-26.859z" />
    <path
        d="m144.48 414.58-33.898 49.922v3.3203c0 3.5586 2.8984 6.4805 6.4609 6.4805h277.92c3.5586 0 6.4609-2.8984 6.4609-6.4805v-3.3203l-33.898-49.922z" />
    <path d="m322.68 338.18 47.922 70.578h30.82v-38.398l-53.121-62.121z" />
    <path d="m318.76 342.78-56.438 65.98h101.26z" />
    <path d="m148.42 408.76h101.26l-56.438-65.98z" />
    <path d="m189.32 338.18-25.621-29.941-53.121 62.121v38.398h30.82z" />
    <path d="m196.64 337.78 59.359 69.438 59.359-69.422-59.359-87.438z" />
    <path
        d="m394.96 37.699h-277.92c-3.5586 0-6.4609 2.8984-6.4609 6.4805v317.24l50.922-59.539c1.1016-1.3008 3.3203-1.3008 4.4219 0l26.801 31.32 60.883-89.641c1.0586-1.6016 3.7188-1.6016 4.8008 0l60.883 89.641 26.801-31.32c0.53906-0.64062 1.3594-1.0195 2.2188-1.0195s1.6406 0.37891 2.2188 1.0195l50.922 59.539-0.019531-317.24c0-3.5586-2.8789-6.4805-6.4609-6.4805zm-252.88 229.12h-9.1016v9.1016c0 1.6016-1.3008 2.8984-2.8984 2.8984-1.6211 0-2.8984-1.3008-2.8984-2.8984v-9.1016h-9.1016c-1.6016 0-2.8984-1.3008-2.8984-2.8984 0-1.6016 1.3008-2.8984 2.8984-2.8984h9.1016v-9.1016c0-1.6016 1.3008-2.8984 2.8984-2.8984 1.6016 0 2.8984 1.3008 2.8984 2.8984v9.1016h9.1016c1.6016 0 2.8984 1.3008 2.8984 2.8984 0 1.6016-1.3008 2.8984-2.8984 2.8984zm12.02-175.58h-9.1211v9.1211c0 1.6016-1.3008 2.8984-2.8984 2.8984-1.6016 0-2.8984-1.3203-2.8984-2.8984l-0.019532-9.1211h-9.1016c-1.6211 0-2.8984-1.3008-2.8984-2.8984 0-1.6016 1.3008-2.8984 2.8984-2.8984h9.1016v-9.1016c0-1.6016 1.3203-2.8984 2.8984-2.8984 1.6016 0 2.8984 1.3203 2.8984 2.8984v9.1016h9.1211c1.6016 0 2.8984 1.3203 2.8984 2.8984 0.019532 1.6016-1.2812 2.8984-2.8789 2.8984zm37.441 147.08h-9.1016v9.1016c0 1.6016-1.3008 2.8984-2.8984 2.8984-1.6016 0-2.8984-1.3008-2.8984-2.8984v-9.1016h-9.1016c-1.6016 0-2.8984-1.3008-2.8984-2.8984 0-1.6211 1.3008-2.8984 2.8984-2.8984h9.1016v-9.1016c0-1.6016 1.3008-2.8984 2.8984-2.8984 1.6016-0.019532 2.8984 1.2812 2.8984 2.8789v9.1016h9.1016c1.6016 0 2.8984 1.3008 2.8984 2.8984 0 1.6211-1.3008 2.9219-2.8984 2.9219zm61.02-14.801c-42.879 0-77.777-34.898-77.777-77.797 0-42.879 34.898-77.777 77.777-77.777s77.777 34.898 77.777 77.777c0 42.922-34.898 77.797-77.777 77.797zm86.883 47.379h-9.1016v9.1211c0 1.6016-1.3008 2.8984-2.8984 2.8984-1.6211 0-2.8984-1.3203-2.8984-2.8984v-9.1211h-9.1211c-1.6016 0-2.8984-1.3008-2.8984-2.8984 0-1.6016 1.3008-2.8984 2.8984-2.8984h9.1016v-9.1016c0-1.6016 1.3008-2.8984 2.8984-2.8984 1.6211 0 2.8984 1.3008 2.8984 2.8984v9.1016h9.1016c1.6016 0 2.8984 1.3203 2.8984 2.8984 0.019532 1.6016-1.2812 2.8984-2.8789 2.8984zm30.602-69.438h-9.1016v9.1016c0 1.6016-1.3203 2.8984-2.8984 2.8984-1.6016 0-2.8984-1.3008-2.8984-2.8984v-9.1016h-9.1211c-1.6016 0-2.8984-1.3008-2.8984-2.8984 0-1.6016 1.3203-2.8984 2.8984-2.8984h9.1211v-9.1016c0-1.6016 1.3008-2.8984 2.8984-2.8984 1.6016 0 2.8984 1.3008 2.8984 2.8984v9.1016h9.1016c1.6016 0 2.8984 1.3008 2.8984 2.8984 0 1.6016-1.3008 2.8984-2.8984 2.8984zm12-86.199h-9.1016v9.1016c0 1.6211-1.3203 2.8984-2.8984 2.8984-1.6016 0-2.8984-1.3008-2.8984-2.8984v-9.1016h-9.1016c-1.6016 0-2.8984-1.3008-2.8984-2.8984 0-1.6016 1.3008-2.8984 2.8984-2.8984h9.1016v-9.1016c0-1.6211 1.3008-2.8984 2.8984-2.8984 1.6016 0 2.8984 1.3008 2.8984 2.8984v9.1016h9.1016c1.6211 0 2.8984 1.3008 2.8984 2.8984 0.019532 1.6016-1.2812 2.8984-2.8984 2.8984z" />
    <path
        d="m252.56 73.777c-39.68 0-71.961 32.301-71.961 71.961 0 39.68 32.281 71.98 71.961 71.98 39.68 0 71.961-32.301 71.961-71.98 0-39.684-32.281-71.961-71.961-71.961z" />
</svg>