<?xml version="1.0" encoding="UTF-8"?>
<svg width="512pt" height="512pt" version="1.1" fill="currentColor" viewBox="0 0 512 512" xmlns="http://www.w3.org/2000/svg">
 <path d="m488.16 149.24c-13.359-7.8984-27.02-14.301-40.738-19.18v-13.879c0-5.6602-3-10.898-7.8789-13.781-61.137-36.039-122.84-31.961-183.54 12.121-60.699-44.082-122.38-48.16-183.54-12.121-4.8789 2.8789-7.8789 8.1211-7.8789 13.781v13.879c-13.719 4.8789-27.398 11.281-40.738 19.18-4.8594 2.8789-7.8398 8.1211-7.8398 13.762v231.16c0 5.3984 2.7188 10.422 7.2188 13.379 4.5 2.9609 10.199 3.4609 15.141 1.3203 70.117-30.379 138.48-23.059 208.98 22.359 2.6406 1.6992 5.6602 2.5586 8.6602 2.5586s6.0195-0.83984 8.6602-2.5586c70.504-45.422 138.84-52.719 208.98-22.359 4.9609 2.1602 10.641 1.6602 15.141-1.3203 4.5-2.9609 7.2188-7.9805 7.2188-13.379v-231.16c0-5.6602-2.9805-10.879-7.8398-13.762zm-72.762-23.66v189.22c-47.801-14.621-95.84-9.9219-143.4 13.922v-186.16c48.441-36.32 95.477-41.941 143.4-16.98zm-318.8 0c47.922-24.961 94.98-19.32 143.4 16.98v186.16c-29.5-14.781-59.184-22.262-88.879-22.262-18.18 0-36.379 2.7812-54.539 8.3398zm367.4 245.36c-69.34-23-139.16-13.641-208 27.961-68.84-41.602-138.68-50.961-208-27.961v-198.6c5.5-2.9609 11.039-5.5781 16.602-7.9609v173.36c0 5.3789 2.7188 10.422 7.2188 13.359 4.5195 2.9609 10.199 3.4609 15.141 1.3203 53.738-23.262 106.22-17.621 160.4 17.238 2.6406 1.6992 5.6406 2.5391 8.6602 2.5391 3 0 6.0195-0.83984 8.6602-2.5391 54.18-34.859 106.66-40.48 160.4-17.238 4.9609 2.1602 10.641 1.6602 15.141-1.3203 4.5-2.9609 7.2188-7.9805 7.2188-13.359v-173.36c5.5586 2.3594 11.082 5 16.602 7.9609v198.6z"/>
</svg>
