  <?xml version="1.0" encoding="UTF-8"?>
  <svg width="512pt" height="512pt" version="1.1" fill="currentColor" viewBox="0 0 512 512" xmlns="http://www.w3.org/2000/svg">
 <path d="m426.67 91.672-14.672-19.043c-8.8555 2.5781-16.852 7.4961-23.148 14.238-6.2969 6.7383-10.66 15.055-12.629 24.066h50.449z"/>
 <path d="m136.54 25.172-25.789 33.496c9.6719 4.1094 18.438 10.09 25.789 17.602z"/>
 <path d="m375.46 25.184v51.086c7.3516-7.5117 16.117-13.492 25.789-17.602z"/>
 <path d="m307.2 110.93h50.449c-1.9688-9.0117-6.332-17.328-12.629-24.066-6.2969-6.7422-14.293-11.66-23.152-14.238l-14.668 19.043z"/>
 <path d="m153.6 76.27c7.3477-7.5117 16.113-13.492 25.785-17.602l-25.785-33.484z"/>
 <path d="m204.8 91.672-14.668-19.043c-8.8594 2.5781-16.855 7.4961-23.152 14.238-6.2969 6.7383-10.66 15.055-12.629 24.066h50.449z"/>
 <path d="m85.332 110.93h50.449c-1.9688-9.0117-6.332-17.328-12.629-24.066-6.2969-6.7422-14.293-11.66-23.148-14.238l-14.672 19.043z"/>
 <path d="m494.83 263.32-29.09-196.27c-0.60547-4.207-4.2109-7.3242-8.457-7.3203h-33.672l35.414 45.996-0.003906-0.003907c2.8633 3.7305 2.168 9.0742-1.5508 11.949-3.7305 2.8594-9.0742 2.168-11.949-1.5547l-1.7891-2.2852v108.03c0 6.7891-2.6992 13.301-7.5 18.102s-11.312 7.4961-18.102 7.4961h-102.4c-6.7891 0-13.301-2.6953-18.102-7.4961-4.8008-4.8008-7.5-11.312-7.5-18.102v-108.03l-1.7734 2.3047v-0.003906c-1.3594 1.8594-3.4062 3.0898-5.6836 3.4141-2.2812 0.32422-4.5898-0.28125-6.4141-1.6875-1.8242-1.4023-3-3.4844-3.2695-5.7695-0.26563-2.2812 0.39844-4.5781 1.8477-6.3672l35.414-45.992h-108.51l35.414 45.996v-0.003907c1.4492 1.7891 2.1133 4.0859 1.8477 6.3672-0.26953 2.2852-1.4453 4.3672-3.2695 5.7695-1.8242 1.4062-4.1328 2.0117-6.4141 1.6875-2.2773-0.32422-4.3242-1.5547-5.6836-3.4141l-1.7734-2.293v108.02c0 6.7891-2.6992 13.301-7.5 18.102-4.8008 4.8008-11.312 7.4961-18.102 7.4961h-102.4c-6.7891 0-13.301-2.6953-18.102-7.4961s-7.5-11.312-7.5-18.102v-108.02l-1.7734 2.2969v-0.003906c-2.918 3.5977-8.168 4.2109-11.836 1.3867-3.6641-2.8242-4.4141-8.0586-1.6797-11.797l35.402-45.992h-33.664c-4.2266-0.003906-7.8203 3.0859-8.4453 7.2695l-29.105 196.27h-0.003906c-0.375 2.4414 0.34766 4.9219 1.9805 6.7773 1.6016 1.9102 3.9648 3.0156 6.4609 3.0195h460.8c2.5 0.011719 4.875-1.0859 6.4883-2.9961 1.6172-1.8477 2.332-4.3203 1.9453-6.75z"/>
 <path d="m307.2 494.93h34.133v-119.47c-0.027343-26.805-12.672-52.035-34.133-68.102z"/>
 <path d="m290.13 363.01v-65.707c-21.75-9.5664-46.516-9.5664-68.266 0v65.707c9.3555-8.457 21.52-13.141 34.133-13.141s24.777 4.6836 34.133 13.141z"/>
 <path d="m341.33 318.98v-28.852h-28.852c11.441 7.6016 21.25 17.41 28.852 28.852z"/>
 <path d="m221.87 494.93h68.266v-93.867c0-12.195-6.5039-23.461-17.066-29.559-10.562-6.0977-23.57-6.0977-34.133 0-10.562 6.0977-17.066 17.363-17.066 29.559zm34.133-68.266c0-4.7148 3.8203-8.5352 8.5352-8.5352 4.7109 0 8.5312 3.8203 8.5312 8.5352v8.5352-0.003906c0 4.7148-3.8203 8.5352-8.5312 8.5352-4.7148 0-8.5352-3.8203-8.5352-8.5352z"/>
 <path d="m170.67 494.93h34.133v-187.57c-21.461 16.066-34.105 41.297-34.133 68.102z"/>
 <path d="m392.54 358.4h51.199v51.199h-51.199z"/>
 <path d="m477.87 486.4v-196.27h-17.066v204.8h8.5352-0.003907c2.2656 0 4.4336-0.89844 6.0352-2.5 1.6016-1.6016 2.5-3.7695 2.5-6.0352z"/>
 <path d="m358.4 76.27v-51.086l-25.785 33.484c9.6719 4.1094 18.438 10.09 25.785 17.602z"/>
 <path d="m443.73 290.13h-85.336v204.8h85.336v-68.266h-51.199c-4.5273 0-8.8711-1.8008-12.07-5-3.1992-3.1992-5-7.543-5-12.066v-51.203c0-4.5234 1.8008-8.8672 5-12.066 3.1992-3.1992 7.543-5 12.07-5h51.199z"/>
 <path d="m85.332 187.73v34.133c0 2.2617 0.89844 4.4336 2.5 6.0352 1.6016 1.5977 3.7695 2.4961 6.0352 2.4961h102.4c2.2656 0 4.4336-0.89844 6.0352-2.4961 1.6016-1.6016 2.5-3.7734 2.5-6.0352v-34.133h-25.602v8.5352-0.003906c0 4.5273-1.7969 8.8672-4.9961 12.07-3.2031 3.1992-7.543 4.9961-12.07 4.9961h-34.133c-4.5273 0-8.8672-1.7969-12.066-4.9961-3.2031-3.2031-5-7.543-5-12.07v-8.5312z"/>
 <path d="m426.67 128h-119.47v42.668h25.602v-8.5352c0-4.5273 1.7969-8.8672 4.9961-12.066 3.2031-3.2031 7.543-5 12.07-5h34.133c4.5273 0 8.8672 1.7969 12.066 5 3.2031 3.1992 5 7.5391 5 12.066v8.5352h25.602z"/>
 <path d="m204.8 128h-119.47v42.668h25.602v-8.5352c0-4.5273 1.7969-8.8672 5-12.066 3.1992-3.2031 7.5391-5 12.066-5h34.133c4.5273 0 8.8672 1.7969 12.07 5 3.1992 3.1992 4.9961 7.5391 4.9961 12.066v8.5352h25.602z"/>
 <path d="m349.87 162.13h34.141v34.133h-34.141z"/>
 <path d="m128 162.13h34.141v34.133h-34.141z"/>
 <path d="m170.67 290.13v28.852c7.6016-11.441 17.41-21.25 28.852-28.852z"/>
 <path d="m68.266 358.4h51.207v51.199h-51.207z"/>
 <path d="m68.266 494.93h85.336v-204.8h-85.336v51.199h51.199c4.5273 0 8.8711 1.8008 12.07 5 3.1992 3.1992 5 7.543 5 12.066v51.203c0 4.5234-1.8008 8.8672-5 12.066-3.1992 3.1992-7.543 5-12.07 5h-51.199z"/>
 <path d="m51.199 494.93v-204.8h-17.066v196.27c0 2.2656 0.89844 4.4336 2.5 6.0352 1.6016 1.6016 3.7695 2.5 6.0352 2.5z"/>
 <path d="m307.2 187.73v34.133c0 2.2617 0.89844 4.4336 2.5 6.0352 1.6016 1.5977 3.7695 2.4961 6.0352 2.4961h102.4c2.2656 0 4.4336-0.89844 6.0352-2.4961 1.6016-1.6016 2.5-3.7734 2.5-6.0352v-34.133h-25.602v8.5352-0.003906c0 4.5273-1.7969 8.8672-5 12.07-3.1992 3.1992-7.5391 4.9961-12.066 4.9961h-34.133c-4.5273 0-8.8672-1.7969-12.07-4.9961-3.1992-3.2031-4.9961-7.543-4.9961-12.07v-8.5312z"/>
</svg>
