<?xml version="1.0" encoding="UTF-8"?>
<svg width="512pt" height="512pt" version="1.1" fill="currentColor" viewBox="0 0 512 512" xmlns="http://www.w3.org/2000/svg">
 <path d="m208.94 180.02c-8.3008 2.3008-14.379 9.8398-14.379 18.898v1.5781c0 10.859 8.8008 19.66 19.66 19.66h83.504c10.859 0 19.66-8.8008 19.66-19.66v-1.5781c0-9.0195-6.1016-16.539-14.379-18.898l49.859-83.301c2.0391-3.3789-1.4805-7.4805-5.0586-5.8398-5.3789 2.3984-11.32 3.6797-17.559 3.6797-11.359 0-21.762-4.3984-29.5-11.578-1.8398-1.6797-4.7617-1.3398-6.1406 0.76172-8.1992 12.641-22.422 21.039-38.602 21.039-16.18 0-30.422-8.3984-38.602-21.039-1.3789-2.1016-4.3008-2.5-6.1406-0.76172-7.7383 7.1602-18.121 11.578-29.5 11.578-6.2422 0-12.18-1.3398-17.559-3.6797-3.6406-1.5781-7.1211 2.4609-5.0586 5.8398l49.859 83.301zm47.059-92.98c16.941 0 30.719-13.781 30.719-30.719 0-16.941-13.781-30.719-30.719-30.719-16.941 0-30.719 13.781-30.719 30.719 0 16.941 13.781 30.719 30.719 30.719zm76.801 276.48h-5.1211l-25.602-122.88h-92.16l-25.602 122.88h-5.1211c-11.32 0-20.48 9.1602-20.48 20.48v25.602h194.56v-25.602c0-11.32-9.1602-20.48-20.48-20.48zm30.719 66.559h-215.04c-11.32 0-20.48 9.1602-20.48 20.48v35.84h256v-35.84c0-11.32-9.1602-20.48-20.48-20.48z"/>
</svg>
