<?xml version="1.0" encoding="UTF-8"?>
<svg width="512pt" height="512pt" version="1.1" fill="currentColor" viewBox="0 0 512 512"
    xmlns="http://www.w3.org/2000/svg">
    <path
        d="m73.422 312.48c23.68-8.5391 39.18-31.32 38.422-56.48 0.76172-25.16-14.738-47.941-38.422-56.48-3.1016-1.0586-5.5391-3.4805-6.6602-6.5391-1.2188-3.2188-0.92188-6.8008 0.80078-9.7812l31.379-54.34c1.6797-2.9219 4.5586-4.9414 7.8594-5.5391 3.2383-0.57812 6.582 0.28125 9.1211 2.3789 18.16 15.039 44.422 16.379 66.918 3.3789 22.5-12.98 34.461-36.398 30.52-59.637-0.55859-3.2383 0.35938-6.5586 2.4805-9.0781 2.1797-2.5586 5.3594-4.0391 8.7383-4.0391h62.898c3.3984 0 6.6211 1.5 8.7812 4.1211 2.1211 2.5 3.0195 5.8398 2.4219 9.0586-3.8984 24.539 8.1992 48.859 30.141 60.559 21.078 13.141 48.199 11.461 67.504-4.1992 2.5-2.1016 5.8203-3 9.0586-2.4414 3.3398 0.57812 6.2617 2.6211 7.9609 5.5586l31.102 53.863h-0.019531c1.7812 3.0586 2.0586 6.7617 0.76172 10.039-1.1406 3.0391-3.6211 5.3984-6.7383 6.3594-24.699 7.8789-41.461 30.84-41.461 56.762s16.762 48.879 41.461 56.762c3.1211 0.96094 5.6016 3.3203 6.7383 6.3594 1.3008 3.2812 1.0195 6.9805-0.76172 10.039l-31.359 54.34c-1.6211 2.8398-4.3984 4.8398-7.6211 5.4414-3.2383 0.64063-6.6211-0.16016-9.2383-2.1992-17.578-13.621-43.238-14.18-65.418-1.3789-22.18 12.801-34.539 35.301-31.52 57.34 0.46094 3.2812-0.51953 6.6016-2.6992 9.1016-2.1406 2.4805-5.2617 3.8984-8.5195 3.8789h-64.199c-3.1992 0.019531-6.2422-1.3398-8.3594-3.7383-2.2188-2.4805-3.2617-5.8008-2.8984-9.1211 0.85938-7.8203-0.21875-15.738-3.1016-23.059-0.019532-0.039062-0.058594-0.078125-0.078126-0.12109l25.5-44.859-0.019531-0.019531c32.719 5.8203 66.379-2.1406 93.062-21.961 26.66-19.82 43.98-49.762 47.859-82.758 3.8789-33-6.0195-66.141-27.379-91.602-21.34-25.461-52.262-41-85.422-42.941-33.18-1.9414-65.68 9.8984-89.84 32.699-24.18 22.801-37.879 54.578-37.859 87.797 0 29.16 10.578 57.34 29.781 79.297l-24.238 42.641c-8.9414 0.71875-17.52 3.8789-24.781 9.1602-2.6797 1.9805-6.0781 2.7188-9.3398 2.0586-3.1406-0.64062-5.8398-2.6016-7.418-5.3789l-31.738-54.98c-1.7188-2.9805-2.0195-6.5586-0.80078-9.7812 1.1211-3.0586 3.5586-5.4805 6.6602-6.5391zm180.78 21.941h1c15.32-0.21875 30.32-4.5 43.461-12.379 13.141-7.8984 23.961-19.141 31.34-32.559 14.102-24.262 15.762-53.801 4.4609-79.461l-19.641 34.559c-11.762 21.961-39.039 30.281-61.062 18.621l-7.1797-4.0781c-21.281-12.941-28.102-40.641-15.238-61.977l17.461-30.719c-25.059 5.1602-46.621 21-59.039 43.359-7.8398 13.359-11.961 28.578-11.941 44.082 0.039062 15.5 4.2188 30.699 12.121 44.039 2.6211 4.4414 2.6211 9.9414 0 14.379l-55.121 97c-0.55859 0.96094-0.73828 2.0781-0.48047 3.1406 0.19922 0.89844 0.76172 1.6602 1.5391 2.1211l45.801 26.02c0.80078 0.44141 1.7383 0.51953 2.6016 0.23828 1.0586-0.33984 1.9414-1.0781 2.4805-2.0391l55.082-96.961c2.4805-4.5195 7.2188-7.3398 12.359-7.3789z" />
</svg>