<?xml version="1.0" encoding="UTF-8"?>
<svg width="512pt" height="512pt" version="1.1" fill="currentColor" viewBox="0 0 512 512"
    xmlns="http://www.w3.org/2000/svg">
    <path
        d="m429.14 256c0-29-7.2812-57.559-21.078-82.84-46.941-6.8398-90.523-3.7617-129.92 9.1797 17.441 8.1992 33.68 17.98 48.52 29.219 0.078125 0.039062 0.16016 0.10156 0.21875 0.16016 37.039 28.141 66.477 66.379 87.68 113.88 9.5781-21.801 14.582-45.539 14.582-69.602z" />
    <path
        d="m253.36 172.36c42.82-17.922 90.562-24.262 142.16-18.922-5.0586-6.8789-10.602-13.359-16.602-19.398-10.461-10.539-22.262-19.762-35.141-27.34-25.262-14.879-54.043-23.078-83.48-23.801-29.398 37.238-48.52 76.539-57.043 117.12 15.922-11.082 32.621-20.32 49.859-27.559 0.078125-0.039063 0.16016-0.078126 0.23828-0.10156z" />
    <path
        d="m403.76 346.28c-17.559-44.082-42.02-80.301-72.898-107.92 1.6406 19.219 1.2812 38.219-1.0391 56.738 0 0.058594 0 0.12109-0.019531 0.16016-5.8594 46.141-24.262 90.723-54.758 132.84 24.238-2.6797 47.719-10.441 68.742-22.82 24.5-14.441 45.16-34.781 59.98-58.996z" />
    <path
        d="m168.22 405.28c25.262 14.879 54.043 23.078 83.48 23.801 29.398-37.238 48.52-76.539 57.043-117.1-15.922 11.082-32.621 20.32-49.859 27.539-0.078124 0.039063-0.16016 0.078125-0.23828 0.10156-33 13.82-68.941 20.762-107.28 20.762-11.398 0-23.039-0.60156-34.879-1.8398 13.879 18.859 31.5 34.801 51.758 46.738z" />
    <path
        d="m82.84 256c0 29 7.2812 57.559 21.078 82.82 46.961 6.8398 90.562 3.7617 129.94-9.1602-17.441-8.1797-33.699-17.961-48.52-29.219-0.078125-0.039062-0.16016-0.10156-0.21875-0.16016-37.039-28.141-66.477-66.402-87.68-113.88-9.5781 21.84-14.582 45.559-14.582 69.621z" />
    <path
        d="m108.24 165.7c17.559 44.082 42.02 80.324 72.918 107.96-1.6406-19.219-1.2812-38.242 1.0391-56.762 0-0.058594 0-0.12109 0.019531-0.17969 5.8594-46.121 24.262-90.723 54.758-132.8-24.238 2.6602-47.719 10.422-68.742 22.801-24.48 14.441-45.16 34.762-60 58.98z" />
</svg>