<?xml version="1.0" encoding="UTF-8"?>
<svg width="512pt" height="512pt" version="1.1" fill="currentColor" viewBox="0 0 512 512"
    xmlns="http://www.w3.org/2000/svg">
    <path
        d="m165.37 128.66c-1.9727 1.793-3.2734 4.207-3.6914 6.8398 0.011718 0.35938 0.046874 0.71484 0.097656 1.0703 0.125 0.31641 0.1875 0.60156 0.28516 0.88281l-0.003906 0.003906c0.89844 0.88672 1.9961 1.5469 3.2031 1.9219 1.5117 0.56641 3.0547 0.97656 4.6055 1.4219l0.15625 0.03125h-0.003907c0.92578 0.42969 1.9531 0.58203 2.9648 0.44141 0.50391-0.12891 1.1055-1.0391 1.3555-1.8906 0.31641-0.75781 0.50391-1.6016 0.72656-2.1445s0.44141-0.85156 0.66016-0.85156 0.47266 0.31641 0.69141 0.85156l0.003906-0.003906c0.30078 0.79688 0.45312 1.6406 0.44141 2.4922 0.15234 1.6953-0.51562 3.3594-1.7969 4.4766-1.8359 1.2031-4.1133 1.5273-6.2109 0.88672l0.15625 0.0625c-1.8008-0.21094-3.582-0.5625-5.3281-1.043-0.47656-0.15625-0.94922-0.3125-1.4531-0.50391 0.94141 2.9258 2.3516 5.6836 4.168 8.168 1.6953 0.70312 3.332 1.5469 4.8867 2.5234 4.668 3.0273 7.3477 7.1562 6.3086 8.1055-0.62891 0.60156-2.1445 0.25391-4.1016-0.69531 1.1992 8.4531 2.5234 18.039 9.6523 22.734 0.88281 0.25781 1.793 0.40625 2.7109 0.44141 2.9453-0.03125 5.8672-0.5 8.6719-1.3867 2.3008-0.63281 3.8438-1.168 4.3477-0.60156 0.44531 0.53516-0.34375 2.207-2.6172 3.9414h0.003907c-1.4961 1.1094-3.1719 1.9531-4.9531 2.4922 5.8047 5.8047 28.398-1.6719 33.898-5.0742 9.0781-5.6016 19.328-8.4844 28.316-13.969 0.28516-0.16016 0.53516-0.31641 0.80078-0.47656-0.90234-0.15625-1.7812-0.42578-2.6172-0.80078-3.2148-1.6445-5.8555-4.2266-7.5664-7.4062-1.0703-2.1758-1.4531-3.4688-1.1367-3.6289s1.293 0.72656 2.8008 2.3984c1.9922 2.2461 4.4727 4.0039 7.25 5.1406 1.7578 0.55859 3.6445 0.54688 5.3945-0.03125 2.0859-0.75391 3.9453-2.0352 5.3906-3.7188 1.75-1.9258 3.2305-4.0781 4.3984-6.4023 0.34375-0.69531 0.72266-1.5117 1.0703-2.3047h0.003906c-1.1836 1.9219-2.668 3.6367-4.4023 5.082-1.1328 0.84375-2.375 1.5312-3.6914 2.0469-0.50391 0.21875-0.94531 0.44141-1.5742 0.66406-0.3125 0.125-0.50391 0.21875-0.87891 0.34375-0.38281 0.11719-0.77344 0.19141-1.168 0.21875-1.6953 0.078125-3.3594-0.44922-4.7031-1.4766-0.88281-0.61328-1.707-1.3125-2.457-2.082-1.1992-1.2305-1.7305-2-1.5742-2.2383s1.1055 0.03125 2.6211 0.80078c0.75781 0.34766 1.6406 0.85156 2.6484 1.2617l-0.003906-0.003906c0.91016 0.47266 1.9453 0.66016 2.9648 0.53516l0.31641-0.027344c0.058594-0.097656 0.09375-0.16016 0.15625-0.16016l0.60156-0.34766c0.47266-0.28516 0.94531-0.56641 1.4531-0.84766h-0.003906c0.027343-0.039062 0.074218-0.0625 0.12109-0.0625 0.10547-0.19141 0.1875-0.39453 0.25391-0.60156 0.30469-0.71875 0.37891-1.5117 0.21875-2.2734-0.035157-0.24609-0.20313-0.45312-0.4375-0.53516-0.0625-0.03125-0.28516-0.09375-0.31641-0.058594-0.30078-0.082031-0.60938-0.125-0.91797-0.12891-1.7852 0.21875-3.5938-0.058594-5.2305-0.80078-1.1094-0.72656-1.9609-1.7852-2.4297-3.0273-0.13672-0.33203-0.21875-0.68359-0.25-1.0391-1.168-5.5781 4.4453-3.3711 6.2422-5.457 1.2617-1.4141-0.19141-2.2344 0.28516-3.9727 0.59766-2.1758 2.5195-2.2734 3.1523-4.0664 0.91016-2.6172-1.3555-7.1289 4.2891-6.9688 1.1562-0.050781 2.3086 0.19922 3.3438 0.72266 0.63672 0.32422 1.2266 0.72656 1.7617 1.2031 0.25391 0.25391 0.50391 0.60156 0.75781 0.91016l0.19141 0.22266 0.1875 0.375v0.003906c0.074218 0.11719 0.14062 0.24609 0.1875 0.37891 0.16016 0.44141 0.34766 0.75781 0.53516 1.2617 0.16016 0.60156 0.28516 1.1992 0.39844 1.7695l0.003906-0.003906c0.31641 1.8945 0.44141 3.8164 0.375 5.7344-0.066406 2.375-0.33594 4.7383-0.80078 7.0664 0.0625-0.125 0.097657-0.25391 0.16016-0.375 2.2734-4.9766 3.2695-10.441 2.9023-15.898-0.56641-3.9414-5.5781-4.8242-9.0781-4.1289-7.4766 1.5117-10.562 6.3359-11.262 5.707-0.15625-0.12891-0.09375-0.47656 0.16016-1.0703 0.32422-0.875 0.80469-1.6875 1.4141-2.3984 0.070312-0.035156 0.125-0.089844 0.16016-0.15625-0.1875 0.097656-0.37891 0.1875-0.60156 0.28516-3.7266 2.5156-7.2773 5.2891-10.625 8.2891l-2.6172 2-0.91406-3.0273c-0.34375-1.1367-0.80078-2.4297-1.0391-3.5312-0.23828-1.1055-0.39844-2.1133-0.62891-3.1992h-0.003906c-1.2461-4.1719-3.4102-8.0078-6.3398-11.23-1.543-2.0469-2.8984-3.8438-4.5391-6.0859v0.003906c-1.7148-2.3555-2.8711-5.0742-3.375-7.9492-0.11328-0.61328-0.1875-1.2344-0.21875-1.8594-0.03125-0.375-0.03125-0.44141-0.0625-1.0703l-0.027344-0.87891c-0.03125-1.2305-0.03125-2.4609-0.0625-3.6289h-0.003906c-0.027344-2.5195 0.25781-5.0273 0.85156-7.4727 0.44922-1.5586 1.1211-3.0391 2-4.4023-0.65234-0.55469-1.1562-1.2539-1.4805-2.0469-0.59375-1.6641-0.53906-3.4883 0.15625-5.1133 0.98828-2.25 2.3516-4.3203 4.0352-6.1133 2.1719-2.3789 4.5469-4.5625 7.0977-6.5273-0.47266 0.12891-0.94531 0.21875-1.4531 0.34766-1.668 0.375-3.3672 0.60547-5.0781 0.69141-2.3086 0.09375-4.582-0.61328-6.4297-2-1.1016-0.96484-1.9531-2.1758-2.4922-3.5312-5.0781 2.5117-10.512 4.2227-16.113 5.0742-2.8359 0.39844-5.7227 0.14844-8.4531-0.72266-2.0234-0.75391-3.7812-2.0938-5.043-3.8477-3.4219 1.8828-7.2305 2.9492-11.133 3.1172-1.3633-0.007812-2.6914-0.42578-3.8125-1.1992-0.5-0.29688-0.92578-0.69531-1.2617-1.168-0.1875-0.17578-0.34766-0.375-0.47266-0.59766-9.6953 16.57-9.0977 41.441-9.1914 59.801 0.57031-0.42578 1.1055-0.90234 1.6016-1.418 1.0664-1.1797 1.8242-2.6016 2.2148-4.1406 0.34375-1.1992 0.69141-1.9531 1.0703-1.9531 0.37891 0 0.69141 0.69141 1.0078 2.1133 0.35156 2.1562-0.097656 4.3633-1.2617 6.2109-1.7227 2.3203-3.7109 4.4297-5.9258 6.2852z" />
    <path
        d="m266.21 148.87c0.75781-2.793 1.0977-5.6836 1.0117-8.5742 0.015625-1.5-0.089844-3-0.31641-4.4805-0.058594-0.26562-0.10156-0.53125-0.125-0.80078-0.12891-0.39844-0.28906-0.78906-0.47266-1.168l-0.097656-0.15625c-0.058594-0.03125-0.03125-0.097656-0.09375-0.12891h0.003906c-0.14453-0.125-0.30469-0.23047-0.47656-0.3125-0.12109-0.054688-0.24609-0.097656-0.375-0.125 0.054688 0.60156 0.011719 1.207-0.12891 1.793l-0.03125 0.12891c-0.28516 0.71875-0.62109 1.4141-1.0078 2.082-0.13281 0.27344-0.31641 0.51953-0.53906 0.72656l-0.47266 0.50391c-0.44141 0.39844-1.1367 1.1641-1.3867 1.4141v0.03125h-0.03125v0.003907c-0.015625 0.17969-0.046875 0.35937-0.09375 0.53516-0.015625 0.19141 0.003906 0.38281 0.0625 0.56641 0.14844 0.6875 0.20312 1.3867 0.16016 2.0859-0.070312 0.50391-0.21875 0.99219-0.44531 1.4492-0.21875 0.36719-0.47266 0.71875-0.75391 1.0391l-0.0625 0.12891-0.09375 0.0625c-1.4883 0.92969-3.1523 1.543-4.8906 1.7969 1.3984 1.1797 3.0508 2.0195 4.8242 2.4609 0.53125 0.16797 1.0234 0.44141 1.4531 0.79687 0.79297 0.64844 1.2852 1.5938 1.3555 2.6172 0 0.21875-0.03125 0.39844-0.03125 0.60156 1.3047-1.5039 2.3398-3.2188 3.0547-5.0781z" />
    <path d="m160.57 73.094v0.03125c0-0.019531 0.015625-0.03125 0.035156-0.03125z" />
    <path
        d="m319.04 97.602c0.84766-0.76562 1.7539-1.4688 2.7031-2.0977l1.125-0.73438-0.26562-1.3203c-0.042968-0.25391-0.10156-0.52344-0.125-0.80078l-0.17969-2-2.8008 0.28516h0.003906c-0.40234-0.011719-0.80469-0.054688-1.1992-0.12891l-2.1523-0.375-0.18359 2.1797c-0.09375 1.1328-0.21484 2.2344-0.36719 3.3672l-0.50391 3.7422 3.3789-1.6875z" />
    <path
        d="m179.15 59.562c0.31641 0.31641 0.76172 0.69531 0.80078 0.56641v0.003906c0.5 0.21875 1.0547 0.29297 1.5977 0.21875 1.7617-0.17187 3.4805-0.65234 5.0781-1.4141 1.8594-0.80078 3.7188-1.832 5.9297-2.9375l2.2383-1.1328 1.1641 2.4609c0.65625 1.4883 1.918 2.6211 3.4688 3.1211 1.9648 0.55859 4.0312 0.69531 6.0547 0.39844 5.9062-0.97266 11.648-2.7695 17.059-5.332l2.7773-1.1992 0.66016 2.8984c0.19922 1.457 0.77734 2.8359 1.6719 4 1.0273 0.78516 2.2734 1.2344 3.5625 1.293 1.4531 0.066407 2.9062 0.035157 4.3516-0.09375 1.3086-0.074218 2.6055-0.26562 3.8789-0.56641 4.4492-0.91406 6.8008-2.6484 7.1992-2.1758 0.046875 0.050781 0.058594 0.125 0.03125 0.1875 0.28516-0.0625 0.50391-0.09375 0.56641 0 0.25391 0.44531-2.3359 2.7109-6.5586 6.9062v0.003906c-2.5352 2.4453-4.9062 5.0586-7.0938 7.8203-1.2344 1.5195-2.2227 3.2188-2.9336 5.043-0.25781 0.58984-0.28125 1.2539-0.0625 1.8594 0.097656 0.28516 0.60156 0.66406 1.4844 0.98047l3.0547 1.0703-2.1133 2.7734c-1.1055 1.3867-1.8906 3.0039-2.3008 4.7305-0.42969 2.0195-0.60938 4.0859-0.53516 6.1484 0.03125 1.1367 0.09375 2.3047 0.125 3.4688l0.03125 0.88281s0.0625 0.50391 0.0625 0.75781c0.097656 0.56641 0.097656 1.2617 0.21875 1.7031h0.003906c0.41797 2.0273 1.293 3.9375 2.5547 5.582 1.4805 2.0195 2.9336 4 4.3789 5.9297 1.4492 1.9297 2.9648 3.8164 4.3516 6.0547v-0.003907c1.75 3.1211 2.793 6.5859 3.0625 10.152 2.6914-2.332 5.668-4.3125 8.8594-5.8945 1.9883-0.85156 4.1172-1.3203 6.2773-1.3867l2.1445-0.09375h-0.003906c0.80078-0.375 1.6211-0.70312 2.4609-0.98047 1.1758-0.37891 2.3945-0.58984 3.6289-0.62891 0.67969-0.058593 1.3672-0.066406 2.0469-0.03125 0.69141 0.125 1.3867 0.28516 2.1133 0.39844l0.53516 0.12891 0.16016 0.03125 0.007813 0.003906 0.28516 0.125h0.0625l0.19141 0.12891 0.84766 0.375 0.003906-0.003907c0.78125 0.375 1.4961 0.875 2.1094 1.4844 0.65625 0.62891 1.2305 1.3398 1.7031 2.1133 0.39062 0.77344 0.71875 1.5742 0.98047 2.3984 0.73438 3.1953 0.74219 6.5156 0.027344 9.7148-0.62891 3.168-1.5234 6.2812-2.6797 9.3008-0.56641 1.5117-1.1641 2.9961-1.7305 4.3984v0.003906c-0.46484 1.1523-0.99219 2.2773-1.5742 3.375 12.82-9.4297 23.285-21.699 30.574-35.848 5.7031-21.035 11.695-38.188-1.3242-58.309-9.6016-14.801-22.297-29.039-39.574-34.781-29.902-9.9609-69.445-2.7109-83.824 28.316-0.10156 0.23047-0.23828 0.44531-0.40234 0.63281-0.085938 0.40625-0.24609 0.78906-0.47266 1.1367 0.070312 0.42578 0.19922 0.83984 0.38281 1.2266 0.097656 0.1875 0.21875 0.35547 0.36328 0.50391z" />
    <path
        d="m422.68 398.73c0.19141 0.03125 0.34766 0 0.53516 0.03125 0.98047-2.207 2-7.2539-0.39844-8.168v0.003906c-0.27734-0.11328-0.54297-0.25-0.80078-0.40234-0.35156 1.2578-1.043 2.3906-2 3.2812-0.0625 0.69141-0.125 1.3867-0.15625 2.1133-0.023437 0.8125 0.19922 1.6133 0.63281 2.2969 0.61719 0.51172 1.3867 0.80859 2.1875 0.84375z" />
    <path
        d="m387.6 453.89c-1.2266 0.80078-2.3008 2.6211-3.625 3.5312-2.9375 2-5.332 2.6172-5.6484 1.9258s1.0117-2.1445 3.0938-4.6992c1.1992-1.4805 4.5391-3.8438 4.7305-5.707 0.39844-4-2.8008-0.72266-3.9102 0.12891-0.44141 0.31641-0.85156 0.56641-1.2266 0.80078-0.80078 0.80078-1.5156 1.6406-2.1758 2.2383h-0.003906c-1.0117 1.1094-2.2383 2.0117-3.6016 2.6484-0.40625 0.21094-0.87109 0.27734-1.3242 0.1875-0.31641-0.0625-0.50391-0.1875-0.56641-0.34766-0.0625-0.22266-0.003906-0.46094 0.15625-0.62891 0.21484-0.28125 0.39453-0.58984 0.53516-0.91797 0.097656-0.1875 0.25391-0.44141 0.37891-0.69141-1.1055 0.21875-1.8906 0.25391-2.1133-0.12891-2.1445-3.1992 13.781-6.4961 7.1992-11.57-2.5859-2-7.6016 0.28516-10.344 0.97656h0.003906c-3.957 1.1445-7.8438 2.5234-11.637 4.1328-6.3516 2.8516-12.895 5.2539-19.578 7.1992 1.4688 1.75 2.543 3.7969 3.1523 6 0.55469 2.0664 0.53125 4.25-0.066406 6.3086-0.3125 0.85156-0.66016 1.5742-0.94531 2.207h0.003906c-0.27344 0.47656-0.61328 0.91016-1.0117 1.293-0.63281 0.66406-1.1367 0.94922-1.4531 0.80078-0.31641-0.14844-0.50391-0.69141-0.44141-1.6016-0.03125-0.44141 0.125-1.0078 0.09375-1.5742-0.03125-0.56641 0-1.1367 0.03125-1.7344l0.003906-0.003906c-0.16016-3.3047-1.5273-6.4375-3.8477-8.8008-0.62891-0.69531-1.2617-1.3867-1.8867-2.0781-0.097656 0-0.19141 0.027344-0.25781 0.027344-0.1875 0-0.375-0.027344-0.56641-0.027344 0.097656 0.17188 0.18359 0.35156 0.25391 0.53516 0.80469 2.3477 1.043 4.8555 0.69141 7.3125-0.375 4.1875-1.8789 8.1953-4.3516 11.598-2.3633 2.8984-4.2578 3.0547-4.6953 2.6484-0.60156-0.53516 0.80078-2.3359 1.4805-4.5391 1.1406-3.3398 1.9023-6.8008 2.2695-10.312 0.27734-1.7578 0.24609-3.5508-0.09375-5.3008-0.34375-1.4727-0.86328-2.9023-1.543-4.2539-0.19141-0.37891-0.28516-0.69141-0.44531-1.0391-5.7656-2.293-10.316-6.8867-12.547-12.676-2.9961-8-4.2617-16.84-10.312-23.238-2.8711-3.0273-5.6758-6.0547-8.2617-9.3047-9.8711-12.359-29.707-21.566-45.949-15.766-13.809 4.9141-22 21.254-23.145 35.199h0.003906c-0.054687 0.64062-0.23828 1.2617-0.53906 1.832 2.1133 6.3672 3.7852 14.188 8.957 18.445 7.9141 6.1328 18.035 8.6719 27.91 7 0.17578-0.125 0.36719-0.23047 0.56641-0.3125-0.082031-0.51562-0.13672-1.0312-0.16016-1.5508-0.0625-1.3242-0.097656-2.6172-0.15625-3.875-0.015625-0.51172-0.089844-1.0195-0.21875-1.5156-0.070312-0.37891-0.1875-0.75-0.34766-1.1055-0.25391-1.0391-2.1758-2-3.8164-2.7734v0.003907c-1.4102-0.66797-2.7109-1.5547-3.8477-2.6211-0.69141-0.80078-0.97656-1.3867-0.75781-1.6992s0.85156-0.31641 1.8594-0.03125c0.97656 0.1875 2.3633 0.47266 4.0352 0.80078l0.003906-0.003907c1.0469 0.23047 2.0781 0.52344 3.0898 0.88672 0.44141 0.21875 0.94531 0.50391 1.4219 0.80078 0.125-1.8594 0.3125-3.125 0.87891-3.1992 0.69531-0.12891 1.8906 1.4805 2.7422 4.7266 0.84375 3.9453 1.4531 7.9336 1.8281 11.949 0.097656 0.80078 0.25391 1.543 0.39844 2.2695h0.003907c4.5039 5.4023 9.418 10.449 14.691 15.105 7.2227 5.7383 15.266 7.0625 23.902 9.4609v-0.003906c0.70312 0.19922 1.3516 0.55859 1.8945 1.0469 0.24219 0.125 0.47266 0.27344 0.69141 0.4375 10.691 8.4531 38.473 6.5586 49.953 2.0781 7.2852-2.8359 24.719-10.121 25.953-19.516-2.0195 0.3125-3.125-0.16016-3.2812-0.76172-0.85156-2.7734 7.5039-3.875 7.9102-7.0625v-0.125c0.17969-2.1328-0.98828-2.1328-2.0742-1.4453z" />
    <path
        d="m412.68 396c-1.8594-1.4141-3.9414-2.8672-6.0859-4.2227l-1.8281-1.1367c-0.44531-0.25391-1.1055-0.60156-1.2969-0.69141h0.003906c-2.2461 0.03125-4.4336 0.71094-6.3047 1.9531-1.2305 0.69141-2.4609 1.3555-3.6289 2-0.72266 0.34766-1.4219 0.69531-2.1133 1.0391-0.66406 0.25391-1.2617 0.39844-1.8594 0.63281-2.8008 0.75781-4.8242 1.2617-6.9688 2h0.003907c-1.9219 0.60547-3.8086 1.3203-5.6445 2.1445-2.582 1.1797-5.0039 2.6836-7.1992 4.4766-1.4805 1.5156-2.4297 2.3047-2.7109 2.1133-0.28516-0.19141 0.097657-1.3555 1.1367-3.2461l-0.003906-0.003906c1.8711-2.6406 4.2773-4.8516 7.0625-6.4961 1.8789-1.1367 3.8359-2.1289 5.8672-2.9609 2.0859-0.91016 4.6992-1.7656 6.8008-2.4609 0.60156-0.25391 1.2266-0.47266 1.7656-0.75781 0.47656-0.25391 0.94922-0.50391 1.4531-0.80078 1.1367-0.69141 2.3047-1.3867 3.5-2.1133 0.80078-0.47266 1.7031-0.91406 2.6172-1.3555l-0.007812 0.003907c-0.52734-0.79297-0.80859-1.7266-0.79688-2.6797 0.16016-14.535 1.7695-29.266 0.60156-43.801-1.168-14.695-7.7891-48.559-28.98-46.766-21.758 1.8281-36.574 16.492-37.523 38.219-0.31641 7.2539-1.4805 16.801 0.94922 23.777h-0.003907c1.25 3.6484 3.3555 6.9414 6.1484 9.6016 2.4609 2.4609 5.2656 4.6055 8.0391 7.7266 0.28125 0.14844 0.54688 0.31641 0.80078 0.50391 3.4766 2.7695 6.5 6.0664 8.957 9.7734-0.15625-1.6367-0.28516-3.3398-0.34766-5.1406-0.09375-3.0547-0.15625-6.3672-0.1875-9.7734-0.03125-0.34766-0.097657-0.66406-0.125-1.0117-0.0625-0.91016-0.16016-1.7969-0.25391-2.6797l-0.0625-0.66016c0-0.0625-0.03125-0.25391-0.03125-0.25391l-0.0625-0.28516-0.1875-1.1055-0.003906 0.003906c-0.097656-0.73047-0.27734-1.4492-0.53516-2.1406-0.16016-0.44531-0.31641-0.91406-0.47266-1.3555v-0.003906c-4.125-2.7422-7.7344-6.1914-10.66-10.188-2.9609-3.7539-4.918-8.2031-5.6758-12.926-0.44141-3.9727 0.66016-5.9609 1.293-5.9297 0.80078 0 1.1367 2.3359 2.3359 5.0156 1.6914 3.7969 3.8203 7.3789 6.3438 10.68 0.63281 0.85156 1.2266 1.6406 1.8594 2.4297 0.80859 0.37891 1.5859 0.80859 2.3359 1.293 1.4297 0.94141 2.7266 2.0781 3.8438 3.375 0.011718-5.4727-0.84766-10.91-2.5508-16.113-2.1133-6.1211-5.3906-9.5547-4.6992-10.125 0.28516-0.21875 1.2656 0.34766 2.8398 1.6016 0.98437 0.76562 1.8477 1.6797 2.5508 2.7109 0.47266 0.60156 1.0078 1.2617 1.4844 1.957 0.39844 0.75781 0.80078 1.543 1.2617 2.3633 3.7188 6.6523 4.7305 17.199 4.4766 27.906 0 1.543-0.027344 3.0547-0.058594 4.5703 0.34766 3.3711 0.62891 6.5898 0.80078 9.5234 0.125 3.1992-0.0625 6.1172-0.1875 8.543l-0.003906 0.007813c-0.082031 2.0195-0.3125 4.0352-0.69922 6.0234 0.03125 0.44141 0.0625 0.91016 0.097656 1.3555 4.3516 12.547 3.5312 26.93 3.4688 41.09 7.2852-2.3047 14.285-3.0586 20.117 0.50391l-0.003906-0.003906c3.7539-3.2148 8.2422-5.457 13.066-6.5312 7.1289-2.3008 11.699-7.0312 17.246-11.508l-0.15625-0.12891-0.097656-0.0625v-0.03125l-0.28516-0.21875-0.03125-0.0625-0.21875-0.25391-0.39844-0.50391c-0.50391-0.66016-0.89844-1.3945-1.168-2.1758-0.51953-1.3789-0.67969-2.8633-0.47266-4.3203 0.097656-0.90234 0.33203-1.7852 0.69141-2.6172-0.375 0.0625-0.75781 0.15625-1.1367 0.1875h0.003906c-1.6016 0.21875-3.2305 0.13281-4.8008-0.25-0.30859 1.9062-0.90625 3.7539-1.7656 5.4844-0.31641 0.60547-0.70703 1.168-1.168 1.6719-0.50391 0.47266-1.0078 0.91016-1.4805 1.293-0.92188 0.55469-1.9375 0.94141-2.9961 1.1367-1.3477 0.29688-2.7383 0.32812-4.0977 0.09375-0.91406-0.125-1.3867-0.28516-1.3867-0.50391s0.44141-0.47266 1.293-0.75781c0.39844-0.125 0.94922-0.28516 1.543-0.39844 0.59766-0.11719 1.1992-0.50781 1.9258-0.72656l-0.003906-0.003906c0.69531-0.32812 1.3516-0.73047 1.957-1.1992 0.25391-0.31641 0.50391-0.63281 0.75781-0.91406h-0.003907c0.22266-0.38672 0.41016-0.78906 0.57031-1.2031 0.66406-2.332 1.0469-4.7344 1.1367-7.1602l0.28516-3.0586 2.9961 1.5469h-0.003906c1.4414 0.54297 3.0078 0.65234 4.5078 0.3125 1.5938-0.19531 3.0586-0.98047 4.1016-2.2031 0.12109-0.19531 0.20703-0.40625 0.25-0.63281l0.0625-0.0625v-0.375h0.003907c-0.14453-0.18359-0.31641-0.34375-0.50391-0.47656-0.39062-0.39844-0.82812-0.74609-1.2734-1.1172z" />
    <path
        d="m416.53 384.45c-0.03125-0.1875-0.0625-0.34766-0.097656-0.50391-2.6172-1.543-6.3984 0.0625-9.332 1.9258l0.003907-0.003906c0.10938 0.042968 0.21484 0.09375 0.31641 0.15625l2.0469 1.2305v0.003907c2.1523 1.3594 4.2266 2.8438 6.2109 4.4414 0.57031-1 0.99609-2.0781 1.2656-3.1992 0.011719-1.3633-0.125-2.7227-0.41406-4.0508z" />
    <path
        d="m425.68 403.53c-3.0898 3.7852-6.4336-2.7109-8.6094 0.84766-2.207 3.6289 0.097656 9.5234 5.043 8.5781l0.003906 0.003907c1.2266-0.36719 2.332-1.0547 3.1992-2 2.3203-2.3203 3.6758-6.0469 0.36328-7.4297z" />
    <path
        d="m261.39 461.39c-4.6836 0.82422-9.4805 0.79297-14.156-0.089844 8.3125 10.371 20.355 17.074 33.551 18.668-0.56641-0.34766-1.1328-0.69531-1.6992-1.0703l-0.003906-0.003907c-6.4766-5.2148-12.406-11.078-17.691-17.504z" />
    <path
        d="m266.31 380c8.4375 0.94141 16.453 4.1797 23.176 9.3633 6.1523 1.1758 12.113 3.1797 17.723 5.9609 1.7461 0.94141 3.4414 1.9688 5.0781 3.0859 0.72266 0.53516 1.4219 1.0117 2.1758 1.6016 0.72266 0.66016 1.4141 1.293 2.1133 1.9219h-0.003907c2.1445 2.2227 4.0547 4.6562 5.7109 7.2656 2.6797 4.3203 4.0664 7.0938 3.5312 7.5664-0.53516 0.47656-3.0938-1.5781-6.4961-5.2695-1.7344-1.7969-3.7188-3.9414-6.0547-5.9609-0.56641-0.44141-1.1641-0.91406-1.7656-1.3867-0.60156-0.47266-1.4531-0.94531-2.1758-1.4492-1.4531-0.88281-2.9648-1.832-4.5703-2.6523-2.3672-1.2266-4.7305-2.2344-7-3.1992 2.3984 2.4609 4.8867 5.1719 7.6914 8.1055 11.48 12.141 12.551 30.59 27.402 39.293 6.6367-1.2969 13.062-3.4961 19.109-6.5273 0.81641-2.1055 1.4062-4.293 1.7656-6.5273 0.23828-2.8438 0.015625-5.7109-0.66406-8.4844-0.97266-3.5664-2.1328-7.082-3.4648-10.531-0.60156-1.8906-1.3867-3.7539-2.0859-5.5469-0.69141-1.7344-1.3242-3.7188-1.9531-5.043-1.2344-2.543-2.9727-4.8086-5.1055-6.6562-1.6094-1.4648-3.1055-3.0469-4.4805-4.7305-0.87891-1.2656-1.2266-2.0859-0.97656-2.3633 0.25391-0.28125 1.1055 0.058593 2.3984 0.87891 1.3242 0.72656 3.0938 1.7344 5.4258 3.2812 2.9805 1.832 5.4414 4.3945 7.1562 7.4453 0.98047 1.7969 1.5469 3.3711 2.3672 5.168 0.56641 1.3867 1.1641 2.7773 1.6992 4.2617v-0.003906c-0.28125-11.129-5.2305-21.625-13.637-28.922-0.52344-0.26953-0.99609-0.63281-1.3867-1.0742-7.7578-8.6719-14.566-12.867-17.199-24.473-9.3555 12.445-23.059 20.902-38.375 23.688-10.664 1.1133-63.105-6.8867-70.957 6.7461-0.28516 9.3008-1.1055 21.348 3.8789 29.355 5.832-23.145 24.344-37.934 49.949-34.188z" />
    <path
        d="m287.2 371.65c10.531-3.2422 29.926-15.668 33.391-27.621h0.003906c-0.16797-6.2422 0.20312-12.488 1.1016-18.668 0.89063-7.1719 3.2773-14.078 7-20.273-0.13281-0.26172-0.25-0.52734-0.34766-0.80078-5.832-18.855-18.477-34.277-25.383-52.602-2.2656-5.8516-3.0977-12.16-2.4297-18.398 0.14453-8.8516 0.79688-17.684 1.957-26.457 1.2656-15.07 2.3047-27.684 3.8789-27.602 1.3555 0.0625 2.7109 12.457 1.4219 28.102 0 0.058594-0.03125 0.125-0.03125 0.1875 0.1875 0.1875 0.375 0.39844 0.56641 0.62891 0.1875 0.12891 0.34375 0.34766 0.53516 0.50781 0.73047-0.10156 1.4688-0.046875 2.1758 0.15625 16.43 5.043 86.652 12.141 74.828-22.422-4.4492-12.961-12.586-23.305-20.527-34.211-8-10.977-15.484-21.824-26.398-30.086v0.003906c-1.3008-0.94141-2.0508-2.4648-2-4.0703-0.60156-1.0273-0.77344-2.25-0.47656-3.4023 2.2031-6.3984 3.2734-13.133 3.1562-19.902-0.94922-7.6641-8-17.602-16.684-13.367-0.9375 0.45703-1.9961 0.61328-3.0273 0.44141-0.31641 0.31641-0.63281 0.69141-0.94922 1.0703h0.003906c-0.39844 0.51172-0.69531 1.0859-0.88672 1.7031 0.03125 0.50391 0.0625 1.0078 0.097656 1.4805 0.070313 0.20703 0.15234 0.40625 0.25391 0.60156 0.11328 0.11719 0.20703 0.25391 0.28125 0.39844 0.097656 0 0.12891 0 0.12891 0.03125 0.058594-0.058594 0-0.058594 0.03125-0.058594 0.125-0.03125 0.125 0 0.34375-0.03125 0.80078-0.097656 2.3359-0.63281 4.2578-1.0117l5.457-1.0078-2.1133 5.332c-0.26562 1.125-0.125 2.3086 0.39844 3.3398l0.125 0.31641 1.168 3.3125-2.8984 1.1055v-0.003906c-1.4062 0.61328-2.7031 1.4453-3.8477 2.4609-1.2539 1.0078-2.4336 2.1055-3.5352 3.2773-1.0391 1.1055-2 2.207-2.8398 3.2461-0.85156 3.6016-1.8594 7.2578-2.8984 11.008 2.3008-1.1211 4.875-1.5469 7.4102-1.2305 1.8594 0.50391 2.9648 1.293 2.9961 2.1758 0.03125 0.88281-1.1055 1.6719-2.8008 2.3359-1.3867 0.80078-3.2812 1.5117-5.1719 2.6172-0.37891 0.21875-0.72266 0.44141-1.0703 0.66016 3.2812 5.6016 5.1719 11.828 8.5742 17.535 4.1641 6.9688 6.2422 16.145 11.828 21.977h0.003906c0.26563 0.28906 0.48828 0.62109 0.65625 0.97656 0.88281 0.87891 1.8281 1.7305 2.7773 2.6172 0.85156 0.63281 1.7305 1.293 2.6484 1.957 0.66406 0.53516 1.7031 1.1055 2.5547 1.668 3.625 2.3047 7.4414 4.1953 10.941 6.1211 3.1836 1.6758 6.2305 3.6055 9.1133 5.7656 5.1406 4.1016 6.6562 7.4453 6.2109 8-0.62891 0.80078-3.7852-1.7695-8.668-4.2266-2.5898-1.293-5.6797-2.7109-9.2734-4.2891-2.8398-1.2617-5.9609-2.6797-9.1758-4.4766 2.1406 2.5039 3.9805 5.2422 5.4844 8.168 0.63281 1.4141 1.168 2.6797 1.5781 3.7852h0.003906c0.30469 0.91797 0.50391 1.8711 0.59375 2.8359 0.22266 1.5742 0.16016 2.5234-0.25391 2.6797-0.41016 0.15625-1.1328-0.47266-2.0469-1.7656-0.47266-0.63281-0.94922-1.543-1.6016-2.3633-0.65234-0.82031-1.3555-1.7344-2.0781-2.7422-3.125-4.1953-8.832-8.9258-14.289-16.051h0.003906c-0.83594-1.0859-1.582-2.2383-2.2383-3.4375-6.1797-1.7695-11.293-5.6758-17.375-7.8203-8.0156-3.0312-16.465-4.7617-25.023-5.1172-0.085937 0.007812-0.17188-0.003906-0.25391-0.03125-1.1055 0.88281-2.2031 1.7656-3.3711 2.6484-6.4336 4.8242-12.676 10.719-19.602 14.914-7.5352 4.5703-16.461 6.5938-23.836 11.133-8.4727 5.3828-17.637 9.5859-27.246 12.488-0.39844 0.28125-0.80078 0.53125-1.2617 0.80078-3.1797 2.0039-6.5234 3.7344-10 5.1719-2.5859 1.1992-4.3984 2-4.8555 1.3867s0.37891-2.2695 2.5234-4.3516c0.50391-0.47266 1.1055-0.94531 1.6992-1.4141h0.003906c-5.1836 0.11328-10.156-2.0508-13.602-5.9297-6.9297-2.0977-12.457-7.3477-14.914-14.16-0.22656 0.10938-0.44141 0.24219-0.63281 0.40234-0.71484 0.69922-1.6836 1.0742-2.6797 1.043-0.125 0.058594-0.28516 0.125-0.39844 0.1875h-0.003906c0.60156 1.0508 1.0664 2.1719 1.3867 3.3398 1.7969 5.6172 2.3164 11.566 1.5156 17.41-0.82031 4.7305-2.6797 6.8008-3.2812 6.625-0.75781-0.25781-0.1875-3.0273-0.47266-6.875v-0.003906c-0.35547-5.2812-1.3086-10.508-2.8398-15.574-0.375-1.293-0.90234-2.5312-1.5742-3.6953-0.69922-1.0273-1.5039-1.9766-2.4023-2.8359-0.73438-0.70313-1.5234-1.3477-2.3633-1.9219-4.5703-1.5742-9.3945-2.4922-13.973-4.1016-0.023438 0-0.042969-0.011719-0.058594-0.03125-0.19141-0.027344-0.38281-0.070312-0.57031-0.125-0.16016 0.1875-0.31641 0.375-0.47266 0.59766-0.82031 0.85156-1.6445 1.6719-2.4336 2.4297-0.84766 0.66406-1.668 1.2969-2.457 1.8633h0.003906c-1.3594 0.95703-2.7812 1.8203-4.2578 2.582-2.5195 1.3867-4.2891 2-4.7617 1.3867s0.47266-2.1758 2.3633-4.3203c0.28516-0.28516 0.63281-0.63281 0.98047-0.94922v0.003906c-1.5195 0.51172-3.0664 0.93359-4.6367 1.2617-4.5117 0.87891-7.2539 0.50391-7.3789-0.19141-0.12891-0.69531 2.4922-1.6992 6.2422-3.4023h0.003906c4.9922-2.1836 9.8281-4.7109 14.469-7.5703 0.72656-0.47266 1.3555-0.91406 2-1.3555 1.0742-1.1992 2.2539-2.3008 3.5352-3.2773 0.53516-0.375 1.0078-0.66016 1.4805-0.94531h-0.003907c3.6484-4.1719 6.7344-8.8047 9.1797-13.781-2.3516-5.832-2.5078-12.32-0.44141-18.258-0.097656-0.15625-0.1875-0.28516-0.28516-0.47266-1.3242-2.2383-2-5.4258-0.47266-6.3711 0.89453-0.48438 1.9805-0.44922 2.8359 0.09375 0.33203 0.16797 0.64844 0.35938 0.94922 0.57031 0.28516-0.39844 0.56641-0.85156 0.85156-1.2617 0.058594-14.223-0.16016-32.324 3.8438-47.965-0.51172-0.042969-1.0078-0.20703-1.4453-0.47266-0.50391-0.31641-0.19141-0.21875-0.60156-0.28516 0 0.03125-0.25391 0.0625-0.37891 0.03125v0.003906c-0.28906 0.41016-0.64062 0.76953-1.043 1.0703-6.5898 5.0117-5.7344 14.949-5.4844 22.168 0.25391 7.8203-3.4727 13.023-4.668 20.465h0.003906c-0.10937 1.0469-0.64062 2.0039-1.4727 2.6445-0.83203 0.64453-1.8906 0.92188-2.9297 0.76562-21.98 10.309-77.223 50.891-51.398 78 15.359 16.113 44.305 30.238 66.473 33.836 0.71094-0.097656 1.4375 0.023438 2.082 0.34375 0.097656 0.003907 0.19531 0.027344 0.28516 0.0625 0.09375-7.8828 1.2266-14.156 2.6484-14.188 1.4219-0.03125 2.6484 6.8398 2.6484 15.262v0.80078l-0.03125 0.21875v0.03125l0.03125 0.19141c0.0625 0.50391 0.15625 1.0078 0.21875 1.5117 0.03125 0.34766 0.0625 0.66406 0.097656 1.0078h-0.003906c3.625 4.0391 6.1797 8.918 7.4414 14.191 3.1562 11.695 7.5078 22.859 11.602 34.242 9.6016 26.551 5.457 54.934 17.82 80.758 0.3125 0.68359 0.47266 1.4258 0.46875 2.1758 1.4531 3.1094 3.2734 6.0312 5.4258 8.707 7.3164-6.2109 21.125-4.5703 30.207-5.043 14.84-0.73828 31.93 3.6758 46.328-0.73828zm-11.18-31.648c1.5781-1.8086 3.9141-2.7695 6.3086-2.5898 1.4219-0.023437 2.8164 0.38672 4 1.168 0.91406 0.60156 0.94531 1.168 0.85156 1.4805-0.12891 0.37891-0.85156 0.31641-1.5156 0.47656-0.99219 0.125-1.9727 0.32422-2.9336 0.59766-1.1055 0.31641-2.5508 1.1055-2.7422 1.7344-0.09375 0.25391-0.03125 0.25391 0.0625 0.72266v0.003906c0.085938 0.11719 0.16016 0.24609 0.22266 0.37891v0.0625l0.03125 0.03125 0.21875 0.34375c0.37891 0.66406 0.37891 0.34766 0.56641 0.63281h0.003906c1.2344 0.96094 2.707 1.5703 4.2578 1.7656 1.2656 0.24609 2.5703 0.19141 3.8125-0.15625 0.80078-0.29688 1.5156-0.78125 2.082-1.4219 0.375-0.56641 0.80078-0.97656 1.1641-0.97656 0.36328 0 0.69531 0.50391 0.80078 1.543v0.003906c-0.054688 1.5781-0.80469 3.0547-2.0469 4.0352-1.7852 1.3164-3.9648 1.9844-6.1797 1.8906-2.6992-0.023437-5.3086-0.95703-7.4141-2.6484-0.59766-0.5625-1.1289-1.1992-1.5742-1.8906l-0.21875-0.34766-0.1875-0.34375-0.097656-0.28516-0.44141-1.1055v0.003906c-0.51562-1.7617-0.15625-3.6602 0.96875-5.1094zm-89.742-81.145c-0.82031-0.03125-1.1055-2.5234-1.7031-6.1797h-0.003907c-1-4.5586-2.3594-9.0273-4.0664-13.371-2.1133-5.1992-4.1289-10.027-5.2969-13.715s-1.4531-6.1484-0.75781-6.4336c0.69531-0.28516 2.1758 1.6406 4.1602 4.8555h0.003906c2.668 4.2461 4.957 8.7227 6.8438 13.367 2.0117 4.8672 3 10.098 2.8984 15.359-0.40625 3.9102-1.4141 6.1172-2.0781 6.1172z" />
</svg>