<?xml version="1.0" encoding="UTF-8"?>
<svg id="Logo" xmlns="http://www.w3.org/2000/svg" fill="currentColor" viewBox="0 0 354.96 173.63">
    <g id="Between">
        <path class="cls-1"
            d="M53.6,91.34c8.06-2.53,18.18-11.07,18.18-25.93,0-16.92-12.17-25.61-24.35-25.61-4.11,0-8.7,1.11-12.49,3.32-1.9-2.85-4.43-7.11-5.85-9.33-2.06,4.9-7.43,11.54-19.92,13.12l-.32,2.53c7.11,2.37,7.91,9.49,7.91,16.44v56.13C7.43,125.02,0,132.45,0,144.78,0,162.49,16.92,172.77,34.47,172.77c30.36,0,44.43-21.82,44.43-43.32,0-16.13-8.7-31.94-25.3-38.1ZM35.57,50.87c1.74-.79,3.48-1.26,5.22-1.26,9.01,0,13.12,8.54,13.12,17.39,0,9.49-4.59,19.29-12.33,19.29-2.37,0-3.48-1.58-3.48-3,0-2.21,1.9-3.48,3.95-2.69-.95-2.69-3.48-4.27-6.48-3.79v-25.93ZM58.82,119.8c-.79,0-1.74-.63-1.74-1.9,0-.79.63-1.58,1.58-1.74-1.26-1.26-3.16-2.06-5.06-2.06-3.95,0-7.59,2.69-7.59,7.91,6.8,2.06,9.8,9.96,9.8,18.02,0,15.02-10.28,22.61-16.6,22.61-3.48,0-5.38-2.06-5.38-4.27,0-1.11.47-2.21,1.58-3.16l-.16-.47h-.95c-7.11,0-10.44,4.11-10.44,8.06,0,2.37,1.11,4.59,3.32,6.01-12.97-1.9-23.87-10.28-23.87-24.35,0-10.44,6.01-16.44,13.44-18.97v9.49c0,10.12-.32,15.49-3.48,17.23v.47h25.93v-.47c-3.13-1.72-3.63-7.01-3.64-16.93v-10.42c5.53,1.42,9.49,4.43,9.49,8.06,0,1.74-1.11,3-2.53,3-.63,0-1.26-.16-1.74-.63-.63,3.32,1.11,8.22,5.38,8.22,3.32,0,4.9-3.32,4.9-6.32,0-8.38-6.8-13.91-15.49-15.97v-26.56c7.75.16,18.02,6.64,18.66,17.87,2.85,0,6.32,2.21,6.32,5.38,0,1.26-.79,1.9-1.74,1.9Z" />
        <path class="cls-1"
            d="M215.03,63.52c-5.69.79-11.07,6.96-11.7,11.7-2.85-1.42-8.38-.16-9.64,3.32,4.43,0,5.38,3.79,5.38,7.43v50.6c0,2.37-.79,6.32-4.59,6.32-4.54,0-5.05-4.49-5.06-8.73v-44.24c0-2.69.79-4.59,2.53-5.85v-.32c-4.27-2.69-7.43-9.8-8.85-14.39h-.63c-1.26,4.59-4.59,11.7-8.85,14.39v.32c1.74,1.26,2.53,3.16,2.53,5.85v44.11c0,4.27-.47,8.85-5.06,8.85-3.79,0-4.59-3.95-4.59-6.32v-45.38c0-8.7.32-13.28,3-14.7v-.47h-19.45v.47c2.69,1.42,3,6.01,3,14.7v40.79c0,2.53-.16,8.7-2.53,10.28l.16.63c2.37,0,4.74,10.91,19.76,10.91h.12c4.08-.06,10.67-3.13,12.16-6.38l.04-.1c1.42,3.32,8.22,6.48,12.33,6.48,15.02,0,17.39-10.91,19.76-10.91l.16-.63c-2.32-1.55-2.52-7.5-2.53-10.12v-49.33c0-7.91.47-15.18,3-18.66l-.47-.63Z" />
        <path class="cls-1"
            d="M351.48,164.86c-1.11,0-2.06.63-2.69,1.74-2.82-2.66-3.16-8.11-3.16-11.29v-60.18c0-7.11.47-12.02,2.69-13.6-1.74-5.53-7.59-8.85-13.91-8.85-4.11,0-8.38,1.42-11.7,4.43v-6.64h-.63c-1.9,4.74-9.96,9.96-15.97,9.64l-.16.63c2.06.32,3,2.37,3,6.32v50.44c0,8.7-.32,13.28-3,14.7v.47h19.76v-.47c-2.66-1.41-3-5.92-3-14.44v-47.66c0-4.11,2.37-6.36,5.85-6.36,2.21,0,4.59.79,6.01,2.53-2.03,1.25-2.68,5.6-2.69,10.29v48.68c0,4.27-1.11,6.32-3,6.8l.16.63c8.7,2.21,16.13,18.97,22.29,18.97,2.53,0,3.64-1.58,3.64-3.16,0-1.9-1.26-3.64-3.48-3.64Z" />
        <path class="cls-1"
            d="M299.97,109.05v-16.28c0-2.62.21-8.57,2.53-10.12l-.16-.63c-3.16,0-6.17-9.33-19.76-9.33s-16.6,9.33-19.76,9.33l-.16.63c2.32,1.55,2.52,7.5,2.53,10.12v40.95c0,2.62-.21,8.57-2.53,10.12l.16.63c3.16,0,6.17,9.33,19.76,9.33s16.6-9.33,19.76-9.33l.16-.63c-2.32-1.55-2.52-7.5-2.53-10.12v-5.37c0-4.59-.32-10.44,1.58-15.02l-.32-.47c-4.74,1.42-9.17,6.32-9.8,10.59-2.53-1.26-7.27-.16-8.38,3,3.95,0,4.9,3.48,4.9,6.8v3.32c0,4.74-2.85,6.32-5.06,6.32s-4.74-1.58-4.74-6.32v-15.02c4.27-5.69,12.96-11.7,21.82-12.49ZM278.15,89.63c.01-2.15.68-5.88,5.22-5.88,3.06,0,4.59,1.98,4.59,5.94v12.24c-3.32,1.11-7.27,3.48-9.8,6.01v-18.31Z" />
        <path class="cls-1"
            d="M256.27,109.05v-16.28c0-2.62.21-8.57,2.53-10.12l-.16-.63c-3.16,0-6.17-9.33-19.76-9.33s-16.6,9.33-19.76,9.33l-.16.63c2.32,1.55,2.52,7.5,2.53,10.12v40.95c0,2.62-.21,8.57-2.53,10.12l.16.63c3.16,0,6.17,9.33,19.76,9.33s16.6-9.33,19.76-9.33l.16-.63c-2.32-1.55-2.52-7.5-2.53-10.12v-5.37c0-4.59-.32-10.44,1.58-15.02l-.32-.47c-4.74,1.42-9.17,6.32-9.8,10.59-2.53-1.26-7.27-.16-8.38,3,3.95,0,4.9,3.48,4.9,6.8v3.32c0,4.74-2.85,6.32-5.06,6.32s-4.74-1.58-4.74-6.32v-15.02c4.27-5.69,12.96-11.7,21.82-12.49ZM234.45,89.63c.01-2.15.68-5.88,5.22-5.88,3.06,0,4.59,1.98,4.59,5.94v12.24c-3.32,1.11-7.27,3.48-9.8,6.01v-18.31Z" />
        <path class="cls-1"
            d="M143.88,137.77v-71.07s23.12-.04,23.12-.04c.83,0,1.57.37,2.2,1.1l.44-.66c-.81-1.75-2.93-3.86-4.83-3.86h-20.93v-5.91c0-7.91.47-15.18,3-18.66l-.47-.63c-5.69.79-11.38,6.96-12.02,11.7-2.85-1.42-8.38-.16-9.64,3.32h.13c4.31.08,5.24,3.83,5.24,7.43v2.71l-23.58.04c-.83,0-1.57-.37-2.2-1.1l-.44.66c.81,1.75,2.93,3.86,4.83,3.86h21.38v70.85c0,8.7-.32,13.28-3,14.7v.47h19.76v-.47l-.08-.04c-2.59-1.46-2.92-5.96-2.92-14.4Z" />
        <path class="cls-1"
            d="M121.11,109.05v-16.28c0-2.62.21-8.57,2.53-10.12l-.16-.63c-3.16,0-6.17-9.33-19.76-9.33s-16.6,9.33-19.76,9.33l-.16.63c2.32,1.55,2.52,7.5,2.53,10.12v40.95c0,2.62-.21,8.57-2.53,10.12l.16.63c3.16,0,6.17,9.33,19.76,9.33s16.6-9.33,19.76-9.33l.16-.63c-2.32-1.55-2.52-7.5-2.53-10.12v-5.37c0-4.59-.32-10.44,1.58-15.02l-.32-.47c-4.74,1.42-9.17,6.32-9.8,10.59-2.53-1.26-7.27-.16-8.38,3,3.95,0,4.9,3.48,4.9,6.8v3.32c0,4.74-2.85,6.32-5.06,6.32s-4.74-1.58-4.74-6.32v-15.02c4.27-5.69,12.96-11.7,21.82-12.49ZM99.29,89.63c.01-2.15.68-5.88,5.22-5.88,3.06,0,4.59,1.98,4.59,5.94v12.24c-3.32,1.11-7.27,3.48-9.8,6.01v-18.31Z" />
    </g>
    <g id="The">
        <path class="cls-1"
            d="M194.78,39.05l.08.28c1.5,0,2.93,4.11,9.4,4.11s7.9-4.11,9.4-4.11l.08-.28c-1.1-.68-1.2-2.05-1.2-3.21v-.45c0-.82-.15-2.58.75-4.6l-.15-.21c-4.05.1-6.32,2.85-6.32,4.98v.28c0,2.09-1.35,2.79-2.41,2.79s-2.26-.7-2.26-2.79v-4.18c2.03-2.51,6.17-5.16,10.38-5.51v-5.8c0-1.16.1-3.77,1.2-4.46l-.08-.28c-1.5,0-2.93-4.11-9.4-4.11s-7.9,4.11-9.4,4.11l-.08.28c1.1.68,1.2,3.3,1.2,4.46v16.6c0,1.12-.08,1.39-1.2,2.09ZM204.63,16.39c1.35,0,2.11.68,2.18,2.14v4.48c-1.58.49-3.46,1.53-4.66,2.65v-2.86s-.03-2.76-.03-4.01c0-1.19.48-2.4,2.51-2.4Z" />
        <path class="cls-1"
            d="M155.06,16.39c0-1.04-.51-1.83-1.75-1.83-1.53,0-2.26,1.72-1.13,2.98,0-.31.34-.52.62-.52.68,0,1.05.45,1.13,1.13.1.82.15,1.58,1.13,1.76.81.15,1.61-.57,1.61-2.25v-9.44c1.19.31,2.67.45,3.57-.23l.14.16c-.48.44-.32,1.68-.32,2.47v27.5c0,2.51-1.47,3.6-2.88,3.6-.45,0-.9-.1-1.3-.31-.34.94.17,2.14,1.13,2.4,1.15.33,3.46-.72,7.31-.84h3.75s0-.21,0-.21c-1.28-.63-1.43-2.65-1.43-6.49l-.05-25.96c.68.31,2.28-3.42,10.46-3.94v.09c-.16,2.92-.79,6.43-4.79,7.36l-.08.28c.9.21,1.43,1.12,1.43,3v19.37c0,3.71-.17,5.68-1.43,6.3v.21h9.4v-.21c-1.28-.63-1.43-2.65-1.43-6.49v-13.39s-.01-2.52-.01-3.85c0-1.81,1.14-2.64,2.8-2.64,1.05,0,2.18.35,2.86,1.12-.98.56-1.28,2.51-1.28,4.6v14.34c0,3.71-.17,5.68-1.43,6.3v.21h9.4v-.21c-1.28-.63-1.43-2.65-1.43-6.49v-14.85c0-3.14.23-5.3,1.28-6-.83-2.44-3.61-3.91-6.62-3.91-2.03,0-4.06.63-5.57,1.95v-7.24c2.06-.2,4.3-.31,6.74-.31l-.23-.78h-6.51s0-1.23,0-1.23c0-1.54-.53-3.9-3.12-3.9-1.28,0-2.96,1.19-2.74,3.28.15-.28.53-.35.68-.35,1.12,0,1.83.91,2.04,2.2h-29.56s-.23.78-.23.78c8.38,2.98,7.83,11.67,7.83,10.47Z" />
    </g>
</svg>