<?xml version="1.0" encoding="UTF-8"?>
<svg width="512pt" height="512pt" version="1.1" viewBox="0 0 512 512" xmlns="http://www.w3.org/2000/svg"
    fill="currentColor">
    <path
        d="m212.56 387.1c-7.8594-6.3398-12.941-15.48-14.16-25.5-1.5195-19.559 17.039-36.859 33.699-52.398 1.5781-1.4805 5.8398-4.7188 11.621-9.9219 7.0391-6.3203 13.762-13.32 17.379-17.078 22.699-21.379 33.238-51.621 24.461-78.781-5.5586-16.141-16.68-29.762-31.379-38.441-1.5781-0.96094-2.5-2.6992-2.3984-4.5391 0.10156-1.8398 1.1992-3.4609 2.8594-4.2617l0.10156-0.058593 0.058594-0.019532c3.7188-1.6992 7.7383-2.6016 11.84-2.6406h9.1602c0.94141-0.019531 1.8594 0.39844 2.4609 1.1406 0.76172 1.1016 0.69922 2.5586-0.12109 3.6016 1.2188-0.37891 2.2617-1.1797 2.9414-2.2812 0.73828-1.2617 0.94141-2.7812 0.51953-4.1992 1.3789 0.039062 2.6797 0.67969 3.5391 1.7383 1.0781 1.4219 1.2617 3.3398 0.48047 4.9414 4.4805-5.9805 4.1406-14.301-0.80078-19.918-1.8594 3.3203-4.9219 5.7617-8.5586 6.8203-2.6016 0.69922-5.3398 0.62109-7.8789-0.19922 0.69922-0.98047 1-2.1992 0.80078-3.3984-0.19922-1.0195-0.73828-1.9414-1.5391-2.6016-3.3203 3.8008-7.7617 6.4219-12.699 7.4805-3.2617 0.66016-6.6211 0.60156-9.8594-0.17969 7.1797-7.4609 11.719-10.602 13.602-9.4414 0.82031 0.5 1.1406 1.8398 0.94141 4 10.66-9.4414 20.281-13.66 24.199-10.621 1.4805 1.3789 2.2383 3.3789 2.0586 5.3984 3.6602-1.0195 6.6211-3.6797 8.0195-7.2188 0.76172-2.2812 0.76172-4.7812 0-7.0781 1.4219-4.5781 4.2188-8.6211 8.0195-11.559-5.3594-1.2188-11 0.16016-15.16 3.7383l-19.18 0.19922c-0.62109-1.3398-1.6797-2.4609-3.0195-3.1406-2.3789-0.71875-4.9609-0.51953-7.2188 0.53906-3.2383 0.96094-3.1992 1.9414-6.0781 2.2812-3.8398 0.32031-7.6992 0.33984-11.559 0.058594-1.0391-2.2188-2.5391-4.2188-4.3984-5.8398-2.3203-1.8008-4.9805-3.1016-7.8203-3.8008-9.7188-3.7812-12.461-12.621-16.5-16.219h-0.019532c1.7383 2.6211 2.1797 5.8984 1.2188 8.8789-0.67969 1.7812-1.8789 3.3203-3.4609 4.4219 2.4609 0.94141 4.1211 3.2188 4.2617 5.8398 0.16016 2.6211-1.2617 5.0781-3.5781 6.2812 3.1602-0.19922 6.1406 1.5 7.582 4.3203 0.33984 1.3398 0.23828 2.7617-0.26172 4.0391-0.82031 3.0586-2.8594 5.6602-5.6211 7.2188-2.7617 1.3398-3.9805 0.14062-6.8203 1.1602-2.8008 1.1797-5.0586 3.3789-6.3203 6.1602 2.1797-1.3594 4.8594-1.6016 7.2188-0.60156 1.7188 1.1602 2.8789 2.9609 3.2188 5 1.0781 3.5781 0.46094 7.4414-1.6992 10.48-1.4609 1.8594-2.4414 1.6016-3.8008 3.5l-0.019531 0.019531c-1.3789 2.0781-2.0195 4.5781-1.8008 7.0781 0.71875-1.8789 2.5-3.1602 4.5-3.2617 1.8398 0.14062 2.9805 1.9219 3.5781 2.8398 1.1797 1.8203 0.83984 2.8203 1.8008 5.7188 0.98047 2.9609 1.7617 3.1211 2.3398 5.0195 0.98047 3.2188-0.69922 5-1.1602 8.582v-0.019531c-0.35938 3.3789 0.23828 6.8008 1.7812 9.8398-0.39844-2.3008 0.33984-4.6406 2-6.2812 1.5586-1.4414 3.8008-1.8984 5.8008-1.1992 0.78125 0.37891 1.4414 0.98047 1.8789 1.7188 2.6992 4.0195 6.0391 7.5391 9.8984 10.441 2.6602 2.2617 3.8398 3.4805 4.3984 11.102l-0.019531-0.019532c-9.7812 1.7383-19.859-0.33984-28.16-5.8203-1.9414-1.4219-6.7188-5.3398-14.16-21.82-8.7383-19.379-7.0195-24.859-11.621-32-9.1797-14.301-32.121-10.219-51.559-16.418-26.059-8.3203-78.457-21.238-115.56 5.1016 28.84-2.7617 52.238 17.32 59.48 43.059l0.019531-0.019531c5.8203 22.52-2.3984 46.34-20.898 60.477 23.582-12.102 52.238-7.9219 71.379 10.398 22.82 22.84 15.98 55.102 15.5 57.141h0.019531c4.5391-12.301 13.48-22.52 25.059-28.68 13.398-6.9414 29.84-4.6602 34.621-4.0391-4.3203 3.4414-37.621 30.82-36.762 74.98l0.019531 0.019531c0.55859 19.141 7.1016 37.641 18.699 52.898 6.0391-0.96094 11.918-2.8398 17.398-5.5781 4.1016-2.3594 7.8789-5.2383 11.199-8.582z" />
    <path
        d="m94.719 376.82c-2.1992-20.398 6.6797-40.398 23.262-52.461-0.32031 5.9609 0 11.941 0.96094 17.84 1.6602 9.8789 5.1211 19.398 10.199 28.039-4.2617-4.1992-10.219-6.1797-16.141-5.4219 2.3789 4.8789 5.3398 9.4414 8.8203 13.602 13.941 16.66 39.762 30.859 66.242 25.102 13.34-2.6406 25.199-10.16 33.281-21.102 4.1992-6.3594 3.9805-9.9219 6.8008-17.922 2.3008-6.5195 15.02-39.879 41.641-46.52 14.879-3.7188 30.641 0.53906 41.621 11.262 17.801 19.262 8.6797 55.438-9.3398 74.777-19.559 20.98-53.641 26.441-84.762 12.859v-0.019531c10.859-3.8398 19.762-11.781 24.859-22.121 13.52 1.2188 26.98-2.8984 37.52-11.461 3.0586-2.6992 16.941-14.961 12.879-26.621-2.9414-8.5-14.559-14.34-21.66-11.461v-0.019531c-4.0586 1.6602-7.4609 4.6602-9.6211 8.5 0 0-6.6992 11.68-23.078 41.641-12.602 23-46.781 23.262-51.703 23.5-31.781 1.6602-63.359-19.359-80.441-52.816-4.9609 2.1211-9 5.9609-11.34 10.84z" />
    <path
        d="m267.44 275.5c11-9.7578 18.641-22.738 21.801-37.121 2.4414-11.559 1.8594-23.559-1.6992-34.84 6.3203-0.46094 12.34-2.8203 17.281-6.7812 4.6992-3.9414 7.2812-8.8594 11.34-20.68 5.5-16.059 6.3789-23.559 7.9414-27.762 4.1211-11.18 17.02-13.48 77.039-23.5 43.301-7.2383 60.52-9.8203 80.16-0.28125l-0.019531-0.019531c4.9414 2.3984 9.6016 5.3594 13.879 8.7812-6.0781-2.8789-12.84-4.0586-19.539-3.3984-21.559 2.5195-35.059 26.059-39.078 42.199-8.7383 34.922 19.738 63.422 21.52 65.164-20.34-12.238-46.039-11.039-65.164 3-19.141 14.059-27.961 38.219-22.359 61.301-5.8398-11.32-14.66-20.82-25.5-27.48-34.82-20.898-74.82-0.078126-77.598 1.4219z" />
</svg>