<?xml version="1.0" encoding="UTF-8"?>
<svg width="512pt" height="512pt" version="1.1" viewBox="0 0 512 512" xmlns="http://www.w3.org/2000/svg"
    fill="currentColor">
    <path
        d="m286.7 255.97c17.613 22.734 80.078 104.45 76.699 107.27-3.2773 2.7148-66.766-68.914-88.219-93.391-2.4062 2.7148-5.3242 6.043-8.6523 9.7773 24.934 32.77 61.234 81.461 58.625 83.609-2.5586 2.0977-41.777-41.012-69.121-71.73-27.391 30.719-66.609 73.832-69.172 71.73-2.6094-2.1523 33.691-50.84 58.625-83.609 3.8398-5.0703 7.3711-9.7266 10.547-13.824 2.9688-3.8906 5.5312-7.2695 7.5781-9.832 2.6094-3.4297 4.25-5.5312 4.4531-5.7852 0.25781-0.30859 2.8672-3.3281 7.0664-8.0898 21.555-24.523 84.992-96.051 88.27-93.336 3.375 2.8203-59.035 84.434-76.699 107.21zm-42.754 5.8398c0.20312-0.25781 1.8438-2.3555 4.5039-5.7852 1.9961-2.6094 4.5586-5.9375 7.5781-9.8828 3.125-4.043 6.707-8.7031 10.496-13.773 24.934-32.77 61.184-81.461 58.574-83.609-2.5586-2.0977-41.727 40.961-69.07 71.68-27.391-30.719-66.559-73.777-69.121-71.68-2.6094 2.1523 33.637 50.789 58.574 83.559-3.2773 3.7383-6.1953 7.0664-8.6016 9.7773-21.555-24.523-84.992-96.051-88.27-93.336-3.3789 2.8164 59.035 84.43 76.699 107.21v0.050782c-17.664 22.785-80.078 104.4-76.699 107.21 3.2773 2.7148 66.664-68.812 88.27-93.336 4.1992-4.7578 6.8125-7.7812 7.0664-8.0859z" />
</svg>