<?xml version="1.0" encoding="UTF-8"?>
<svg fill="currentColor" id="Logo" xmlns="http://www.w3.org/2000/svg" viewBox="0 0 143.73 424.2">
    <g id="Between">
        <path class="cls-1"
            d="M81.43,122.85c2.53,8.06,11.07,18.18,25.93,18.18,16.92,0,25.61-12.17,25.61-24.35,0-4.11-1.11-8.7-3.32-12.49,2.85-1.9,7.11-4.43,9.33-5.85-4.9-2.06-11.54-7.43-13.12-19.92l-2.53-.32c-2.37,7.11-9.49,7.91-16.44,7.91h-56.13c-3-9.33-10.44-16.76-22.77-16.76C10.28,69.25,0,86.16,0,103.71,0,134.07,21.82,148.14,43.32,148.14c16.13,0,31.94-8.7,38.1-25.3ZM121.9,104.82c.79,1.74,1.26,3.48,1.26,5.22,0,9.01-8.54,13.12-17.39,13.12-9.49,0-19.29-4.59-19.29-12.33,0-2.37,1.58-3.48,3-3.48,2.21,0,3.48,1.9,2.69,3.95,2.69-.95,4.27-3.48,3.79-6.48h25.93ZM52.97,128.06c0-.79.63-1.74,1.9-1.74.79,0,1.58.63,1.74,1.58,1.26-1.26,2.06-3.16,2.06-5.06,0-3.95-2.69-7.59-7.91-7.59-2.06,6.8-9.96,9.8-18.02,9.8-15.02,0-22.61-10.28-22.61-16.6,0-3.48,2.06-5.38,4.27-5.38,1.11,0,2.21.47,3.16,1.58l.47-.16v-.95c0-7.11-4.11-10.44-8.06-10.44-2.37,0-4.59,1.11-6.01,3.32,1.9-12.97,10.28-23.87,24.35-23.87,10.44,0,16.44,6.01,18.97,13.44h-9.49c-10.12,0-15.49-.32-17.23-3.48h-.47v25.93h.47c1.72-3.13,7.01-3.63,16.93-3.64h10.42c-1.42,5.53-4.43,9.49-8.06,9.49-1.74,0-3-1.11-3-2.53,0-.63.16-1.26.63-1.74-3.32-.63-8.22,1.11-8.22,5.38,0,3.32,3.32,4.9,6.32,4.9,8.38,0,13.91-6.8,15.97-15.49h26.56c-.16,7.75-6.64,18.02-17.87,18.66,0,2.85-2.21,6.32-5.38,6.32-1.26,0-1.9-.79-1.9-1.74Z" />
        <path class="cls-1"
            d="M118.25,284.28c-.79-5.69-6.96-11.07-11.7-11.7,1.42-2.85.16-8.38-3.32-9.64,0,4.43-3.79,5.38-7.43,5.38h-50.6c-2.37,0-6.32-.79-6.32-4.59,0-4.54,4.49-5.05,8.73-5.06h44.24c2.69,0,4.59.79,5.85,2.53h.32c2.69-4.27,9.8-7.43,14.39-8.85v-.63c-4.59-1.26-11.7-4.59-14.39-8.85h-.32c-1.26,1.74-3.16,2.53-5.85,2.53h-44.11c-4.27,0-8.85-.47-8.85-5.06,0-3.79,3.95-4.59,6.32-4.59h45.38c8.7,0,13.28.32,14.7,3h.47v-19.45h-.47c-1.42,2.69-6.01,3-14.7,3h-40.79c-2.53,0-8.7-.16-10.28-2.53l-.63.16c0,2.37-10.91,4.74-10.91,19.76v.12c.06,4.08,3.13,10.67,6.38,12.16l.1.04c-3.32,1.42-6.48,8.22-6.48,12.33,0,15.02,10.91,17.39,10.91,19.76l.63.16c1.55-2.32,7.5-2.52,10.12-2.53h49.33c7.91,0,15.18.47,18.66,3l.63-.47Z" />
        <path class="cls-1"
            d="M16.91,420.72c0-1.11-.63-2.06-1.74-2.69,2.66-2.82,8.11-3.16,11.29-3.16h60.18c7.11,0,12.02.47,13.6,2.69,5.53-1.74,8.85-7.59,8.85-13.91,0-4.11-1.42-8.38-4.43-11.7h6.64v-.63c-4.74-1.9-9.96-9.96-9.64-15.97l-.63-.16c-.32,2.06-2.37,3-6.32,3h-50.44c-8.7,0-13.28-.32-14.7-3h-.47v19.76h.47c1.41-2.66,5.92-3,14.44-3h47.66c4.11,0,6.36,2.37,6.36,5.85,0,2.21-.79,4.59-2.53,6.01-1.25-2.03-5.6-2.68-10.29-2.69h-48.68c-4.27,0-6.32-1.11-6.8-3l-.63.16c-2.21,8.7-18.97,16.13-18.97,22.29,0,2.53,1.58,3.64,3.16,3.64,1.9,0,3.64-1.26,3.64-3.48Z" />
        <path class="cls-1"
            d="M72.72,369.22h16.28c2.62,0,8.57.21,10.12,2.53l.63-.16c0-3.16,9.33-6.17,9.33-19.76s-9.33-16.6-9.33-19.76l-.63-.16c-1.55,2.32-7.5,2.52-10.12,2.53h-40.95c-2.62,0-8.57-.21-10.12-2.53l-.63.16c0,3.16-9.33,6.17-9.33,19.76s9.33,16.6,9.33,19.76l.63.16c1.55-2.32,7.5-2.52,10.12-2.53h5.37c4.59,0,10.44-.32,15.02,1.58l.47-.32c-1.42-4.74-6.32-9.17-10.59-9.8,1.26-2.53.16-7.27-3-8.38,0,3.95-3.48,4.9-6.8,4.9h-3.32c-4.74,0-6.32-2.85-6.32-5.06s1.58-4.74,6.32-4.74h15.02c5.69,4.27,11.7,12.96,12.49,21.82ZM92.14,347.4c2.15.01,5.88.68,5.88,5.22,0,3.06-1.98,4.59-5.94,4.59h-12.24c-1.11-3.32-3.48-7.27-6.01-9.8h18.31Z" />
        <path class="cls-1"
            d="M72.72,325.52h16.28c2.62,0,8.57.21,10.12,2.53l.63-.16c0-3.16,9.33-6.17,9.33-19.76s-9.33-16.6-9.33-19.76l-.63-.16c-1.55,2.32-7.5,2.52-10.12,2.53h-40.95c-2.62,0-8.57-.21-10.12-2.53l-.63.16c0,3.16-9.33,6.17-9.33,19.76s9.33,16.6,9.33,19.76l.63.16c1.55-2.32,7.5-2.52,10.12-2.53h5.37c4.59,0,10.44-.32,15.02,1.58l.47-.32c-1.42-4.74-6.32-9.17-10.59-9.8,1.26-2.53.16-7.27-3-8.38,0,3.95-3.48,4.9-6.8,4.9h-3.32c-4.74,0-6.32-2.85-6.32-5.06s1.58-4.74,6.32-4.74h15.02c5.69,4.27,11.7,12.96,12.49,21.82ZM92.14,303.7c2.15.01,5.88.68,5.88,5.22,0,3.06-1.98,4.59-5.94,4.59h-12.24c-1.11-3.32-3.48-7.27-6.01-9.8h18.31Z" />
        <path class="cls-1"
            d="M44,213.13h71.07s.04,23.12.04,23.12c0,.83-.37,1.57-1.1,2.2l.66.44c1.75-.81,3.86-2.93,3.86-4.83v-20.93h5.91c7.91,0,15.18.47,18.66,3l.63-.47c-.79-5.69-6.96-11.38-11.7-12.02,1.42-2.85.16-8.38-3.32-9.64v.13c-.08,4.31-3.83,5.24-7.43,5.24h-2.71l-.04-23.58c0-.83.37-1.57,1.1-2.2l-.66-.44c-1.75.81-3.86,2.93-3.86,4.83v21.38H44.26c-8.7,0-13.28-.32-14.7-3h-.47v19.76h.47l.04-.08c1.46-2.59,5.96-2.92,14.4-2.92Z" />
        <path class="cls-1"
            d="M72.72,190.36h16.28c2.62,0,8.57.21,10.12,2.53l.63-.16c0-3.16,9.33-6.17,9.33-19.76s-9.33-16.6-9.33-19.76l-.63-.16c-1.55,2.32-7.5,2.52-10.12,2.53h-40.95c-2.62,0-8.57-.21-10.12-2.53l-.63.16c0,3.16-9.33,6.17-9.33,19.76s9.33,16.6,9.33,19.76l.63.16c1.55-2.32,7.5-2.52,10.12-2.53h5.37c4.59,0,10.44-.32,15.02,1.58l.47-.32c-1.42-4.74-6.32-9.17-10.59-9.8,1.26-2.53.16-7.27-3-8.38,0,3.95-3.48,4.9-6.8,4.9h-3.32c-4.74,0-6.32-2.85-6.32-5.06s1.58-4.74,6.32-4.74h15.02c5.69,4.27,11.7,12.96,12.49,21.82ZM92.14,168.54c2.15.01,5.88.68,5.88,5.22,0,3.06-1.98,4.59-5.94,4.59h-12.24c-1.11-3.32-3.48-7.27-6.01-9.8h18.31Z" />
    </g>
    <g id="The">
        <path class="cls-1"
            d="M86.01,48.54l.09.35c1.87,0,3.65,5.11,11.68,5.11s9.81-5.11,11.68-5.11l.09-.35c-1.37-.85-1.49-2.55-1.5-3.99v-.56c0-1.02-.19-3.2.93-5.72l-.19-.26c-5.03.13-7.85,3.55-7.85,6.18v.35c0,2.6-1.68,3.47-2.99,3.47s-2.8-.87-2.8-3.47v-5.2c2.52-3.12,7.66-6.41,12.9-6.85v-7.2c0-1.44.12-4.69,1.5-5.54l-.09-.35c-1.87,0-3.65-5.11-11.68-5.11s-9.81,5.11-11.68,5.11l-.09.35c1.37.85,1.49,4.1,1.5,5.54v20.64c0,1.39-.09,1.73-1.5,2.6ZM98.26,20.37c1.68,0,2.62.84,2.71,2.66v5.57c-1.96.61-4.3,1.91-5.8,3.29v-3.55s-.04-3.43-.04-4.99c0-1.47.6-2.99,3.12-2.99Z" />
        <path class="cls-1"
            d="M36.65,20.37c0-1.3-.63-2.27-2.18-2.27-1.9,0-2.81,2.14-1.41,3.7,0-.39.42-.65.77-.65.84,0,1.3.56,1.4,1.4.13,1.01.19,1.96,1.41,2.19,1.01.19,2-.71,2-2.79v-11.74c1.48.39,3.31.55,4.44-.29l.17.2c-.6.55-.39,2.08-.4,3.07v34.18c0,3.12-1.83,4.48-3.58,4.48-.56,0-1.12-.13-1.62-.39-.42,1.17.21,2.66,1.41,2.99,1.43.41,4.3-.89,9.09-1.05h4.66s0-.26,0-.26c-1.59-.78-1.78-3.29-1.78-8.06l-.06-32.27c.84.39,2.83-4.26,13-4.9v.11c-.2,3.63-.98,8-5.96,9.15l-.09.35c1.12.26,1.78,1.39,1.78,3.73v24.07c0,4.62-.21,7.06-1.78,7.83v.26h11.68v-.26c-1.59-.78-1.78-3.29-1.78-8.06v-16.64s-.02-3.14-.02-4.78c0-2.25,1.42-3.28,3.48-3.28,1.31,0,2.71.43,3.55,1.39-1.22.69-1.59,3.12-1.59,5.72v17.83c0,4.62-.21,7.06-1.78,7.83v.26h11.68v-.26c-1.59-.78-1.78-3.29-1.78-8.06v-18.46c0-3.9.28-6.59,1.59-7.45-1.03-3.03-4.49-4.85-8.23-4.85-2.52,0-5.05.78-6.92,2.43V7.74c2.56-.25,5.35-.38,8.37-.38l-.28-.97h-8.09s0-1.53,0-1.53c0-1.91-.65-4.85-3.88-4.85-1.59,0-3.68,1.47-3.4,4.07.19-.35.65-.43.84-.43,1.39,0,2.27,1.13,2.53,2.74H27.19s-.28.97-.28.97c10.41,3.7,9.73,14.51,9.73,13.01Z" />
    </g>
</svg>