<?xml version="1.0" encoding="UTF-8"?>
<svg width="512pt" height="512pt" version="1.1" viewBox="0 0 512 512" xmlns="http://www.w3.org/2000/svg"
    fill="currentColor">
    <path
        d="m178.81 126.07c1.6367-0.75391 2.8594-0.63672 2.1602 1.5352-0.20312 0.62891-1.5586 0.89062-1.9258 1.7578v0.003907c10.008-3.7812 19.051-9.7383 26.469-17.445l0.89062 1.0234-1.6445 2.5586 0.33984 0.64453c1.2695-0.66406 2.6172-2.0039 3.7969-1.8711 4.5039 0.51172 8.5742-2.2383 13.23-1.2227v0.003906c2.4062 0.10938 4.7852-0.53516 6.8086-1.8438 2.2031-1.1445 3.9766-2.8984 5.7656 0.39844l1.8203 0.30078c7.1406 0.47266 14.285 0.89453 21.422 1.418 2.4414 0.17969 4.8633 0.63281 7.3008 0.91406 4.0156 0.46094 8.0273 1.1055 12.055 1.2344v0.003906c2.1836-0.12891 4.3477-0.49219 6.4531-1.0859l-0.23828-4.0547v0.003906c-2.9531-0.19141-5.8594-0.85156-8.6016-1.957-5.7227-2.3906-11.805-3.8203-17.992-4.2227-3.5859-1.0273-7.1016-2.2969-10.516-3.8008l-0.71094-0.44141c-5.7852 0.29297-11.562 0.63281-17.344 0.91797-0.72656 0.089844-1.4648-0.027344-2.1289-0.33594-4.5273-2.8164-9.2422-0.20703-13.844-0.52734-0.67188-0.046875-1.4336 0.66797-2.0938 1.125-1.6211 1.125-3.1641 3.4727-4.8633-0.046875-1.168 0.03125-2.3164 0.29688-3.3789 0.78516-0.68359 0.26953-1.3203 1.5352-1.7422 1.4336-3.8281-0.57812-7.7422-0.26172-11.434 0.92188-4.1836 0.48047-8.2188 1.8516-11.828 4.0195-3.5391 2.5039-8.2383 3.1758-10.91 7.0938-0.5 0.73438-2.1992 0.60547-3.3125 0.97656-2.0898 0.69531-4.1641 1.4492-6.1992 2.2812l0.32812 1.2383c-2.0781 0.91406-4.0703 2.0156-5.9531 3.2852-2.2539 1.8008-4.2734 3.8789-6.0078 6.1836-0.76953 1.0391-3.9805 2.0117-1.1562 4.2266-0.375 0.47656-0.73438 1.3555-1.1328 1.375-7.9297 0.42188-11.086 7.1445-15.863 11.77-0.95312 0.92187-3.0547 1.9258-3.832 1.4883h-0.007812c-1.8398-1.0898-3.3555-2.6484-4.3906-4.5156-0.3125-0.56641 1.5469-2.3477 2.4219-3.5664l4.2578-5.8594-2.2109 0.17969-0.49609-0.84375 3.582-2.1016 0.24219 0.52734 6.5547-5.1094 0.85156 0.84375-1.332-6.1328 6.7031 4.4805 0.67969-1.1172c-1.8945-5.6094-1.7188-5.3516 3.1992-8.8438v-0.003906c3.8516-2.9258 7.5078-6.1055 10.945-9.5078 3.9805-3.3555 8.6914-5.7383 13.754-6.957 3.8906-1.1758 8.7891-1.3438 11.418-3.8594 4.3281-4.1445 8.9414-2.6758 13.602-3.1797 5.9453-0.64844 11.848-1.7266 17.742-2.7656 1.3672-0.24219 2.5898-1.2422 3.957-1.5742 0.49609-0.12109 1.2188 0.69531 2.668 1.6055 3.1875 0.21484 6.5938-3.3125 11.516-1.2344 4.3164 1.0156 8.7617 1.3789 13.188 1.0742 0.87891 0.066407 1.7031 0.85156 2.5859 0.93359 0.53906 0.046875 1.1406-0.62109 1.6055-0.90234h0.003906c2.9102-0.34766 5.8398-0.44531 8.7656-0.28906 1.6992 0.20312 3.2227 1.8438 4.8281 2.832l1.5781 0.93359c3.2656-2.0859 5.1406 0.53516 7.6484 1.793 2.4492 1.0547 5.1406 1.418 7.7852 1.0508 0.97266-0.35547 2.1289-1.2383 2.8867-0.97656 3.3789 1.1719 6.6484 2.6523 9.9336 4.0781l0.82031 1.0898-1.2109 0.35547 5.8359 7.3672 5.1523-0.44141c1.375-2.5469 3.5156-2.2461 5.6758-0.30859l-2.0352 6.3438c1.668 0 3.0703 0.015625 4.4727-0.011718l1.0234-0.23438c5.0195 1.1211 10.352 1.2227 15.141 2.3008v-0.003906c8.1133 2.3438 15.926 5.6289 23.273 9.7969 3.0234 1.9062 5.8281 4.1367 8.3633 6.6562l-1.5039 1.6602 14.426 13.227-0.49609 5.1211c-5.4688-3.4141-13.07-2.5312-15.043-8.7344-2.918-1.5117-5.0664-2.5664-7.1562-3.7227-2.3008-1.2734-4.5039-2.7148-6.832-3.9414-2.6289-1.3828-5.332-2.6289-8.0273-3.8789-0.64453-0.29688-1.8359-0.73047-2.0273-0.49219-2.3164 2.8594-4.3789 0.011718-6.6367-0.35547l-1.043 4.9258 12.848 5.5312-0.48047-1.8867 1.1914-0.43359c0.36719 1.5586 0.98047 3.0547 1.8125 4.4219 1.9102 2.0586 3.9492 4 6.1016 5.8047 4.5039 4.1328 9.0195 8.2578 13.539 12.371 5.4609 4.9531 10.957 9.8633 16.41 14.824 1.8359 1.6719 3.5977 3.4258 5.7461 5.4805l1.3672-1.9102 6.3477 1.9883 0.83984-3 2.082 3.4648 0.51172-0.16797-1.2891-3.957c6.3242 3.0273 7.5156 8.7812 9.8164 13.824 2.0469 4.4883 4.3633 8.8516 7.0508 14.258v-3.5977l0.86328 0.35156c0.39062 3.168 2.9961 4.0469 5.3008 5.3555 3.0469 1.7266 3.1328 3.6055 1.332 6.4805-0.58594 0.9375 0.15625 2.7969 0.47656 4.1875 0.48438 2.0938 1.2969 4.1172 1.6758 6.2227 0.42187 2.3047 0.64844 4.6445 0.67578 6.9883-0.050781 2.1758-0.23438 4.3477-0.5625 6.5-0.55859 4.5781-1.2891 9.1406-1.7461 13.73-0.69141 6.9102-1.0508 13.859-1.8516 20.758-0.64844 5.5938-1.7969 11.129-2.5664 16.711-0.12109 0.87109 0.57812 1.8555 0.84766 2.6406-1.6836 0.28516-4.0742 0-4.8125 0.97656h-0.003906c-1.2344 1.8984-1.9922 4.0664-2.2031 6.3242-0.41406 2.793-0.98438 5.8594 2.7734 7.3516 0.52344 0.20312 0.69141 2.1875 0.47656 3.2383-0.83984 4.1172-1.7734 8.2266-2.9805 12.25-0.23437 0.78516-1.8438 1.1562-2.8242 1.7227l-1.6367-1.0742c-0.93359 3.9062-1.7891 7.8281-2.8281 11.707l0.003906-0.003906c-0.41797 1.9062-1.1133 3.7383-2.0703 5.4414-4.2578 6.7305-8.8203 13.266-13.02 20.031-1.6719 2.6953-2.5469 5.8711-4.0234 8.7031-1.8633 3.5742-3.918 7.0547-6.0039 10.508-3.3555 1.6914-7.0859 2.5117-10.844 2.3789-0.96484-0.16406-1.9531-0.17969-2.9258-0.054688l-1.332-4.6094 0.003906 0.003906c0.94531-5.9414 3.918-11.371 8.4062-15.371 3.0859-3.418 5.6328-7.2852 7.5586-11.465 1.4258-2.6406 1.8125-5.7109 5.5664-6.5625 0.98438-0.22266 1.6523-2.543 2.1523-4.0078h-0.003906c0.83594-2.2422 1.2031-4.6367 1.0742-7.0273l4.168-3.6875-4.4023-2.6055-11.367 11.648-0.33203 0.17969c-8.3984 5.9844-14.164 14.914-22.918 20.504-2.0586 1.3164-4.1484 2.5859-6.1328 4.0078-6.7031 4.8125-11.562 12.027-19.758 14.949-1.7148 0.97266-3.3594 2.0664-4.918 3.2695-1.4414 0.62891-2.9258 1.1523-4.4453 1.5625l-1.6797 0.82031c-8.6953 5.6719-17.352 11.41-26.098 17v-0.003907c-2.0547 1.1992-4.2188 2.207-6.457 3-0.42578 0.17188-1.1406-0.51953-1.7539-0.64844v0.003906c-0.60547-0.10547-1.2227-0.12109-1.832-0.046875-0.76172 7.5586-6.1953 4.6094-10.312 4.6719-1.4336 0.10547-2.8555 0.29297-4.2656 0.56641l0.039063 1.0547-3.7188-1.5781-3.6211 6.8828 3.6875 2.1797-9.5234 1.457 4.1602 1.8359-0.19922 0.73437c-1.2305-0.12891-2.4453-0.40625-3.6133-0.82812-3.6094-1.7969-6.2461-1.5664-7.9375 1.9258-1.125 2.332-2.3164 2.0117-4.1055 1.7969-2.8945-0.35547-5.8281-2.1367-8.7227 0.0625l-0.72266 0.023437c-2.3555-3.707-6.3398-1.1992-9.4141-2.4258h0.003906c-2.6445-0.67188-5.3438-1.1016-8.0625-1.2773-4.168-0.79297-8.3242-1.668-12.449-2.6641-2.5547-0.61328-5.0273-1.957-7.5547 0.046875l-1.1133 0.10938c-7.0234-0.63281-14.035-1.4414-21.074-1.8789-7.1328-0.44141-11.336-5.8789-16.648-9.3828-2.1602-1.4258-5.5508-1.9141-5.3359-6.043 0.0625-1.1719-2.5898-2.4922-4.168-2.8828l-2.5859-0.27734c-1.1641-3.0938-4.5547-5.1953-3.4297-9.4883 0.37109-1.418-2.1992-4.1367-4.0039-5.4844-2.0938-1.6445-3.707-3.8203-4.668-6.3047-0.96484-2.4844-1.2383-5.1797-0.79687-7.8047 0.13281-0.73047 0.070312-1.4805-0.18359-2.1797-2.875-7.6484-5.8359-15.266-8.7031-22.914-1.1406-3.0391-2.2188-6.1055-3.1133-9.2148-0.36719-1.2773-0.77344-3.3398-0.12109-3.9727 2.4727-2.3945 1.3672-4.3789-0.027344-6.5664-0.33203-0.51953-0.80469-1.25-0.66797-1.7305 2.0703-7.2695-2.6289-13.648-2.6484-20.656 0.023437-4.168-0.32422-8.332-1.0352-12.438-0.71875-3.9648-2.2266-7.7812-3.3008-11.691l-0.003906-0.003907c-0.44922-1.6719-0.78906-3.3711-1.0234-5.0898-0.52734-3.7109-0.98828-7.4297-1.4141-11.152v0.003906c-0.19531-1.1094-0.20312-2.2461-0.027344-3.3555 0.98828-4.3164-0.007812-6.0938-3.9844-7.1797v-13.797l1.7578-0.51172 2.6914 5.1562c1.832-3.0195 0.625-6.1562-3.8984-8.6406 0.19531-0.92969 0.30859-1.875 0.33984-2.8242-0.25-0.86719-0.1875-1.793 0.16797-2.6172l0.75 1.8555 0.72266-0.039063-0.54688-10.285 2.2695 0.66016 3.9492-6.2461c-0.15234-1.457-1.7422-4.0312 1.8008-6.5547 1.6094-1.1484 1.1602-5.1875 1.0742-8.0547l-0.55859 2.9141-2.7734-2.6133-2.7383 3.918c-0.64062-4.2305-0.51953-4.2188 3.082-5.6172 0.80469-0.30859 1.3633-1.8672 1.5859-2.9414 0.54297-2.5898 0.64844-5.2773 1.293-7.832h-0.003906c0.53906-1.2031 1.5469-2.1367 2.793-2.5742l-0.6875 3.832 0.45312 0.14453 4.0352-8.0469 0.24219 3.9219c2.6172-8.3359 8.3047-10.172 16.262-8.332l-3.9336 6.5898 3.9102-0.6875c-0.13281-0.70703-0.64062-1.6523-0.375-2.2539 2.0938-4.7109 4.5039-9.293 6.4922-14.047l0.003907 0.003906c2.4648-4.75 5.7383-9.0312 9.6758-12.652 1.8008-1.9805 3.0703-4.4492 4.9023-6.3867h0.003907c3.0781-3.7734 6.6406-7.1289 10.598-9.9727 2.332-1.5508 4.5703-3.2344 6.7109-5.0391 0.8125-0.62109 2.3906-0.24219 3.6172-0.32031zm-47.785 98.699-1.8438 2.4922c-5.0898 5.4062-7.0195 13.062-5.0977 20.234 0.42969 1.7891 0.53906 3.6406 0.3125 5.4688-0.050782 3.0391-0.44531 6.0859-0.31641 9.1133 0.16797 3.9609 1.168 7.9336 0.96094 11.859-0.32031 4.2617 0.63672 8.5234 2.7422 12.246 0.49609 0.875 1.125 2.7578-1.2969 3.3125-0.9375 0.21484-2.3984 2.0391-2.1992 2.7227 1.7344 5.9648-0.75391 13.312 5.6719 17.809 0.46875 0.32812 0.29297 1.5742 0.41797 2.3945l-0.003906-0.003906c-0.019531 1.2812 0.20312 2.5547 0.65625 3.7539 1.3633 2.1406 3.3047 3.9102 4.6992 6.043 2.6406 4.0273 3.082 9.6445 9.7266 12.117l-8.4609-26.77c-1.1094-0.53906-3.1758-1.0859-3.1758-1.6367h0.003907c0.23047-1.9023 0.70703-3.7695 1.4102-5.5508l-1.582-3.7891h4.6562l-5.7656-48.207 1.7773 1.1641 0.19531 0.30859 0.33594-0.11328 0.22656-1.1172c0-5.8984-0.058594-11.797 0.023437-17.695 0.011719-0.83594 0.75-1.6367 1.0625-2.4961 1-2.4531 1.8516-4.9688 2.5391-7.5312 0.14453-0.64063-1.2305-1.625-1.875-2.418l-5.1406 9.4219zm30.934 162.88 0.003906-0.003906c-0.039063-0.96094-0.13672-1.918-0.29688-2.8672-0.22266-0.70313-0.51562-1.3867-0.87891-2.0312-0.61328-1.7578-1.4805-3.4219-2.5664-4.9375-4.1758-3.6953-8.1172-7.6523-11.789-11.848-4.6289-6.3789-8.2695-13.48-12.262-20.312h-0.003906c-0.58203-1.1914-1.0625-2.4258-1.4414-3.6914-0.78125 2.5508-1.6211 4.9531-2.1992 7.418-0.14453 0.625 0.54688 1.457 0.87109 2.1836 1.2188 2.7266 3.6133 5.5508 3.3867 8.1445l-0.003906-0.003907c-0.15234 3.2891 0.73828 6.543 2.5469 9.2969 4.0234 6.6016 7.9492 13.336 12.465 19.609 2.2109 3.8359 5.9492 6.5547 10.281 7.4766-0.5-3.3281 1.2305-4.4883 7.125-4.9492zm42.254-152.8c-3.3086-5.5664 0.53906-8.1133 2.8008-11.008l0.003906-0.003906c1.9141-2.6367 4.6367-4.5742 7.7578-5.5117 3.0703-0.93359 5.1133-4.9922 7.8516-7.3906 2.6328-2.3086 5.4844-5.7852 8.4141-5.9648 2.75-0.20703 5.3828-1.207 7.5781-2.875 2.543-1.6719 5.2266-3.1289 7.8672-4.6484l1.8438-0.82031-2.2031-0.83594-0.27344-0.90625v-0.003906c4.1328-1.6406 8.4414-2.8203 12.836-3.5156 4.1836-0.23438 4.2305 0.57031 6.6445-3.5234-6.2109 1.7227-11.57 3.0312-16.801 4.7305-2.832 0.92188-5.4688 0.16797-6.2539-1.8594-4.7422 2.6758-9.543 5.4766-14.469 8.0469-0.60547 0.31641-1.8594-0.60547-3-1.0234l-8.9102 7.3633 1.8047 3.0977c-2.7539 1.4336-5.6016 2.6797-8.5195 3.7383-2.4102 0.45312-4.0898 2.6523-3.8906 5.0977 0.39844 3.1914-1.1484 4.4453-3.3125 5.9805h0.003906c-1.3516 1.0664-2.4258 2.4453-3.1289 4.0156-0.82031 1.6992-0.89453 3.7656-1.7266 5.457l0.003907 0.003907c-1.543 2.6992-2.1211 5.8438-1.6406 8.918 4.1641-1.2695 0.86719-9.0312 8.7227-6.5586zm83.062 136.23 0.003906-0.003906c-1.6055-0.37891-3.2539-0.55078-4.9062-0.51172-4.1484 0.51953-8.1055 1.6914-12.422 1.9453-5.2227 0.30859-9.5859 5.7266-15.715 4.4258l-1.0039 0.46094c-4.1797 0.87891-8.4258 1.3984-12.695 1.5469-6.1094-0.23438-12.199-2.8477-18.246 0.38281l-1.2695 0.015625c-2.2852-2.3203-3.707-0.49219-5.2656 1.0703 4.1914 1.1641 7.2695 6.7383 12.648 3.457v0.003906c2.0195 0.046875 4.0312 0.21094 6.0273 0.49219 8.0195 1.1562 16.145 1.3203 24.203 0.48828 1.1094 0.10938 3.293-0.78906 3.3281-1.332 0.26562-4.0742 3.3867-2.1992 5.2695-2.6875 0.69141-0.17969 1.7148 0.72656 2.332 0.48438 3.6328-1.2812 7.168-2.832 10.574-4.6289 2.5273-1.6758 4.9141-3.5508 7.1406-5.6094zm-101.11-226.62c-2.8516 0.58203-5.6562 1.3633-8.3984 2.3398-4.2031 1.4609-8.1562 3.5664-11.715 6.2461-2.3047 2.0703-7.0859 3.2383-5.8555 8.1484l-0.36328 0.64062-10.074 14.059 3.9531 1.4062-0.003907-0.003906c3.9062-3.2305 7.5469-6.7695 10.891-10.582 3.5859-4.7188 10.012-6.7695 11.832-13.02 0.11719-0.41016 1.0508-0.5625 1.5898-0.86719 3.3594-1.8867 6.7148-3.7734 10.051-5.6992l0.46875-1.1914-2.918 0.70312zm-20.625 46.094 0.65625 0.80469c2.8984-3.3164 5.5703-6.8711 8.7461-9.8984 6.0977-5.8086 12.336-11.492 18.801-16.883v0.003906c3.5273-2.2266 6.7695-4.875 9.6562-7.8867 0.89453-1.1914 3.3281-1.2305 4.7461-1.6875l-2-4.5586c-0.55078 0.28516-1.3594 0.42969-1.5859 0.875-1.1562 2.2539-2.5273 3.7773-5.3516 2.6211l-1.3203 0.51172c-6.4141 5.1211-12.848 10.23-19.148 15.492-0.58203 0.48438-0.29297 2.0078-0.41016 3.0508l1.4844 0.70703-7.4766 6.1719-0.48828-3.9648-11.312 14.297 1.8242 2.1445zm169.52 24.883v0.003906c4.7656 9.4648 8.3672 19.477 10.73 29.809 0.6875 2.4922 2.5273 4.6758 3.1211 7.1758 0.64062 3.4297 1.0859 6.8945 1.3281 10.379l1.9453-0.10156c-0.25391-2.3164-0.22656-4.6562 0.09375-6.9648 0.51953-6.1328 0.17578-12.312-1.0156-18.352-0.085938-9.9688-8.6328-15.277-12.43-24.059-0.51562 2.8438-1.2461 4.5078-3.7773 2.1172zm-35.926 83.805-0.42187-0.75v0.003907c2.8164-2.1797 5.4766-4.5547 7.9609-7.1055 4.0625-3.9141 6.8594-8.9453 8.0391-14.461 0.38281-2.9258 1.0234-5.8164 1.4453-8.7383 0.14062-0.96094 0.37109-2.3242-0.12891-2.8867-2.2344-2.5234-4.7227-4.8242-7.4297-7.5195 0 5.8711 0.23438 11.223-0.089844 16.543h-0.003906c-0.28125 3.0547-0.96875 6.0586-2.0391 8.9336-0.95312 2.3906-2.0977 4.6992-3.418 6.9102-0.62109 1.3633-1.4062 2.6484-2.3398 3.8203-2.8164 3.0977-5.8242 6.0234-8.6797 9.0859-0.39844 0.68359-0.67578 1.4336-0.81641 2.2109l11.324-6.6367-0.4375-0.79688zm-120.49 77.605c4.457 5.6641 8.5977 11.625 13.793 17.594l2.875-4.5859h3.0352c-0.80469-1.2695-1.6836-2.4883-2.6289-3.6562-1.1602-1.2891-3.6172-2.4258-3.5938-3.5977 0.070312-3.8203-3.1562-3.9258-5.1055-5.3789-1.9453-1.4492-4.2461-2.4219-6.2188-3.8555-2.75-1.9922-5.3359-4.207-7.9883-6.332-0.074219 2.918 0.3125 5.832 1.1445 8.6289 0.63672 1.2773 1.4648 2.4453 2.4648 3.4609zm-28.305-167.33 0.73047 1.8164 1.7422-2.8672 0.53516 4.7344 2-4.6367h2.4648l-2.918-6.9492c-0.41016-0.87109 0.45312-1.8164 0.83203-2.9258h-0.003906c0.28125-1.2617 0.42578-2.5508 0.42969-3.8438-2.7578 0.6875-4.0156 1.4727-3.207 4.2617 0.44531 1.5352-0.49609 3.4766-0.97656 6.1445h-0.003906c-2.6797-2.4336-4.0859-5.9648-3.8164-9.5703 1.0547-3.4453 2.5-6.7578 4.3047-9.8711l-2.5977 0.34375 1.0039-2.4844-0.91016-0.51172h0.003906c-1.207 1.8555-2.3008 3.7852-3.2773 5.7734-0.62109 1.4414-0.41016 3.25-1.0352 4.6836-1.0078 2.2852-2.4102 4.4023-3.6445 6.5859l1.1016 0.57422 1.418-2.6328 0.96484 0.21875-1.6172 11.148zm-30.691-1.7266 1.4062 0.20312h-0.003907c1.168-2.1484 2.0938-4.4219 2.7578-6.7734 0.21484-2.8711 0.27344-5.75 0.17969-8.6289 0.23438-1.8906 0.59375-3.7656 1.0703-5.6094-1.4141 0.44531-2.9492 0.5-3.1758 1.0703-1.5742 3.4102-2.7266 7-3.4375 10.688-0.003906 3.0586 0.39844 6.1055 1.1992 9.0547zm268.34 26.312c1.1562 16.488 1.1172 17.531-0.58203 18.48l1.9023 4.6641c-0.10156-4.3008 6.5664-6.6133 3.3477-11.75-2.1367-3.4062 0.98047-8.8789-4.668-11.395zm-117.18-88.254 0.25391-1.1172c-1.1562-0.15625-2.7109-0.85938-3.3906-0.36719-2.1523 1.5664-4.1836 0.49219-6.3242 0.55469-4.7188 0.32812-9.4219 0.89453-14.086 1.6953l0.12891 1.1836 21.043 1.4336c-1.4492-2.2578-1.4492-2.2578 2.375-3.3828zm32.18 18.277 0.44531 0.49609 10.297 0.88672 0.15234-0.98828-13.695-4.4922-0.41016 1.2617 5.8516 1.9609zm-87.711 131.18 0.98828-0.10156-1.1211-15.871-1.3047 0.13281zm-1.582-23.219 2.6211 5.2578-0.003906-8.7227z" />
    <path
        d="m278.73 421.36-2.4883-2.0117 3.9492-1.8438-1.8242-1.5664 8.8008-2.5859c0.19531 1.3789 0.60547 2.7188 1.2188 3.9688 1.125 1.4922 0.82031 2.6484-0.61328 3.1211-3.125 1.0312-6.3633 1.707-9.5586 2.5273z" />
    <path
        d="m306 408.25 0.64453 0.42578c0.33594 1.9336 1.4062 5.2812 0.84766 5.5781l0.003907-0.003906c-3.1055 1.4766-6.3555 2.6367-9.6953 3.4609-0.52734-0.60547-0.89844-1.3281-1.0781-2.1094-0.078125-0.87109-0.050781-1.7461 0.082031-2.6094 1.5195-0.71875 3.2305-1.4688 4.8867-2.3203 1.5195-0.78516 2.9883-1.6758 4.3086-2.4219z" />
    <path
        d="m332.63 392.34c0.77734 6.2031-6.043 5.7773-6.1641 10.289l-0.92188-0.39062-0.52734-2.6289-2.9922 1.6797c1.7227-4.8555 6.8828-5.25 10.605-8.9492z" />
    <path d="m378.16 168.4c4.9883 0.125 4.043-2.3086 2.1172-5.5l5.9844 3.5938-2.2617 4.6719-5.4922-1.6797z" />
    <path
        d="m368.37 162.14 2.2539-4.5039v-0.003907c1.4648 0.96875 2.8047 2.1094 3.9922 3.3984 0.25781 0.33984-0.98828 2.1758-1.875 2.9492-2.9102 2.5391-2.8867-1.9766-4.3711-1.8398z" />
    <path d="m343.45 387.63 5.5625-3.8906 0.35156 5.4609-4.4023 1.1367z" />
    <path
        d="m374.05 146.62-4.9844-0.69531c0.94141-1.7461 1.6992-4.5391 2.6055-4.5898 4.3359-0.23828 1.125 3.5156 2.3789 5.2852z" />
    <path d="m178.81 126.07-7.0039 4.1289c0.16016-3.4102 2.7656-5.3594 8.9219-6.3555z" />
    <path
        d="m335.41 393.64c1.2734-0.82031 2.5117-1.7109 3.8477-2.4102l1.4258 0.42578c-0.26953 1.125-0.33594 2.5781-1.082 3.2383-0.63672 0.5625-2.0781 0.20312-3.1641 0.26172z" />
    <path d="m366.81 154.89 0.34766 3.0469-3.3867-2.6523 3.5859-3.2188 2.8672 2.3555-0.48828 0.75391z" />
</svg>