<?xml version="1.0" encoding="UTF-8"?>
<svg width="512pt" height="512pt" version="1.1" fill="currentColor" viewBox="0 0 512 512"
    xmlns="http://www.w3.org/2000/svg">
    <path
        d="m197.5 198.7c-2.3203-1.6211-5.0664-2.5312-7.8984-2.6133-1.8711 0.035156-3.7188 0.42187-5.4453 1.1445l-13.891-10.512 7.3516 15.797v0.27344l0.003906-0.003906c-2.1289 3.2773-2.8672 7.2656-2.0508 11.09 0.81641 3.8203 3.125 7.1602 6.4062 9.2812 2.3711 1.5312 5.1328 2.3477 7.9531 2.3398 0.91406-0.003906 1.8281-0.097656 2.7227-0.26953l28.648 31.863 4.4648-3.4297-23.309-35.789c1.7539-3.2383 2.2148-7.0195 1.2969-10.586-0.92188-3.5664-3.1523-6.6523-6.2539-8.6406zm-2.5039 15.906c-1.4336 2.1914-4.043 3.3047-6.6172 2.8242-2.5742-0.48047-4.6055-2.4648-5.1484-5.0234-0.54688-2.5625 0.50781-5.1992 2.6641-6.6875 2.1562-1.4844 4.9961-1.5234 7.1953-0.10156 1.4453 0.9375 2.4609 2.4102 2.8203 4.0977s0.027344 3.4453-0.91406 4.8906z" />
    <path
        d="m246.85 269.34c0 7.0391-5.7031 12.746-12.742 12.746-7.0391 0-12.746-5.707-12.746-12.746s5.707-12.746 12.746-12.746c7.0391 0 12.742 5.707 12.742 12.746z" />
    <path
        d="m38.672 356.44c28.18 23.59 59.742 42.812 93.633 57.031 34.898 15.641 72.016 25.766 110.02 30.012-25.383-13.184-58.391-29.141-89.816-42.703-36.168-15.797-83.664-33.445-113.84-44.34z" />
    <path
        d="m310.47 418.43c-23.258-12.094-117.54-53.109-150.88-67.598-33.332-14.488-128-55.664-152.34-64.109-1.3633-0.46875-2.8633-0.30859-4.0938 0.44141-1.2344 0.74609-2.0664 2.0039-2.2812 3.4258-0.87109 7.1914-2.0156 19.883 2.3438 26.527 6.2969 9.5586 13.602 18.414 21.785 26.418 26.254 9.3125 86.715 31.156 130.72 50.383 38.129 16.34 78.652 36.93 105.18 50.656h3.3789-0.003906c8.9219 0.125 17.832-0.69531 26.582-2.4531 7.8438-1.7422 16.34-10.895 20.809-16.34 0.92188-1.0938 1.3242-2.5391 1.0938-3.9531-0.23047-1.4141-1.0703-2.6562-2.293-3.3984z" />
    <path
        d="m294.13 102.62-2.5586 4.1406h-0.003906c11.41 3.8047 22.371 8.8438 32.684 15.031 10.18 6.4492 19.621 13.992 28.16 22.496l2.5586-4.1406c2.4883-3.9688 3.4961-8.6914 2.8477-13.332-0.64844-4.6445-2.9102-8.9102-6.3867-12.047-4.8672-4.2891-10.039-8.2227-15.469-11.766-5.6172-3.2695-11.461-6.1289-17.484-8.5508-4.3711-1.7266-9.2109-1.8555-13.668-0.35938-4.4531 1.4961-8.2344 4.5156-10.68 8.5273z" />
    <path
        d="m352.36 105.18 3.5938-5.8281c2.6836-4.2852 1.875-9.8828-1.9062-13.238-3.332-2.6406-6.9961-4.8398-10.895-6.5352-4.6875-1.9297-10.086-0.17578-12.746 4.1406l-3.5938 5.8281c4.8242 1.3867 9.3984 3.5156 13.562 6.3164 4.4609 2.4531 8.5078 5.5977 11.984 9.3164z" />
    <path
        d="m283.78 103.82c-12.363-47.77 34.754-43.902 34.754-43.902-0.050781-3.2109 1.0703-6.3281 3.1562-8.7695-64.219-5.0664-49.02 51.746-49.02 51.746z" />
    <path
        d="m404.86 197.88c0.72656-2.9453 2.0234-5.7227 3.8164-8.1719-12.637-8.9883-2.5039-21.789-2.5039-21.789l-0.003906 0.003906c0.28125-1.9336 0.28125-3.8945 0-5.8281-2.2344-4.0312-6.3711 0-6.3711 0-13.398 22.656-0.76562 32.625 5.0625 35.785z" />
    <path
        d="m418.04 189.11c-2.2344-4.0312-6.3711 0-6.3711 0-11.875 19.664-4.4648 27.562 1.6875 31.809l6.8086-5.4453c-12.965-7.1914-2.2344-20.699-2.2344-20.699 0.30078-1.875 0.33594-3.7812 0.10938-5.6641z" />
    <path
        d="m426.92 224.36c1.0977-1.6836 1.9414-3.5195 2.5039-5.4492-0.38281-4.5742-5.8828-2.4492-5.8828-2.4492-14.215 8.9883-14.543 19.117-12.309 26.09 2.4922-1.2461 5.1523-2.1289 7.8984-2.6133-1.3672-6.375 1.8711-12.848 7.7891-15.578z" />
    <path
        d="m411.56 269.23c3.2695-3.2148-1.8516-6.1016-1.8516-6.1016l-0.003907 0.003907c-2.1641-0.74609-4.3867-1.3086-6.6445-1.6914h-0.54297l0.27344 8.1172c1.0625 0.22266 2.1055 0.55078 3.1016 0.98047 1.9414-0.16406 3.8516-0.60156 5.668-1.3086z" />
    <path
        d="m423.22 242.27c-13.02 0.87109-18.027 5.7734-20.699 11.547v5.0664c2.0312 0.011719 4.0352 0.45703 5.8828 1.3086 2.5039-10.078 14.215-9.5312 14.215-9.5312 1.7188-0.91797 3.2969-2.0703 4.6836-3.4336 1.7969-4.1953-4.082-4.957-4.082-4.957z" />
    <path
        d="m414.34 177.84s11.383 8.5508 5.4453 19.391c-2.1172 2.7891-3.1641 6.25-2.9414 9.75 3.3711 0.78516 6.8945-0.44531 9.043-3.1602 4.6836-5.8828 9.3125-17.484-6.9727-32.68-0.88672 2.6055-2.4688 4.9258-4.5742 6.6992z" />
    <path
        d="m426.92 206.98s10.348 10.133 2.0156 19.391c-2.3945 1.832-4.3984 4.1289-5.8828 6.7539 3.832 0.92969 7.8789-0.019531 10.891-2.5625 5.8281-4.7383 12.691-12.582-2.3438-31.535h0.003907c-0.375 3.1914-2.0742 6.0742-4.6836 7.9531z" />
    <path
        d="m423.93 253.22c-2.9453 0.67188-5.7227 1.9297-8.1719 3.7031 3.0625 2.4453 7.1055 3.2969 10.895 2.2891 7.2461-1.8516 16.777-6.1562 10.895-29.629v-0.003907c-1.6172 2.6328-4.2305 4.5-7.2461 5.1758 0 0 5.0117 13.562-6.3711 18.465z" />
    <path
        d="m429.64 261.45c-3.0117 1.2188-6.3984 1.1016-9.3125-0.32422 0 0-4.5195 14.871-17.156 10.895v7.8984c6.9688 2.5039 17.48 3.918 26.469-18.469z" />
    <path
        d="m383.84 100.06s24.512 40.469-23.695 50.82l5.9375 9.5312s57.52-11.93 24.184-67.051h0.003906c-1.2617 2.9375-3.5469 5.3203-6.4297 6.6992z" />
    <path
        d="m353.5 75.113c15.742 10.566 12.91 21.789 12.91 21.789v-0.003906c4.3438 1.3945 9.0625 0.94531 13.066-1.2344 4.0039-2.1836 6.9414-5.9102 8.1211-10.312 0.80859-3.668 0.36719-7.5039-1.25-10.895-3.6602-9.4492-10.324-17.434-18.965-22.73-8.6406-5.293-18.777-7.6016-28.859-6.5742-2.9883 0.22656-5.8672 1.2383-8.3359 2.9414-3.9727 2.7969-6.4961 7.2148-6.8828 12.055-0.39062 4.8438 1.3945 9.6094 4.8711 13.004 0 0 8.8203-7.3555 25.324 1.9609z" />
    <path
        d="m387.65 366.46c-2.0117-4.8047-5.9727-8.5273-10.895-10.238l-4.5195 7.5703c2.082 0.625 3.9609 1.7891 5.4492 3.375 3.2383-0.90625 6.6289-1.1484 9.9648-0.70703z" />
    <path
        d="m385.96 381.28c0-0.54297 0.38281-0.92578 0.38281-0.92578-2.9453-0.30469-5.9219-0.046874-8.7695 0.76172-2.8203 0.21875-5.6445-0.35547-8.1562-1.6523-2.5117-1.3008-4.6094-3.2734-6.0625-5.6992l-5.8281 6.918v-0.003907c3.4844 5.418 9.5195 8.6523 15.961 8.5547 5.375 0.089843 10.289-3.0391 12.473-7.9531z" />
    <path
        d="m370.38 377.19c1.7344 0.75781 3.5703 1.2734 5.4453 1.5234 0 0 14.926-6.3164 20.098 8.2773l0.003907 0.003906c2.8516-1.0703 5.8867-1.5703 8.9297-1.4727-1.4688-6.4805-7.625-21.352-32.68-14.434 0.32812 0.054687-4.8477 2.8867-1.7969 6.1016z" />
    <path
        d="m398.82 397.62s15.906-6.6992 19.336 7.7344l7.1367-5.0664c-2.4492-7.082-8.0625-16.34-30.176-10.238 0 0-5.4453 2.832-1.9609 6.0469 1.8047 0.77734 3.7109 1.2891 5.6641 1.5234z" />
    <path
        d="m418.97 414.88c1.9961-0.019531 3.9766-0.33203 5.8828-0.92578 4.2578-5.0352 11.461-6.3984 17.266-3.2695 1.168-2.5078 2.6914-4.8359 4.5195-6.9141-6.1016-4.0312-15.961-6.4258-28.434 4.793 0.003906-0.054687-3.5391 4.7383 0.76562 6.3164z" />
    <path
        d="m410.53 399.47c-3.2031-1.1562-6.7109-1.1562-9.9141 0-12.094 2.9414-17.211-10.348-17.211-10.348-2.3945 1.5859-5.1914 2.4531-8.0625 2.5039 10.348 19.828 22.82 18.52 29.738 15.633 3.1602-1.3359 5.2773-4.3633 5.4492-7.7891z" />
    <path
        d="m434 412.54c-2.9336 0.71094-5.6914 2.0078-8.1133 3.8125-10.895 5.4453-18.082-7.1914-18.082-7.1914h-0.003907c-2.4805 2.0781-5.7266 3.0078-8.9297 2.5586 14.16 19.609 23.641 15.141 29.738 10.895 3.3359-2.2773 5.3477-6.0391 5.3906-10.074z" />
    <path
        d="m463.25 426.21c2.0781-3.4258 2.3594-7.6523 0.76172-11.328-2.3633 1.875-4.3281 4.2109-5.7734 6.8633-2.168 2.8594-5.5586 4.5352-9.1484 4.5195-3.6992-0.18359-7.2656-1.4102-10.297-3.5391l-3.0469-2.125c-1.7695 2.7695-4.0859 5.1406-6.8086 6.9727l3.5391 1.7969c5.2031 3.1992 11.113 5.0703 17.211 5.4492 2.8516 0.035157 5.6523-0.76172 8.0625-2.2891 2.4062-1.5273 4.3164-3.7227 5.5-6.3203z" />
    <path
        d="m234.21 107.57c-48.652 0-94.727 21.887-125.47 59.598-30.742 37.711-42.891 87.25-33.086 134.91 15.25 6.4805 31.156 13.289 45.809 19.609-14.129-30.461-15.32-65.348-3.3125-96.707 12.012-31.355 36.203-56.52 67.066-69.75s65.77-13.406 96.762-0.48828l3.8672-6.7539c0.92578-1.5703 2.9414-2.1055 4.5234-1.1953l24.676 14.215h-0.003906c1.5742 0.92188 2.1055 2.9414 1.1992 4.5195l-4.1406 7.1914c23.371 18.863 39.113 45.559 44.312 75.141 5.1992 29.578-0.49609 60.043-16.035 85.746-15.539 25.703-39.863 44.902-68.473 54.043 19.609 8.8242 36.168 16.34 44.281 20.809 40.867-24.258 69-65.254 76.934-112.11 7.9336-46.855-5.1367-94.828-35.742-131.18-30.602-36.355-75.645-57.414-123.17-57.59z" />
    <path
        d="m408.02 170c-1.5508 2.5352-2.6055 5.3438-3.1055 8.2773h0.98047c5.2695-0.82422 9.5508-4.6953 10.895-9.8594 1.7422-6.4805 1.6328-17.266-13.727-24.836-1.3438 2.3906-2.9336 4.6328-4.7383 6.6992 3.9141 1.3125 7.1367 4.1367 8.957 7.8398 1.8203 3.7031 2.0859 7.9766 0.73828 11.879z" />
    <path
        d="m384.38 161.23c-0.0625 5.6406 2.4648 11.004 6.8633 14.543 0.46875-3.3984 1.6367-6.6641 3.4297-9.5859-1.9688-3.4766-2.3086-7.6406-0.92578-11.387-2.8945 2.457-6.0352 4.6094-9.3672 6.4297z" />
    <path d="m251.26 275.55 81.047 20.152 21.188-5.7734-20.262-11.492-80.828-8.4414z" />
    <path
        d="m153.27 269.34c-0.011719 25.445 11.961 49.41 32.316 64.684 20.352 15.273 46.707 20.07 71.133 12.949 24.43-7.1211 44.078-25.328 53.039-49.145l-10.895-2.7227c-7.1875 18.617-22.027 33.246-40.742 40.176-18.715 6.9258-39.504 5.4805-57.082-3.9688-17.578-9.4492-30.25-25.992-34.793-45.426s-0.51953-39.879 11.043-56.145c-3.2617-2.1719-5.875-5.1836-7.5703-8.7148-10.586 13.891-16.359 30.852-16.449 48.312z" />
    <path
        d="m234.21 188.52c-10.262-0.007813-20.43 1.9531-29.957 5.7734 2.9648 2.5586 5.1875 5.8711 6.4297 9.5859 21.039-7.5117 44.41-4.457 62.812 8.207 18.406 12.664 29.609 33.402 30.109 55.738l11.273 1.1992c-0.11328-21.344-8.6562-41.781-23.762-56.855-15.109-15.078-35.559-23.578-56.906-23.648z" />
    <path
        d="m476.32 395.44c-7.2734 0.011719-14.367 2.2461-20.336 6.4023s-10.523 10.039-13.055 16.855c1.8594 1.1523 3.9727 1.8242 6.1562 1.9609 1.4414 0.023438 2.8281-0.52344 3.8672-1.5234 3.5859-7.2422 10.309-12.426 18.223-14.059 7.9141-1.6328 16.137 0.46875 22.297 5.7031 6.1602 5.2305 9.5664 13.004 9.2383 21.078-0.33203 8.0742-4.3594 15.547-10.926 20.258-6.5625 4.7109-14.934 6.1406-22.688 3.8672-7.7539-2.2734-14.031-7.9883-17.016-15.496h-1.8516c-2.8281-0.042969-5.6328-0.48438-8.3359-1.3086 1.9961 8.7852 7.2383 16.492 14.68 21.57s16.527 7.1523 25.434 5.8086 16.977-6.0078 22.59-13.055c5.6094-7.0469 8.3477-15.957 7.6641-24.938-0.6875-8.9805-4.7461-17.371-11.363-23.484-6.6133-6.1172-15.297-9.5-24.305-9.4766z" />
</svg>