<?xml version="1.0" encoding="UTF-8"?>
<svg width="512pt" height="512pt" version="1.1" viewBox="0 0 512 512" xmlns="http://www.w3.org/2000/svg"
    fill="currentColor">
    <path
        d="m107.57 312.83v18.031c0 125.39 136.43 176.75 142.23 178.88l6.1953 2.2656 6.1953-2.2656c5.8047-2.125 142.23-53.48 142.23-178.88v-18.031l0.007813-118.21h-47.637v-93.82c0-55.578-45.219-100.8-100.8-100.8s-100.8 45.219-100.8 100.8v48.238h37.266v-48.238c0-35.031 28.5-63.531 63.531-63.531 35.027 0 63.531 28.5 63.531 63.531v93.82h-211.96zm36.062-82.148h224.74v100.18c0 86.578-87.973 131.6-112.37 142.41-24.43-10.832-112.37-55.848-112.37-142.41z" />
    <path d="m236.92 375.39h38.168l-0.003907-82.164s2.1211-25.977-19.082-25.977-19.082 25.977-19.082 25.977z" />
</svg>