<?xml version="1.0" encoding="UTF-8"?>
<svg width="512pt" height="512pt" version="1.1" fill="currentColor" viewBox="0 0 512 512"
    xmlns="http://www.w3.org/2000/svg">
    <path
        d="m331.47 224.1c-9.957-23.488-30.285-40.996-54.988-47.359v-43.621h61.441v-40.961h-163.84v40.961h61.441v43.672c-14.133 3.668-27.031 11.043-37.355 21.371-10.328 10.324-17.703 23.223-21.371 37.355h-84.633v40.961h84.633c3.668 14.133 11.043 27.031 21.371 37.355 10.324 10.328 23.223 17.703 37.355 21.371v84.633h40.961v-84.633c14.133-3.668 27.031-11.043 37.355-21.371 10.328-10.324 17.703-23.223 21.371-37.355h84.633v-40.961h-84.582c-0.98047-3.8945-2.2461-7.7109-3.7891-11.418zm-75.469 72.859c-10.863 0-21.281-4.3164-28.965-11.996-7.6797-7.6836-11.996-18.102-11.996-28.965s4.3164-21.281 11.996-28.965c7.6836-7.6797 18.102-11.996 28.965-11.996s21.281 4.3164 28.965 11.996c7.6797 7.6836 11.996 18.102 11.996 28.965s-4.3164 21.281-11.996 28.965c-7.6836 7.6797-18.102 11.996-28.965 11.996z" />
</svg>