<?xml version="1.0" encoding="UTF-8"?>
<svg width="512pt" height="512pt" version="1.1" fill="currentColor" viewBox="0 0 512 512"
    xmlns="http://www.w3.org/2000/svg">
    <path
        d="m358.4 373.76c0 11.309-9.168 20.477-20.477 20.477-11.312 0-20.48-9.168-20.48-20.477 0-11.312 9.168-20.48 20.48-20.48 11.309 0 20.477 9.168 20.477 20.48z" />
    <path
        d="m194.56 373.76c0 11.309-9.168 20.477-20.48 20.477-11.309 0-20.477-9.168-20.477-20.477 0-11.312 9.168-20.48 20.477-20.48 11.312 0 20.48 9.168 20.48 20.48z" />
    <path
        d="m179.87 200.4c-8.5781 21.816-7.3945 46.262 3.2422 67.148 10.641 20.891 29.719 36.219 52.41 42.109v84.582h40.961v-84.633c22.734-5.8047 41.871-21.113 52.523-42.02 10.652-20.902 11.793-45.383 3.1289-67.188l74.805-44.902-21.094-35.125-77.875 46.746c-14.652-12.023-33.016-18.594-51.969-18.594s-37.316 6.5703-51.969 18.594l-77.926-46.746-21.094 35.125zm76.133-10.957c10.863 0 21.281 4.3125 28.965 11.996 7.6797 7.6797 11.996 18.098 11.996 28.961 0 10.863-4.3164 21.281-11.996 28.965-7.6836 7.6797-18.102 11.996-28.965 11.996s-21.281-4.3164-28.965-11.996c-7.6797-7.6836-11.996-18.102-11.996-28.965 0-10.863 4.3164-21.281 11.996-28.961 7.6836-7.6836 18.102-11.996 28.965-11.996z" />
</svg>