<?xml version="1.0" encoding="UTF-8"?>
<svg width="512pt" height="512pt" version="1.1" fill="currentColor" viewBox="0 0 512 512"
    xmlns="http://www.w3.org/2000/svg">
    <path
        d="m378.88 317.44h-43.672c-3.668-14.137-11.043-27.031-21.371-37.359-10.324-10.324-23.223-17.703-37.355-21.367v-84.637h-40.961v84.637c-14.133 3.6641-27.031 11.043-37.355 21.367-10.328 10.328-17.703 23.223-21.371 37.359h-43.672v-61.441h-40.961v163.84h40.961v-61.441h43.672c6.0586 23.668 22.363 43.391 44.465 53.797 22.102 10.406 47.691 10.406 69.793 0 22.102-10.406 38.402-30.129 44.461-53.797h43.367v61.441h40.961v-163.84h-40.961zm-106.96 58.215c-10.883 4.5898-23.215 4.2617-33.836-0.90625-10.621-5.1641-18.496-14.664-21.605-26.059-3.1055-11.398-1.1406-23.578 5.3906-33.422 6.5273-9.8398 16.988-16.387 28.695-17.953 11.707-1.5664 23.52 2 32.41 9.7773 8.8867 7.7773 13.984 19.016 13.984 30.828 0.039062 8.0625-2.3203 15.953-6.7773 22.676-4.4609 6.7188-10.816 11.961-18.262 15.059z" />
    <path
        d="m276.48 112.64c0 11.309-9.168 20.48-20.48 20.48s-20.48-9.1719-20.48-20.48c0-11.312 9.168-20.48 20.48-20.48s20.48 9.168 20.48 20.48z" />
    <path
        d="m358.4 153.6c0 11.309-9.168 20.477-20.477 20.477-11.312 0-20.48-9.168-20.48-20.477 0-11.312 9.168-20.48 20.48-20.48 11.309 0 20.477 9.168 20.477 20.48z" />
    <path
        d="m194.56 153.6c0 11.309-9.168 20.477-20.48 20.477-11.309 0-20.477-9.168-20.477-20.477 0-11.312 9.168-20.48 20.477-20.48 11.312 0 20.48 9.168 20.48 20.48z" />
</svg>