<?xml version="1.0" encoding="UTF-8"?>
<svg width="512pt" height="512pt" version="1.1" fill="currentColor" viewBox="0 0 512 512"
    xmlns="http://www.w3.org/2000/svg">
    <path
        d="m399.36 112.64c0 11.309-9.168 20.48-20.48 20.48-11.309 0-20.48-9.1719-20.48-20.48 0-11.312 9.1719-20.48 20.48-20.48 11.312 0 20.48 9.168 20.48 20.48z" />
    <path
        d="m153.6 399.36c0 11.312-9.1719 20.48-20.48 20.48-11.312 0-20.48-9.168-20.48-20.48 0-11.309 9.168-20.48 20.48-20.48 11.309 0 20.48 9.1719 20.48 20.48z" />
    <path
        d="m276.48 176.74v-23.141c0-5.4336 2.1562-10.641 5.9961-14.484 3.8438-3.8398 9.0508-5.9961 14.484-5.9961h20.48v-40.961h-20.48c-16.297 0-31.922 6.4727-43.445 17.996-11.523 11.52-17.996 27.148-17.996 43.445v23.195-0.003906c-23.512 6.1758-43.066 22.477-53.375 44.488-10.309 22.016-10.309 47.473 0 69.488 10.309 22.012 29.863 38.312 53.375 44.488v23.141c0 5.4336-2.1562 10.641-5.9961 14.484-3.8438 3.8398-9.0508 5.9961-14.484 5.9961h-20.48v40.961h20.48c16.297 0 31.922-6.4727 43.445-17.996 11.523-11.52 17.996-27.148 17.996-43.445v-23.191c23.664-6.0586 43.391-22.363 53.797-44.465 10.406-22.102 10.406-47.691 0-69.793-10.406-22.102-30.133-38.402-53.797-44.461zm-20.48 120.22c-10.863 0-21.281-4.3164-28.965-11.996-7.6797-7.6836-11.996-18.102-11.996-28.965s4.3164-21.281 11.996-28.965c7.6836-7.6797 18.102-11.996 28.965-11.996s21.281 4.3164 28.965 11.996c7.6797 7.6836 11.996 18.102 11.996 28.965s-4.3164 21.281-11.996 28.965c-7.6836 7.6797-18.102 11.996-28.965 11.996z" />
</svg>