<?xml version="1.0" encoding="UTF-8"?>
<svg width="512pt" height="512pt" version="1.1" fill="currentColor" viewBox="0 0 512 512"
    xmlns="http://www.w3.org/2000/svg">
    <path
        d="m378.88 235.52h-43.672c-3.668-14.133-11.043-27.031-21.371-37.355-10.324-10.328-23.223-17.703-37.355-21.371v-84.633h-40.961v84.582c-14.211 3.5352-27.191 10.875-37.547 21.23-10.355 10.355-17.695 23.336-21.23 37.547h-43.621v-61.441h-40.961v163.84h40.961v-61.441h43.672c3.668 14.133 11.043 27.031 21.371 37.355 10.324 10.328 23.223 17.703 37.355 21.371v84.633h40.961v-84.633c14.133-3.668 27.031-11.043 37.355-21.371 10.328-10.324 17.703-23.223 21.371-37.355h43.672v61.441h40.961v-163.84h-40.961zm-122.88 61.441c-10.863 0-21.281-4.3164-28.965-11.996-7.6797-7.6836-11.996-18.102-11.996-28.965s4.3164-21.281 11.996-28.965c7.6836-7.6797 18.102-11.996 28.965-11.996s21.281 4.3164 28.965 11.996c7.6797 7.6836 11.996 18.102 11.996 28.965s-4.3164 21.281-11.996 28.965c-7.6836 7.6797-18.102 11.996-28.965 11.996z" />
</svg>