<?xml version="1.0" encoding="UTF-8"?>
<svg width="512pt" height="512pt" version="1.1" fill="currentColor" viewBox="0 0 512 512"
    xmlns="http://www.w3.org/2000/svg">
    <path
        d="m194.56 378.88c0 11.312-9.168 20.48-20.48 20.48-11.309 0-20.477-9.168-20.477-20.48 0-11.309 9.168-20.48 20.477-20.48 11.312 0 20.48 9.1719 20.48 20.48z" />
    <path
        d="m358.4 378.88c0 11.312-9.168 20.48-20.477 20.48-11.312 0-20.48-9.168-20.48-20.48 0-11.309 9.168-20.48 20.48-20.48 11.309 0 20.477 9.1719 20.477 20.48z" />
    <path
        d="m320.51 226.15c-11.098-14.211-26.578-24.359-44.031-28.879v-84.633h-40.961v84.633c-17.461 4.5312-32.941 14.699-44.031 28.93l-65.383-39.273-21.094 35.125 70.094 42.086c-3.7812 23.684 3.0078 47.832 18.57 66.078s38.344 28.754 62.324 28.754 46.762-10.508 62.324-28.754 22.352-42.395 18.57-66.078l70.094-42.035-21.094-35.125zm-64.512 91.289c-10.863 0-21.281-4.3164-28.965-12-7.6797-7.6797-11.996-18.098-11.996-28.961s4.3164-21.281 11.996-28.965c7.6836-7.6797 18.102-11.996 28.965-11.996s21.281 4.3164 28.965 11.996c7.6797 7.6836 11.996 18.102 11.996 28.965s-4.3164 21.281-11.996 28.961c-7.6836 7.6836-18.102 12-28.965 12z" />
</svg>