<?xml version="1.0" encoding="UTF-8"?>
<svg width="512pt" height="512pt" fill="currentColor" version="1.1" viewBox="0 0 512 512" xmlns="http://www.w3.org/2000/svg">
 <path d="m332.46 168.28c35.496 51.199-46.934 125.44-76.461 149.68-29.523-24.234-111.96-98.477-76.457-149.68 6.4844-9.3867 16.383-12.117 23.551-12.801 1.1953 0 2.5586-0.17187 3.9258-0.17187 13.312 0 27.309 5.8047 36.863 15.359 6.6562 6.6562 17.578 6.6562 24.234 0 10.41-10.582 26.453-16.383 40.789-15.188 7.168 0.67969 17.066 3.4141 23.551 12.801z"/>
 <path d="m477.87 34.133c-26.797 3.4141-61.781 5.1211-102.4 0-50.859-6.4844-91.477-21.332-119.47-34.133-27.988 12.801-68.609 27.648-119.47 34.133-40.621 5.1211-75.605 3.4141-102.4 0-6.8242 37.203-31.574 196.27 68.266 341.33 51.027 74.07 114.52 115.54 153.6 136.53 39.082-20.992 102.57-62.465 153.6-136.53 99.84-145.07 75.094-304.13 68.266-341.33zm-211.97 319.32c-2.9023 2.2188-6.3164 3.2422-9.8984 3.2422-3.5859 0-6.9961-1.0234-9.8984-3.2422-6.4844-4.6094-156.84-114.69-94.723-204.63 10.922-15.699 28.16-25.43 48.641-27.305 19.285-1.875 39.594 3.9258 55.977 15.02 16.383-11.094 36.695-16.895 55.98-15.02 20.48 1.875 37.719 11.605 48.641 27.305 62.125 89.941-88.234 200.02-94.719 204.63z"/>
</svg>
